<?xml version="1.0" standalone="no"?>
<!DOCTYPE svg PUBLIC "-//W3C//DTD SVG 1.1//EN" "http://www.w3.org/Graphics/SVG/1.1/DTD/svg11.dtd" >
<svg xmlns="http://www.w3.org/2000/svg" xmlns:xlink="http://www.w3.org/1999/xlink" version="1.1">
<metadata>
Created by FontForge 20161116 at Wed Feb 22 18:01:57 2012
 By Jimmy Wärting
Copyright (c) 2011 by James T. Edmondson. All rights reserved.
</metadata>
<defs>
<font id="Lavanderia-Sturdy" horiz-adv-x="347" >
  <font-face 
    font-family="Lavanderia"
    font-weight="420"
    font-stretch="normal"
    units-per-em="1000"
    panose-1="2 0 6 3 2 0 0 2 0 3"
    ascent="750"
    descent="-250"
    x-height="456"
    cap-height="882"
    bbox="-653 -642 1744 1091"
    underline-thickness="20"
    underline-position="-133"
    stemh="20"
    stemv="148"
    unicode-range="U+0020-FB02"
  />
<missing-glyph horiz-adv-x="240" 
 />
    <glyph glyph-name="w_e" unicode="we" horiz-adv-x="786" 
d="M494 138h-15c-34 0 -62 11 -84 28c-41 -97 -98 -177 -159 -177c-53 0 -75 49 -79 123c-27 -72 -61 -123 -98 -123c-52 0 -70 52 -70 129c0 92 26 221 49 338h85c-29 -152 -56 -290 -56 -353c0 -22 3 -35 12 -35c21 0 58 58 85 180c8 66 21 139 35 208h84
c-26 -137 -49 -263 -49 -333c0 -35 6 -56 21 -56c25 0 65 70 96 156c-20 40 -29 89 -29 136c0 86 30 165 79 165c40 0 58 -32 58 -88c0 -63 -20 -154 -51 -237c19 -19 44 -31 77 -31h8c1 135 76 298 187 298c42 0 62 -33 62 -78c0 -77 -57 -187 -164 -231
c5 -47 23 -82 62 -82c59 0 108 62 146 164c6 0 28 -8 28 -14c-50 -131 -100 -235 -198 -235c-79 0 -116 66 -122 148zM672 404c-48 0 -92 -114 -96 -208c72 47 107 142 107 185c0 14 -4 23 -11 23zM400 454c0 15 -2 23 -11 23c-15 0 -30 -53 -30 -116c0 -27 3 -57 10 -84
c18 62 31 127 31 177z" />
    <glyph glyph-name="F_r" unicode="Fr" horiz-adv-x="1230" 
d="M1039 867l35 -45c-17 -28 -40 -50 -78 -64c-21 -58 -48 -170 -72 -396c40 6 76 19 102 33c-7 20 -12 43 -12 73c0 32 6 73 22 125l75 -22c-3 -61 -7 -91 -20 -140c-2 -9 -5 -17 -9 -25c33 -35 77 -74 77 -132c0 -64 -46 -147 -46 -182c0 -15 6 -21 16 -21
c22 0 57 53 101 168c5 0 28 -7 28 -13v-1c-44 -114 -79 -230 -161 -230c-47 0 -73 33 -73 87c0 65 54 124 54 175c0 41 -17 69 -33 98c-27 -23 -68 -40 -127 -47c-57 -442 -233 -545 -387 -545c-163 0 -231 94 -231 186c0 87 60 172 157 173l3 -91c-44 0 -72 -44 -72 -92
c0 -58 41 -122 146 -122s226 64 282 484c-66 -9 -118 -36 -118 -98c0 -14 3 -29 8 -46l-77 -30c-11 21 -16 42 -16 64c0 82 78 158 210 167c22 193 56 312 92 386h-22c-147 0 -297 61 -504 61c-192 0 -289 -153 -289 -292c0 -116 67 -223 204 -223c138 0 187 100 187 214
c0 18 -1 36 -3 55l90 16c2 -20 4 -40 4 -60c0 -146 -70 -275 -277 -275c-202 0 -301 138 -301 286c0 170 132 354 388 354c216 0 388 -81 513 -81c17 0 31 1 44 2c35 47 68 61 90 66z" />
    <glyph glyph-name="o_e" unicode="oe" horiz-adv-x="624" 
d="M287 149c12 0 23 1 34 3v13c0 135 75 301 187 301c53 0 79 -40 79 -92c0 -81 -61 -193 -177 -241c8 -35 26 -58 58 -58c59 0 118 62 156 164c6 0 28 -8 28 -14c-50 -131 -110 -235 -208 -235c-70 0 -107 51 -119 121c-13 -2 -26 -2 -39 -2c-15 0 -29 1 -43 2
c-31 -67 -81 -121 -152 -121c-69 0 -99 72 -99 163c0 56 11 119 31 178l30 -7c8 75 58 142 130 142c68 0 102 -68 102 -168c0 -43 -9 -97 -26 -148c9 -1 18 -1 28 -1zM168 402c-39 0 -64 -43 -64 -93c0 -48 23 -103 76 -134c16 48 27 104 27 149s-11 78 -39 78zM500 404
c-50 0 -95 -124 -96 -220c76 50 116 140 116 188c0 19 -7 32 -20 32zM68 225c-3 -21 -5 -41 -5 -60c0 -58 15 -99 41 -99c21 0 41 25 60 66c-48 21 -79 55 -96 93z" />
    <glyph glyph-name="b_r" unicode="br" horiz-adv-x="550" 
d="M173 459c53 0 80 -39 90 -101c35 10 65 27 81 43c-6 18 -11 40 -11 67c0 33 6 73 23 125l75 -22v-15c0 -55 -10 -105 -32 -146c33 -36 80 -76 80 -136c0 -64 -46 -147 -46 -182c0 -15 6 -21 16 -21c22 0 57 53 101 168c5 0 28 -7 28 -13v-1c-44 -114 -79 -230 -161 -230
c-47 0 -73 33 -73 87c0 65 54 124 54 175c0 44 -18 71 -35 103c-24 -25 -56 -44 -95 -54v-21c0 -130 -84 -290 -172 -290c-74 0 -100 67 -100 169c0 62 10 137 25 218c47 258 75 416 170 416c41 0 59 -23 59 -59c0 -65 -57 -173 -145 -278l-6 -34c16 19 41 32 74 32z
M189 296h-6c-54 0 -84 22 -97 50c-10 -69 -17 -137 -17 -189c0 -53 8 -88 29 -88c53 0 89 126 91 227zM204 711c0 3 1 6 1 8c0 9 -4 14 -9 14c-7 0 -30 -10 -75 -199c32 47 70 112 83 177zM151 394c-8 -2 -13 -9 -13 -17c0 -12 13 -28 47 -29c-5 29 -15 46 -30 46h-4z" />
    <glyph glyph-name="b_s" unicode="bs" horiz-adv-x="581" 
d="M368 422l3 8c-1 10 -1 20 -1 31c0 41 6 85 22 134l68 -13c-5 -45 -15 -87 -30 -124c0 -5 -1 -9 -1 -14c0 -89 102 -193 102 -308v-4c19 31 35 68 50 107c6 0 28 -8 28 -14c-46 -120 -102 -235 -210 -235c-47 0 -85 27 -99 68l61 44c13 -22 25 -30 44 -30
c25 0 39 18 39 54c0 77 -46 154 -65 250c-29 -32 -66 -56 -111 -69v-22c0 -130 -84 -290 -172 -290c-74 0 -100 67 -100 169c0 62 10 137 25 218c47 258 75 416 170 416c41 0 59 -23 59 -59c0 -65 -57 -173 -145 -278l-6 -34c16 19 41 32 74 32c53 0 80 -40 90 -102
c55 15 99 43 105 65zM86 346c-10 -69 -17 -137 -17 -189c0 -53 8 -88 29 -88c53 0 89 126 91 227h-6c-54 0 -84 22 -97 50zM204 711c0 3 1 6 1 8c0 9 -4 14 -9 14c-7 0 -30 -10 -75 -199c32 47 70 112 83 177zM151 394c-8 -2 -13 -9 -13 -17c0 -12 13 -28 47 -29
c-5 29 -15 46 -30 46h-4z" />
    <glyph glyph-name="f_r" unicode="fr" horiz-adv-x="503" 
d="M219 711c0 14 -4 22 -10 22c-20 0 -70 -194 -112 -398c49 91 121 255 122 376zM59 -182c21 0 34 30 34 68c0 42 -15 93 -50 128c-5 -46 -8 -86 -8 -119c0 -48 7 -77 24 -77zM304 385c-10 22 -18 49 -18 84c0 32 7 72 23 124l75 -22c-4 -66 -12 -114 -28 -166
c33 -34 76 -74 76 -131c0 -64 -46 -147 -46 -182c0 -15 6 -21 16 -21c22 0 57 53 101 168c5 0 28 -7 28 -13v-1c-44 -114 -79 -230 -161 -230c-47 0 -65 30 -65 75c0 65 46 136 46 187c0 30 -9 53 -20 74c-72 -189 -168 -262 -246 -287c40 -42 57 -95 57 -143
c0 -72 -37 -133 -90 -133c-46 0 -93 21 -93 137c0 217 103 708 157 831c19 42 51 62 81 62c35 0 67 -28 67 -79c0 -208 -132 -410 -187 -486c-10 -51 -18 -101 -25 -148c141 26 228 185 252 300z" />
    <glyph glyph-name="x_t" unicode="xt" horiz-adv-x="571" 
d="M0 238v1c55 141 95 225 147 225c62 0 75 -78 79 -166c62 166 218 205 352 160l-18 -48c-147 45 -253 26 -333 -194c1 -82 5 -152 43 -152c37 0 74 56 119 175c6 0 28 -8 28 -14c-64 -168 -124 -232 -182 -232c-51 0 -72 52 -80 119c-30 -68 -64 -122 -107 -122
c-39 0 -57 24 -57 64c0 26 8 57 28 94l55 -23c-9 -18 -16 -39 -16 -53c0 -11 4 -18 13 -18c25 0 51 53 79 127c-4 102 5 208 -28 208c-21 0 -43 -30 -94 -164c0 0 -28 5 -28 13zM473 692h71c-5 -82 -15 -158 -32 -238l-11 -46c-9 -38 -19 -77 -31 -118
c-10 -69 -15 -121 -15 -158c0 -42 7 -64 20 -64c27 0 66 94 96 171c6 0 28 -9 28 -14c-59 -160 -90 -230 -155 -230c-44 0 -62 54 -62 139c0 73 13 172 34 274c23 116 34 183 57 284z" />
    <glyph glyph-name=".notdef" horiz-adv-x="240" 
 />
    <glyph glyph-name="NULL" horiz-adv-x="500" 
 />
    <glyph glyph-name="CR" horiz-adv-x="500" 
 />
    <glyph glyph-name="space" unicode=" " horiz-adv-x="181" 
 />
    <glyph glyph-name="Scaron" unicode="&#x160;" horiz-adv-x="1098" 
d="M1112 923l-41 5c-41 63 -65 124 -65 124l61 29s6 -39 37 -104c0 0 34 54 84 93l40 -46c-86 -62 -116 -101 -116 -101zM44 111l20 79c55 -11 110 -17 163 -19v13c0 199 113 394 331 394c166 0 243 -123 254 -264c43 27 83 57 118 89c-2 38 -3 73 -3 105
c0 279 63 378 152 378c64 0 89 -53 89 -107c0 -108 -50 -229 -140 -339l3 -69c0 -13 1 -26 1 -39c0 -297 -145 -564 -432 -564c-215 0 -334 153 -365 326c-62 0 -125 6 -191 17zM651 -62l-50 79c75 44 122 117 141 196c-120 -63 -261 -106 -419 -117
c28 -147 124 -276 298 -276c196 0 313 203 313 485c0 12 -1 25 -1 38c-37 -32 -77 -63 -121 -91c-7 -130 -66 -261 -161 -314zM752 281v19c0 122 -66 234 -194 234c-158 0 -244 -170 -244 -344c0 -6 1 -13 1 -20c164 5 313 46 437 111zM1117 780c0 27 -12 50 -36 50
c-50 0 -63 -53 -63 -153c0 -46 2 -102 6 -168c59 84 93 177 93 271z" />
    <glyph glyph-name="scaron" unicode="&#x161;" horiz-adv-x="251" 
d="M128 643l-41 5c-41 63 -65 124 -65 124l61 29s6 -39 37 -104c0 0 34 54 84 93l40 -46c-86 -62 -116 -101 -116 -101zM-30 58l61 44c13 -22 25 -30 44 -30c25 0 39 18 39 54c0 62 -29 122 -51 193c-11 -33 -24 -64 -35 -94c0 0 -28 5 -28 13v1c13 34 32 79 51 127
c-7 30 -12 62 -12 96c0 40 7 84 23 133l68 -13c-8 -54 -18 -102 -30 -146c3 -84 101 -188 101 -300v-4c19 31 35 68 50 107c6 0 28 -8 28 -14c-46 -120 -102 -235 -210 -235c-47 0 -85 27 -99 68z" />
    <glyph glyph-name="Yacute" unicode="&#xdd;" horiz-adv-x="803" 
d="M771 883l81 -15c-14 -148 -64 -264 -64 -264c-56 -375 -86 -955 -393 -955c-74 0 -114 48 -114 113c0 67 52 134 148 135l2 -79c-61 -8 -85 -43 -85 -73c0 -29 21 -46 48 -46c121 0 186 200 231 434c-41 -84 -96 -143 -159 -143c-83 0 -123 56 -123 158
c0 117 58 269 58 405c0 175 -93 274 -237 274c-182 0 -320 -149 -320 -346c0 -162 95 -237 189 -237c104 0 180 76 202 214l93 -22c-32 -170 -146 -252 -292 -252c-167 0 -287 119 -287 304c0 234 180 395 421 395c191 0 318 -109 318 -330c0 -141 -50 -298 -50 -407
c0 -31 11 -77 52 -77c81 0 138 132 174 305c32 227 57 441 107 509zM690 1065l62 -43c-49 -80 -110 -119 -110 -119l-36 32c17 19 55 68 84 130z" />
    <glyph glyph-name="yacute" unicode="&#xfd;" horiz-adv-x="312" 
d="M312 239c9 0 28 -7 28 -13v-1c-38 -98 -93 -169 -147 -225l-22 -129c-17 -101 -55 -175 -119 -175c-45 0 -77 26 -77 79c0 69 64 126 138 197l12 67c-19 -27 -42 -44 -69 -44c-53 0 -71 48 -71 115c0 41 7 89 16 137c25 130 45 209 45 209h85s-20 -83 -45 -211
c-11 -56 -20 -103 -20 -143c0 -29 11 -34 20 -34c50 0 91 295 111 388h82c-12 -44 -45 -230 -74 -389c42 48 81 104 107 172zM31 -224c0 -19 10 -27 20 -27c17 0 25 20 31 51l20 107c-42 -44 -71 -83 -71 -131zM207 645l62 -43c-49 -80 -110 -119 -110 -119l-36 32
c17 19 55 68 84 130z" />
    <glyph glyph-name="Thorn" unicode="&#xde;" horiz-adv-x="423" 
d="M5 134v50c13 0 26 1 39 2c23 123 42 233 63 358c-20 -11 -39 -25 -58 -41l-38 44c36 27 69 48 106 60l19 114h90l-17 -99c134 -1 201 -85 201 -183c0 -116 -94 -252 -284 -293l-27 -146h-93l28 135c-10 -1 -19 -1 -29 -1zM201 572l-64 -365c121 47 183 157 183 244
c0 67 -37 121 -112 121h-7z" />
    <glyph glyph-name="thorn" unicode="&#xfe;" horiz-adv-x="336" 
d="M-33 -9l5 -10c-13 -39 -40 -169 -48 -228c20 143 124 767 144 967h75c-6 -60 -24 -184 -46 -326c27 46 60 72 93 72c56 0 80 -59 80 -136c0 -97 -38 -223 -95 -296c87 20 134 107 171 205c6 0 28 -8 28 -14c-46 -121 -107 -235 -230 -235c-44 0 -83 18 -102 61l-59 -350
h-67v12c0 90 29 211 51 278zM67 203c-1 -5 -3 -12 -4 -21l-21 -131c-7 16 -12 37 -12 62c0 13 2 27 4 42l18 26c-9 13 -19 33 -19 38c15 71 37 132 64 175l-34 -212c-2 -12 -3 -28 -3 -43c0 -33 7 -64 35 -64c46 0 88 164 88 256c0 37 -6 63 -22 63c-33 0 -70 -67 -94 -191z
M-79 -269c0 5 1 12 3 22c-2 -9 -3 -17 -3 -22z" />
    <glyph glyph-name="Zcaron" unicode="&#x17d;" horiz-adv-x="643" 
d="M372 835c-171 0 -263 -190 -263 -340c0 -100 40 -183 125 -183c71 0 121 71 121 141c0 50 -25 100 -85 124l59 84c64 -25 99 -103 99 -184c0 -106 -60 -215 -193 -215c-147 0 -219 120 -219 254c0 172 119 369 356 369c206 0 309 -134 309 -298s-103 -358 -310 -480
c77 -41 110 -115 110 -192c0 -129 -94 -266 -230 -266c-87 0 -131 61 -131 133c0 68 39 146 115 193l46 -79c-68 -46 -94 -94 -94 -132s28 -65 64 -65c92 0 145 109 145 214c0 69 -23 136 -73 168c-32 -16 -65 -33 -104 -33c-6 0 -12 0 -17 1l14 92h4c34 0 65 -4 92 -11
c179 106 269 300 269 457c0 138 -69 248 -209 248zM450 904l-41 5c-41 63 -65 124 -65 124l61 29s6 -39 37 -104c0 0 34 54 84 93l40 -46c-86 -62 -116 -101 -116 -101z" />
    <glyph glyph-name="zcaron" unicode="&#x17e;" horiz-adv-x="292" 
d="M4 -5l3 41c8 1 24 3 32 3c5 0 10 0 15 -1c45 56 88 225 88 305c0 32 -11 44 -25 44c-35 0 -48 -55 -89 -162c0 0 -28 5 -28 13v1c43 115 56 222 133 222c70 0 99 -62 99 -140c0 -106 -51 -242 -124 -301c9 -6 18 -13 25 -20c57 58 117 129 159 239c7 0 28 -6 28 -12
c-43 -112 -109 -188 -169 -253c14 -27 21 -59 21 -92c0 -90 -50 -184 -137 -184c-37 0 -61 28 -61 68c0 73 53 129 108 184c-4 18 -10 34 -18 46c-10 -3 -21 -5 -32 -5c-10 0 -19 1 -28 4zM38 -261c31 0 52 73 52 144c0 8 -1 15 -1 23c-41 -46 -70 -101 -70 -143
c0 -15 6 -24 19 -24zM172 473l-41 5c-41 63 -65 124 -65 124l61 29s6 -39 37 -104c0 0 34 54 84 93l40 -46c-86 -62 -116 -101 -116 -101z" />
    <glyph glyph-name="onehalf" unicode="&#xbd;" horiz-adv-x="401" 
d="M218 -6l-32 29c35 90 159 100 159 175c0 18 -11 32 -30 32c-21 0 -35 -16 -35 -39c0 -8 2 -17 6 -27l-51 -15c-3 10 -4 21 -4 31c0 44 23 90 91 90c43 0 71 -25 71 -71c0 -82 -86 -102 -143 -161c35 6 72 -7 106 23l22 -47c-12 -13 -24 -19 -48 -19c-27 0 -52 18 -76 18
c-13 0 -25 -5 -36 -19zM35 361l-27 25c43 31 69 70 69 70h48c-3 -21 -19 -51 -52 -265h-48c23 133 39 206 41 214c-2 -4 -14 -25 -31 -44zM256 469l41 -16c-75 -152 -137 -284 -224 -456l-40 15c93 189 142 292 223 457z" />
    <glyph glyph-name="onequarter" unicode="&#xbc;" horiz-adv-x="395" 
d="M363 0h-113l5 31h33c2 18 5 33 7 48c-18 4 -34 9 -48 9c-11 0 -20 -3 -27 -12l-29 19c34 44 59 108 59 178h48c-1 -42 -19 -108 -49 -159c4 1 9 1 13 1c12 0 24 -3 37 -4c16 102 21 120 29 162h47c-3 -18 -6 -16 -29 -161c10 3 18 8 26 17l22 -33
c-11 -12 -30 -18 -53 -20l-7 -45h34zM32 361l-27 25c43 31 69 70 69 70h48c-3 -21 -19 -51 -52 -265h-48c23 133 39 206 41 214c-2 -4 -14 -25 -31 -44zM256 469l41 -16c-75 -152 -137 -284 -224 -456l-40 15c93 189 142 292 223 457z" />
    <glyph glyph-name="onesuperior" unicode="&#xb9;" horiz-adv-x="127" 
d="M32 626l-27 25c43 31 69 70 69 70h48c-3 -21 -19 -51 -52 -265h-48c23 133 39 206 41 214c-2 -4 -14 -25 -31 -44z" />
    <glyph glyph-name="threequarters" unicode="&#xbe;" horiz-adv-x="388" 
d="M276 121l3 36h1c9 0 19 -1 27 -3c12 12 19 30 19 46s-8 30 -24 30c-15 0 -26 -13 -26 -29c0 -3 0 -6 1 -8l-51 -10c-1 4 -1 8 -1 12c0 45 29 75 77 75c52 0 76 -27 76 -61c0 -25 -14 -52 -38 -69c22 -16 33 -40 33 -64c0 -40 -31 -81 -92 -81c-51 0 -82 27 -82 71
c0 10 2 21 5 33l48 -15c-3 -8 -5 -16 -5 -23c0 -22 14 -36 35 -36c26 0 38 27 38 55c0 17 -4 33 -12 45c-10 -3 -19 -4 -30 -4h-2zM256 469l41 -16c-75 -152 -137 -284 -224 -456l-40 15c93 189 142 292 223 457zM34 361l-27 25c43 31 69 70 69 70h48
c-3 -21 -19 -51 -52 -265h-48c23 133 39 206 41 214c-2 -4 -14 -25 -31 -44z" />
    <glyph glyph-name="threesuperior" unicode="&#xb3;" horiz-adv-x="206" 
d="M91 577l3 36h1c9 0 19 -1 27 -3c12 12 19 30 19 46s-8 30 -24 30c-15 0 -26 -13 -26 -29c0 -3 0 -6 1 -8l-51 -10c-1 4 -1 8 -1 12c0 45 29 75 77 75c52 0 76 -27 76 -61c0 -25 -14 -52 -38 -69c22 -16 33 -40 33 -64c0 -40 -31 -81 -92 -81c-51 0 -82 27 -82 71
c0 10 2 21 5 33l48 -15c-3 -8 -5 -16 -5 -23c0 -22 14 -36 35 -36c26 0 38 27 38 55c0 17 -4 33 -12 45c-10 -3 -19 -4 -30 -4h-2z" />
    <glyph glyph-name="twosuperior" unicode="&#xb2;" horiz-adv-x="232" 
d="M48 450l-32 29c35 90 159 100 159 175c0 18 -11 32 -30 32c-21 0 -35 -16 -35 -39c0 -8 2 -17 6 -27l-51 -15c-3 10 -4 21 -4 31c0 44 23 90 91 90c43 0 71 -25 71 -71c0 -82 -86 -102 -143 -161c35 6 72 -7 106 23l22 -47c-12 -13 -24 -19 -48 -19c-27 0 -52 18 -76 18
c-13 0 -25 -5 -36 -19z" />
    <glyph glyph-name="brokenbar" unicode="&#xa6;" horiz-adv-x="186" 
d="M80 346h54c-20 -110 -39 -214 -65 -346h-52c21 119 42 234 63 346zM141 386h-55c21 118 44 225 63 335h52c-20 -114 -38 -217 -60 -335z" />
    <glyph glyph-name="minus" unicode="&#x2212;" horiz-adv-x="227" 
d="M23 283h179l-9 -52h-179z" />
    <glyph glyph-name="multiply" unicode="&#xd7;" horiz-adv-x="222" 
d="M79 266l-55 83l39 26l51 -75l74 73l32 -33l-79 -79l55 -80l-40 -28l-50 74l-73 -73l-34 33z" />
    <glyph glyph-name="lslash" unicode="&#x142;" horiz-adv-x="226" 
d="M191 443h31l-9 -52h-48c-30 -54 -60 -96 -82 -123c-5 -43 -8 -82 -8 -114c0 -67 15 -88 38 -88c32 0 70 62 113 173c5 0 24 -8 24 -13v-1c-59 -160 -105 -235 -170 -235c-60 0 -84 59 -84 163c0 63 9 143 24 238h-16l9 52h16c45 246 107 357 165 357c52 0 67 -42 67 -93
c0 -59 -20 -130 -30 -161c-12 -37 -26 -72 -40 -103zM217 711c0 14 -5 22 -10 22c-22 0 -64 -139 -95 -290h34c37 85 70 186 71 268zM92 331c9 17 20 37 31 60h-21c-4 -20 -7 -40 -10 -60z" />
    <glyph glyph-name="exclam" unicode="!" horiz-adv-x="159" 
d="M215 730l92 -24c-74 -179 -124 -328 -178 -536l-56 9c45 220 84 369 142 551zM61 -10c-32 0 -47 24 -47 51c0 36 26 79 70 79c33 0 47 -24 47 -52c0 -36 -26 -78 -70 -78z" />
    <glyph glyph-name="quotedbl" unicode="&#x22;" horiz-adv-x="200" 
d="M91 580l-45 8c15 75 18 142 18 142l67 -12s-24 -61 -40 -138zM186 580l-45 8c15 75 18 142 18 142l67 -12s-24 -61 -40 -138z" />
    <glyph glyph-name="numbersign" unicode="#" horiz-adv-x="386" 
d="M258 482h76c-7 -43 -14 -84 -22 -124h73l-9 -52h-73c-4 -23 -8 -46 -13 -68h76l-9 -52h-77l-21 -109h-76l21 109h-41l-21 -109h-76l21 109h-74l9 52h75l12 68h-77l9 52h78l22 124h76c-7 -43 -14 -84 -22 -124h41zM173 238h41l12 68h-40c-4 -23 -8 -46 -13 -68z" />
    <glyph glyph-name="dollar" unicode="$" horiz-adv-x="317" 
d="M-5 151l90 -15c-4 -12 -6 -24 -6 -35c0 -29 14 -52 46 -52s51 23 51 60c0 78 -126 128 -126 227c0 63 33 126 127 130l13 73h52l-13 -79c48 -15 79 -56 79 -115c0 -14 -2 -28 -5 -44l-86 19c5 15 7 29 7 41c0 31 -16 51 -43 51c-29 0 -44 -21 -44 -46
c0 -85 137 -129 137 -233c0 -78 -46 -132 -128 -141l-14 -82h-62l14 83c-53 10 -94 44 -94 113c0 14 1 29 5 45z" />
    <glyph glyph-name="percent" unicode="%" horiz-adv-x="454" 
d="M361 200c-38 0 -64 -63 -64 -112c0 -29 10 -53 33 -53c38 0 64 63 64 111c0 30 -10 54 -33 54zM365 240c60 0 87 -45 87 -97c0 -69 -47 -148 -127 -148c-60 0 -87 45 -87 97c0 69 47 148 127 148zM140 466c27 0 51 -6 75 -6c53 0 100 14 161 67l46 -25
c-65 -148 -219 -382 -348 -513l-47 37c209 221 319 445 319 445s-44 -35 -128 -35h-13c14 -18 21 -42 21 -68c0 -68 -46 -147 -126 -147c-60 0 -87 45 -87 97c0 69 47 148 127 148zM136 426c-38 0 -64 -63 -64 -112c0 -29 10 -53 33 -53c38 0 64 63 64 111
c0 30 -10 54 -33 54z" />
    <glyph glyph-name="ampersand" unicode="&#x26;" horiz-adv-x="509" 
d="M311 319l8 49h181l-8 -49s-21 -1 -49 -1c-4 -106 -31 -201 -84 -261c43 -62 91 -103 142 -103c30 0 51 15 67 40l42 -43c-31 -32 -61 -45 -108 -45c-72 0 -140 42 -197 107c-27 -14 -58 -23 -93 -23c-134 0 -193 87 -193 185c0 81 40 170 112 225c-7 38 -10 75 -10 109
c0 124 44 217 150 217c80 0 115 -58 115 -120c0 -42 -16 -85 -45 -114l-58 45c21 26 31 56 31 82c0 32 -15 57 -44 57c-45 0 -64 -53 -64 -129c0 -124 50 -311 123 -442c20 48 24 121 25 213c-14 0 -28 0 -43 1zM222 39c21 0 39 3 54 10c-62 83 -109 191 -134 297
c-23 -40 -33 -89 -33 -136c0 -90 39 -171 113 -171z" />
    <glyph glyph-name="quotesingle" unicode="'" horiz-adv-x="135" 
d="M115 580l-45 8c15 75 18 142 18 142l67 -12s-24 -61 -40 -138z" />
    <glyph glyph-name="parenleft" unicode="(" horiz-adv-x="203" 
d="M210 785l49 -29c-93 -194 -159 -516 -159 -757c0 -29 1 -57 3 -84l-50 -10c-23 75 -34 157 -34 242c0 225 77 467 191 638z" />
    <glyph glyph-name="parenright" unicode=")" horiz-adv-x="218" 
d="M11 -95l-49 29c93 194 159 516 159 756c0 30 -1 58 -3 85l50 10c23 -76 34 -158 34 -242c0 -226 -77 -467 -191 -638z" />
    <glyph glyph-name="asterisk" unicode="*" horiz-adv-x="184" 
d="M96 733l49 -8c-6 -31 -14 -55 -20 -72c16 8 39 18 68 29l12 -49c-24 -8 -51 -13 -71 -16c17 -10 38 -25 62 -45l-34 -34c-19 15 -37 36 -50 53c0 -20 -2 -47 -7 -75l-49 12c4 24 13 48 20 67c-16 -8 -38 -18 -67 -28l-14 48c22 7 49 13 69 16c-15 8 -34 22 -59 44l34 34
c19 -17 36 -36 48 -52c0 18 2 43 9 76z" />
    <glyph glyph-name="plus" unicode="+" horiz-adv-x="197" 
d="M129 283h63l-9 -52h-64l-13 -75l-50 6l12 69h-64l9 52h65l14 77l50 -6z" />
    <glyph glyph-name="comma" unicode="," horiz-adv-x="152" 
d="M8 -132l-37 33c31 48 38 108 38 155h74c0 -78 -29 -143 -75 -188z" />
    <glyph glyph-name="hyphen" unicode="-" horiz-adv-x="219" 
d="M23 283h179l-9 -52h-179z" />
    <glyph glyph-name="period" unicode="." horiz-adv-x="200" 
d="M61 -10c-32 0 -47 24 -47 51c0 36 26 79 70 79c33 0 47 -24 47 -52c0 -36 -26 -78 -70 -78z" />
    <glyph glyph-name="slash" unicode="/" horiz-adv-x="190" 
d="M76 -10l-56 19c115 364 172 715 172 715l61 -9s-59 -370 -177 -725z" />
    <glyph glyph-name="zero" unicode="0" horiz-adv-x="336" 
d="M142 51c35 0 89 144 89 285c0 49 -12 70 -33 70c-45 0 -87 -165 -87 -280c0 -54 10 -75 31 -75zM137 -9c-83 0 -115 74 -115 167c0 150 73 308 185 308c83 0 112 -75 112 -167c0 -164 -78 -308 -182 -308z" />
    <glyph glyph-name="one" unicode="1" horiz-adv-x="245" 
d="M220 0h-205l7 51h58c30 193 59 295 59 295s-21 -30 -70 -76l-28 57c67 44 145 132 145 132l51 -16c-3 -20 -35 -166 -70 -392h60z" />
    <glyph glyph-name="two" unicode="2" horiz-adv-x="302" 
d="M168 408c-31 0 -52 -28 -52 -66c0 -13 2 -27 7 -41l-72 -34c-9 18 -13 38 -13 58c0 69 51 141 136 141c81 0 118 -50 118 -121c0 -130 -126 -184 -213 -291c6 1 13 1 20 1h32c54 0 86 13 104 31l47 -58c-22 -26 -49 -38 -79 -38c-45 0 -92 19 -127 19
c-12 0 -40 -6 -40 -20l-57 30c88 153 231 233 231 338c0 30 -17 51 -42 51z" />
    <glyph glyph-name="three" unicode="3" horiz-adv-x="333" 
d="M142 152l14 72c16 -1 31 -3 45 -6c26 32 42 80 42 120c0 41 -16 73 -53 73c-30 0 -57 -28 -57 -71c0 -13 3 -27 8 -42l-70 -26c-8 18 -12 39 -12 60c0 66 42 134 134 134c90 0 130 -62 130 -131c0 -53 -23 -110 -65 -146c32 -28 47 -70 47 -113c0 -91 -65 -189 -176 -189
c-78 0 -118 57 -118 119c0 41 18 84 54 114l56 -56c-22 -19 -34 -46 -34 -70c0 -26 15 -47 48 -47c52 0 85 77 85 144c0 25 -5 50 -15 68c-15 -5 -31 -8 -49 -8c-5 0 -9 0 -14 1z" />
    <glyph glyph-name="four" unicode="4" horiz-adv-x="338" 
d="M238 456h75c-2 -16 -26 -117 -53 -271c17 2 34 7 49 16l25 -60c-28 -18 -55 -23 -85 -23l-11 -67h68l-7 -51h-205l7 51h58l12 76c-18 3 -36 5 -51 5c-22 0 -41 -4 -55 -20l-63 40c64 85 88 201 91 304h76c-1 -85 -16 -190 -65 -283c22 9 49 9 77 9c28 152 57 274 57 274z
" />
    <glyph glyph-name="five" unicode="5" horiz-adv-x="310" 
d="M99 175l-48 23c2 4 6 10 11 15c10 30 35 118 45 248c35 -6 67 -9 94 -9c66 0 106 13 106 13l7 -82s-38 -14 -101 -14c-18 0 -37 1 -57 4c-9 -46 -15 -88 -24 -124c9 2 18 3 28 3c86 0 126 -65 126 -146c0 -104 -59 -221 -176 -221c-81 0 -121 54 -121 114
c0 44 21 90 62 123l53 -59c-25 -27 -35 -53 -35 -73c0 -27 17 -45 40 -45c54 0 89 99 89 171c0 58 -28 84 -61 84c-24 0 -25 -9 -38 -25z" />
    <glyph glyph-name="six" unicode="6" horiz-adv-x="324" 
d="M295 552l31 -68c-97 -35 -168 -91 -205 -182c23 26 50 43 80 43c64 0 93 -64 93 -134c0 -99 -57 -216 -158 -216c-84 0 -120 76 -120 161c0 194 140 352 279 396zM172 291c-38 0 -76 -54 -79 -140c0 -56 14 -96 45 -96c42 0 69 89 69 158c0 43 -11 78 -35 78z" />
    <glyph glyph-name="seven" unicode="7" horiz-adv-x="281" 
d="M128 -90h-95c31 174 99 369 183 486c0 0 -27 -4 -66 -4c-17 0 -36 1 -56 3c0 -8 1 -15 1 -22c0 -17 -2 -32 -3 -46l-71 3c5 25 7 102 7 127c35 -6 92 -11 148 -11c42 0 82 3 112 10l2 -68c-81 -111 -136 -266 -162 -478z" />
    <glyph glyph-name="eight" unicode="8" horiz-adv-x="314" 
d="M221 563c72 0 103 -50 103 -108c0 -57 -30 -122 -82 -153c36 -24 54 -68 54 -117c0 -89 -60 -190 -172 -190c-82 0 -120 61 -120 131c0 69 38 147 108 179c-28 23 -42 62 -42 102c0 75 48 156 151 156zM174 273c-50 0 -83 -88 -83 -155c0 -41 12 -73 40 -73
c45 0 79 93 79 160c0 38 -11 68 -36 68zM215 513c-43 0 -66 -67 -66 -120c0 -35 10 -64 32 -64c38 0 66 73 66 127c0 32 -10 57 -32 57z" />
    <glyph glyph-name="nine" unicode="9" horiz-adv-x="313" 
d="M36 -34c73 37 125 112 156 191c-20 -26 -46 -43 -73 -43c-68 0 -100 66 -100 142c0 99 55 214 159 214c87 0 125 -74 125 -170c0 -145 -88 -340 -228 -401zM142 174c39 0 85 61 85 143c0 55 -15 93 -46 93c-43 0 -75 -95 -75 -164c0 -40 11 -72 36 -72z" />
    <glyph glyph-name="colon" unicode=":" horiz-adv-x="129" 
d="M61 -10c-32 0 -47 24 -47 51c0 36 26 79 70 79c33 0 47 -24 47 -52c0 -36 -26 -78 -70 -78zM120 345c-32 0 -47 24 -47 51c0 36 26 79 70 79c33 0 47 -24 47 -52c0 -36 -26 -78 -70 -78z" />
    <glyph glyph-name="semicolon" unicode=";" horiz-adv-x="138" 
d="M-14 -132l-37 33c31 48 38 108 38 155h74c0 -78 -29 -143 -75 -188zM120 345c-32 0 -47 24 -47 51c0 36 26 79 70 79c33 0 47 -24 47 -52c0 -36 -26 -78 -70 -78z" />
    <glyph glyph-name="less" unicode="&#x3c;" horiz-adv-x="255" 
d="M10 361l7 41s100 48 185 112l32 -53c-84 -53 -168 -84 -168 -84c67 -49 125 -105 125 -105l-48 -51s-60 81 -133 140z" />
    <glyph glyph-name="equal" unicode="=" horiz-adv-x="222" 
d="M22 224h179l-9 -52h-179zM40 328h179l-9 -52h-179z" />
    <glyph glyph-name="greater" unicode="&#x3e;" horiz-adv-x="241" 
d="M234 374l-7 -41s-100 -48 -185 -112l-32 53c84 53 168 84 168 84c-67 49 -125 105 -125 105l48 51s60 -81 133 -140z" />
    <glyph glyph-name="question" unicode="?" horiz-adv-x="272" 
d="M194 169l-70 10c28 202 178 269 178 408c0 54 -23 89 -71 89c-46 0 -81 -52 -81 -108c0 -33 12 -67 42 -93l-62 -66c-47 30 -70 83 -70 138c0 90 61 183 174 183c95 0 163 -54 163 -148c0 -175 -172 -211 -203 -413zM123 -10c-32 0 -47 24 -47 51c0 36 26 79 70 79
c33 0 47 -24 47 -52c0 -36 -26 -78 -70 -78z" />
    <glyph glyph-name="at" unicode="@" horiz-adv-x="573" 
d="M366 67c46 0 115 178 115 331c0 113 -38 213 -152 213c-169 0 -287 -274 -287 -494c0 -148 53 -272 181 -272c155 0 261 164 350 394c6 0 28 -8 28 -14c-86 -224 -171 -430 -388 -430c-157 0 -224 148 -224 321c0 247 136 545 344 545c147 0 201 -125 201 -267
c0 -185 -93 -399 -192 -399c-33 0 -54 29 -54 99v10c-23 -61 -58 -114 -116 -114c-49 0 -69 54 -69 127c0 141 77 349 172 349c37 0 58 -22 65 -67l11 56h71c-30 -133 -49 -241 -63 -340c-1 -10 -2 -18 -2 -24c0 -16 3 -24 9 -24zM280 394c-42 0 -93 -176 -93 -267
c0 -31 6 -52 21 -52c46 0 103 163 103 256c0 37 -9 63 -31 63z" />
    <glyph glyph-name="B" unicode="B" horiz-adv-x="895" 
d="M297 313l16 -86c-19 -7 -40 -10 -62 -10c-164 0 -252 132 -252 279c0 186 140 397 444 397c188 0 356 -91 356 -274c0 -91 -44 -182 -137 -231c127 -53 188 -168 188 -285c0 -166 -123 -335 -354 -335c-117 0 -187 22 -233 41c-50 -33 -103 -46 -154 -46l17 129
c12 3 25 4 39 4c34 0 69 -9 98 -24c71 70 112 241 146 484c26 187 48 313 75 393l93 -23c-25 -71 -48 -158 -68 -308c31 -1 60 -4 86 -9c77 38 113 119 113 200c0 156 -134 234 -271 234c-243 0 -356 -178 -356 -329c0 -110 61 -206 174 -206c15 0 29 2 42 5zM496 -182
c168 0 257 146 257 290c0 106 -49 212 -151 256c-30 -9 -64 -14 -101 -15c-34 -265 -105 -418 -188 -500c46 -17 102 -31 183 -31z" />
    <glyph glyph-name="C" unicode="C" horiz-adv-x="976" 
d="M388 672l-42 -78c-24 12 -49 17 -73 17c-90 0 -173 -76 -173 -194c0 -138 95 -247 282 -248c2 323 167 721 424 721c119 0 176 -90 176 -208c0 -210 -179 -510 -507 -557c0 -155 30 -281 118 -307c-4 24 -6 49 -6 74c0 148 70 295 194 295c85 0 127 -69 127 -152
c0 -108 -73 -238 -221 -266c24 -54 63 -95 119 -108l-28 -70c-89 19 -145 88 -172 174c-144 14 -214 166 -223 354c-238 0 -367 144 -367 305c0 171 126 274 259 274c38 0 76 -9 113 -26zM806 840c-171 0 -309 -367 -329 -662c279 53 416 343 416 521c0 83 -29 141 -87 141z
M773 137c-73 0 -116 -105 -116 -217c0 -34 4 -69 13 -102c106 26 164 147 164 232c0 49 -20 87 -61 87z" />
    <glyph glyph-name="D" unicode="D" horiz-adv-x="938" 
d="M76 -92c45 0 84 -16 129 -35c45 44 78 128 105 245c-189 25 -280 185 -280 353c0 281 212 427 423 427c238 0 448 -158 448 -508c0 -296 -169 -622 -443 -622c-120 0 -196 22 -247 42c-52 -34 -107 -47 -160 -47zM458 -182c218 0 335 284 335 548
c0 339 -152 482 -339 482c-184 0 -337 -157 -337 -381c0 -138 67 -274 203 -298c11 56 21 119 31 187c26 187 48 313 75 393l93 -23c-28 -79 -53 -187 -75 -370c-9 -70 -19 -131 -32 -186c100 22 159 112 159 199c0 37 -11 74 -34 105l74 66c35 -44 52 -97 52 -150
c0 -128 -97 -258 -265 -274c-36 -126 -84 -210 -137 -265c50 -18 112 -33 197 -33z" />
    <glyph glyph-name="E" unicode="E" horiz-adv-x="786" 
d="M591 437l-10 -82h-6c-43 0 -79 10 -109 27c-154 -49 -230 -200 -230 -334c0 -125 66 -235 195 -235c151 0 217 135 217 244c0 74 -30 136 -86 136c-49 0 -84 -51 -84 -112c0 -28 7 -58 23 -86l-92 -45c-18 35 -27 72 -27 108c0 103 69 195 185 195
c114 0 171 -88 171 -190c0 -138 -105 -300 -313 -300c-194 0 -289 131 -289 278c0 149 98 313 288 373c-13 13 -25 28 -34 44c-22 -2 -44 -3 -68 -3c-222 0 -309 106 -309 204c0 85 64 164 163 164c69 0 121 -25 161 -95l-69 -52c-19 41 -44 66 -92 66
c-52 0 -84 -40 -84 -87c0 -68 65 -150 230 -150c16 0 31 1 46 2c-10 31 -15 65 -15 100c0 137 79 279 222 279c98 0 150 -65 150 -145c0 -99 -80 -221 -249 -267c7 -16 16 -31 27 -43c24 4 51 6 78 6h10zM571 836c-80 0 -122 -112 -122 -223c0 -30 3 -59 9 -86
c124 44 175 147 175 222c0 49 -23 87 -62 87z" />
    <glyph glyph-name="F" unicode="F" horiz-adv-x="1086" 
d="M706 157l-77 -30c-11 21 -16 42 -16 64c0 82 78 158 210 167c22 193 56 312 92 386h-22c-147 0 -297 61 -504 61c-192 0 -289 -153 -289 -292c0 -116 67 -223 204 -223c138 0 187 100 187 214c0 18 -1 36 -3 55l90 16c2 -20 4 -40 4 -60c0 -146 -70 -275 -277 -275
c-202 0 -301 138 -301 286c0 170 132 354 388 354c216 0 388 -81 513 -81c17 0 31 1 44 2c35 47 68 61 90 66l35 -45c-17 -28 -40 -50 -78 -64c-21 -58 -48 -170 -72 -396c26 4 50 11 71 19c21 57 42 93 42 93l55 -28c-5 -36 -24 -71 -60 -97c-5 -47 -11 -121 -11 -202h-72
c0 63 12 123 26 174c-17 -5 -36 -10 -57 -13c-57 -442 -233 -545 -387 -545c-163 0 -231 94 -231 186c0 87 60 172 157 173l3 -91c-44 0 -72 -44 -72 -92c0 -58 41 -122 146 -122s226 64 282 484c-66 -9 -118 -36 -118 -98c0 -14 3 -29 8 -46z" />
    <glyph glyph-name="G" unicode="G" horiz-adv-x="914" 
d="M874 285l-42 -92c-5 -17 -14 -114 -42 -257c-34 -173 -94 -287 -241 -287c-98 0 -146 69 -146 138c0 67 46 134 134 136l12 -88c-41 -6 -62 -39 -62 -70c0 -34 23 -66 68 -66c119 0 128 146 170 361c-32 -39 -81 -66 -156 -66c-102 0 -165 75 -195 177
c-15 -1 -30 -2 -46 -2c-235 0 -338 138 -338 270c0 123 89 242 244 242c32 0 61 -8 87 -23l-33 -67c-23 13 -46 21 -76 21c-93 0 -156 -89 -156 -182c0 -103 76 -211 272 -211c12 0 24 0 35 1c-5 32 -8 67 -8 103c0 254 134 562 374 562c115 0 170 -85 170 -196
c0 -185 -152 -442 -435 -506c19 -85 62 -140 133 -140c146 0 150 177 197 277zM806 699c0 79 -28 136 -81 136c-168 0 -274 -296 -274 -525c0 -26 1 -52 4 -75c241 64 351 308 351 464z" />
    <glyph glyph-name="H" unicode="H" horiz-adv-x="957" 
d="M1249 714h-97c2 18 3 33 3 45c0 58 -21 67 -46 67c-158 0 -241 -691 -280 -1053h-115c36 198 65 373 94 523c-16 -1 -32 -2 -49 -2c-33 0 -66 2 -99 2l-7 -36c-48 -246 -138 -497 -425 -497c-201 0 -292 140 -292 285c0 158 107 323 298 323c120 0 185 -84 185 -185
c0 -57 -21 -120 -66 -176l-73 56c39 51 58 103 58 147c0 62 -38 108 -110 108c-128 0 -207 -141 -207 -274c0 -120 64 -234 215 -234c191 0 273 229 321 458l3 15c-27 -7 -53 -17 -77 -34l-29 71c35 18 75 25 119 26c23 117 47 241 79 358c-106 -39 -230 -48 -230 -141
c0 -49 43 -65 96 -65l-9 -84c-111 0 -171 63 -171 134c0 50 30 104 94 139c65 36 163 54 239 80c12 39 25 76 40 112l98 -16c-8 -47 -29 -80 -58 -105c-39 -147 -57 -277 -82 -415c38 -2 76 -6 111 -6c13 0 25 1 37 2c70 348 142 548 300 548c92 0 133 -60 133 -150
c0 -9 0 -17 -1 -26z" />
    <glyph glyph-name="I" unicode="I" horiz-adv-x="565" 
d="M522 882l109 -7c-10 -45 -31 -85 -59 -120c-68 -311 -98 -594 -151 -982h-98c53 351 87 610 147 887c-172 -124 -414 -200 -414 -370c0 -76 50 -125 115 -125c57 0 92 44 92 89c0 30 -17 62 -53 80l41 68c73 -32 107 -94 107 -156c0 -86 -66 -171 -186 -171
c-116 0 -209 85 -209 197c0 248 335 324 521 454c12 51 24 103 38 156z" />
    <glyph glyph-name="J" unicode="J" horiz-adv-x="527" 
d="M252 -245c112 150 117 568 202 885c-92 -83 -204 -161 -273 -245c-62 -75 -94 -143 -94 -219c0 -79 47 -125 102 -125s89 47 89 89c0 28 -14 53 -46 63l30 61c53 -16 79 -66 79 -119c0 -72 -50 -150 -149 -150c-107 0 -214 66 -214 205c0 80 42 164 93 218
c131 138 312 244 420 342c20 57 40 110 64 132l53 -33c-9 -47 -33 -91 -68 -133c-35 -250 -59 -775 -218 -997c-41 -58 -99 -86 -173 -86s-114 48 -114 113c0 67 52 134 148 135l2 -79c-61 -8 -85 -43 -85 -73c0 -29 21 -46 48 -46c43 0 74 23 104 62z" />
    <glyph glyph-name="K" unicode="K" horiz-adv-x="915" 
d="M280 -187c182 0 273 208 323 426c-10 0 -19 0 -29 1l15 84c10 -2 20 -5 30 -8c24 128 42 267 73 397c-111 -44 -245 -51 -245 -147c0 -49 43 -65 96 -65l-9 -84c-111 0 -171 63 -171 134c0 50 30 103 94 139c68 38 174 56 251 85c11 37 23 73 37 107l89 -16
c-8 -46 -29 -79 -57 -104c-40 -163 -49 -305 -77 -461c193 101 176 624 432 624c72 0 105 -43 105 -96c0 -4 -1 -9 -1 -13h-73v5c0 26 -14 52 -42 52c-152 0 -129 -510 -403 -614c190 -175 132 -617 298 -617c63 0 92 35 115 93l77 -28c-52 -99 -115 -126 -197 -126
c-259 0 -228 491 -325 653c-51 -237 -137 -471 -414 -471c-205 0 -297 140 -297 286c0 160 110 328 303 328c125 0 192 -93 192 -204c0 -53 -16 -110 -48 -163l-80 45c28 47 42 95 42 137c0 73 -40 127 -113 127c-128 0 -210 -142 -210 -275c0 -119 65 -231 219 -231z" />
    <glyph glyph-name="L" unicode="L" horiz-adv-x="838" 
d="M375 174c45 0 87 6 125 17c9 49 16 104 23 165c49 449 140 534 263 534c97 0 146 -88 146 -205c0 -178 -113 -421 -341 -518c-21 -98 -49 -173 -81 -231c98 -44 179 -98 283 -98c67 0 105 55 115 99l81 -21c-26 -92 -95 -153 -194 -153c-118 0 -214 70 -318 122
c-70 -93 -154 -122 -236 -122c-90 0 -136 53 -136 109c0 59 52 120 158 120c66 0 123 -11 173 -28c20 45 37 101 52 171c-35 -7 -73 -11 -113 -11c-265 0 -375 141 -375 280c0 135 104 269 269 269c47 0 79 -9 116 -30l-39 -80c-23 14 -48 21 -78 21
c-117 0 -188 -93 -188 -190c0 -107 87 -220 295 -220zM785 840c-55 0 -118 -54 -164 -484c-4 -41 -10 -79 -16 -115c168 109 242 328 242 469c0 76 -22 130 -62 130zM254 -189c59 0 112 29 157 104c-43 17 -89 28 -139 28c-62 0 -94 -38 -94 -73c0 -30 25 -59 76 -59z" />
    <glyph glyph-name="M" unicode="M" horiz-adv-x="1133" 
d="M1053 882h93c0 -116 -41 -252 -96 -392c-10 -98 -16 -203 -16 -306c0 -284 45 -540 173 -540c51 0 86 37 108 93l85 -30c-37 -92 -100 -141 -186 -141c-190 0 -261 211 -261 521c0 61 3 127 8 196c-40 -89 -80 -177 -114 -260v-38c0 -65 -4 -131 -14 -202l-98 8
c0 57 14 120 36 186c-5 111 -17 216 -28 318c-86 -333 -258 -522 -473 -522c-205 0 -297 140 -297 286c0 160 110 328 303 328c125 0 192 -93 192 -204c0 -53 -16 -110 -48 -163l-84 46c29 48 43 98 43 140c0 71 -38 123 -110 123c-124 0 -206 -141 -206 -272
c0 -116 64 -224 217 -224c191 0 372 237 448 590c-11 100 -19 198 -19 297c0 23 1 46 2 70h91c-1 -90 -7 -175 -16 -254c22 -146 42 -269 53 -389c43 94 93 190 137 283c18 144 44 297 77 452z" />
    <glyph glyph-name="N" unicode="N" horiz-adv-x="996" 
d="M260 -167c218 0 368 287 397 591c-38 118 -66 242 -66 368l85 16c25 -82 37 -186 37 -298c39 -95 87 -201 128 -312c65 398 236 699 424 699c69 0 114 -21 147 -57l-52 -82c-20 30 -57 45 -104 45c-152 0 -326 -271 -377 -720c24 -89 31 -181 31 -271v-39h-86
c-6 46 -9 94 -9 142c0 30 1 59 3 88c-33 92 -79 196 -121 308c-44 -278 -181 -538 -442 -538c-194 0 -281 136 -281 280c0 162 110 334 302 334c125 0 192 -93 192 -204c0 -53 -16 -110 -48 -163l-84 46c29 48 43 98 43 140c0 71 -38 123 -110 123
c-124 0 -206 -147 -206 -281c0 -112 58 -215 197 -215z" />
    <glyph glyph-name="O" unicode="O" horiz-adv-x="1133" 
d="M915 823l18 25c111 -55 165 -213 165 -392c0 -313 -163 -688 -466 -688c-183 0 -266 155 -277 348c-248 6 -362 156 -362 301c0 136 101 267 284 267c38 0 61 -7 91 -25l-53 -87c-22 15 -48 22 -78 22c-106 0 -165 -84 -165 -177c0 -111 86 -235 282 -241
c6 319 187 709 436 709c57 0 98 -23 125 -62zM450 121c5 -169 60 -303 187 -303c227 0 371 374 371 676c0 127 -25 242 -81 310c17 -33 25 -75 25 -121c0 -211 -178 -518 -502 -562zM786 835c-183 0 -324 -359 -336 -651c260 55 413 363 413 535c0 69 -25 116 -77 116z" />
    <glyph glyph-name="P" unicode="P" horiz-adv-x="824" 
d="M516 752l91 -31c-67 -118 -83 -309 -107 -490c136 18 227 172 227 321c0 147 -89 291 -311 291c-229 0 -335 -174 -335 -323c0 -113 61 -212 174 -212c15 0 29 2 42 5l16 -86c-19 -7 -40 -10 -62 -10c-164 0 -252 134 -252 283c0 185 136 393 429 393
c274 0 390 -169 390 -342c0 -180 -125 -364 -326 -372c-32 -220 -85 -412 -268 -412c-116 0 -180 67 -180 169c0 81 56 161 157 165v-82c-52 -6 -85 -56 -85 -102c0 -65 49 -101 105 -101c257 0 129 631 295 936z" />
    <glyph glyph-name="Q" unicode="Q" horiz-adv-x="738" 
d="M147 -248l14 92c36 -1 70 -3 102 -7c212 146 366 490 366 733c0 152 -61 265 -204 265c-217 0 -330 -275 -330 -490c0 -138 46 -251 142 -251c95 0 150 94 150 196c0 71 -26 145 -82 196l78 77c66 -60 96 -145 96 -229c0 -147 -91 -290 -241 -290
c-166 0 -247 151 -247 325c0 237 149 516 434 516c218 0 311 -145 311 -334c0 -245 -158 -564 -400 -726c179 -37 292 -111 446 -111c82 0 122 42 130 115l116 -15c-2 -105 -73 -178 -225 -178s-345 120 -530 152c-34 -19 -68 -37 -109 -37c-6 0 -12 0 -17 1z" />
    <glyph glyph-name="R" unicode="R" horiz-adv-x="795" 
d="M516 752l91 -31c-67 -118 -83 -309 -107 -490c136 18 227 172 227 321c0 147 -89 291 -311 291c-229 0 -335 -174 -335 -323c0 -113 61 -212 174 -212c15 0 29 2 42 5l16 -77c-23 -5 -45 -7 -65 -7c-153 0 -248 120 -248 271c0 185 135 393 428 393
c274 0 390 -169 390 -342c0 -164 -109 -337 -277 -366c153 -112 139 -543 322 -543c63 0 92 35 115 93l77 -28c-52 -99 -115 -126 -197 -126c-256 0 -277 437 -370 566c-33 -206 -90 -380 -264 -380c-116 0 -180 67 -180 169c0 81 56 161 157 165v-82
c-52 -6 -85 -56 -85 -102c0 -65 49 -101 105 -101c257 0 129 631 295 936z" />
    <glyph glyph-name="S" unicode="S" horiz-adv-x="1059" 
d="M5 111l20 79c55 -11 110 -17 163 -19v13c0 199 113 394 331 394c166 0 243 -123 254 -264c43 27 83 57 118 89c-2 38 -3 73 -3 105c0 279 63 378 152 378c64 0 89 -53 89 -107c0 -108 -50 -229 -140 -339l3 -69c0 -13 1 -26 1 -39c0 -297 -145 -564 -432 -564
c-215 0 -334 153 -365 326c-62 0 -125 6 -191 17zM612 -62l-50 79c75 44 122 117 141 196c-120 -63 -261 -106 -419 -117c28 -147 124 -276 298 -276c196 0 313 203 313 485c0 12 -1 25 -1 38c-37 -32 -77 -63 -121 -91c-7 -130 -66 -261 -161 -314zM713 281v19
c0 122 -66 234 -194 234c-158 0 -244 -170 -244 -344c0 -6 1 -13 1 -20c164 5 313 46 437 111zM1078 780c0 27 -12 50 -36 50c-50 0 -63 -53 -63 -153c0 -46 2 -102 6 -168c59 84 93 177 93 271z" />
    <glyph glyph-name="T" unicode="T" horiz-adv-x="994" 
d="M1039 867l35 -45c-17 -28 -40 -50 -78 -64c-21 -59 -48 -172 -72 -402c-51 -483 -233 -593 -393 -593c-163 0 -231 94 -231 186c0 87 60 172 157 173l3 -91c-44 0 -72 -44 -72 -92c0 -58 41 -122 146 -122c110 0 237 69 289 539c21 194 56 314 92 388h-22
c-147 0 -297 61 -504 61c-192 0 -289 -153 -289 -292c0 -116 67 -223 204 -223c138 0 187 100 187 214c0 18 -1 36 -3 55l90 16c2 -20 4 -40 4 -60c0 -146 -70 -275 -277 -275c-202 0 -301 138 -301 286c0 170 132 354 388 354c216 0 388 -81 513 -81c17 0 31 1 44 2
c35 47 68 61 90 66z" />
    <glyph glyph-name="U" unicode="U" horiz-adv-x="1102" 
d="M1075 -35l84 -2c-12 -135 -73 -196 -160 -196c-101 0 -137 68 -137 218c0 13 0 26 1 40c-49 -135 -119 -257 -208 -257c-83 0 -123 56 -123 158c0 168 138 462 138 627c0 175 -93 274 -237 274c-182 0 -320 -149 -320 -346c0 -162 95 -237 189 -237c104 0 180 76 202 214
l93 -22c-32 -170 -146 -252 -292 -252c-167 0 -287 119 -287 304c0 234 180 395 421 395c191 0 318 -109 318 -330c0 -184 -130 -446 -130 -629c0 -31 11 -77 52 -77c99 0 177 250 207 396c35 223 101 475 148 643l87 -11c-24 -157 -80 -306 -80 -306
c-40 -135 -94 -462 -94 -609c0 -72 17 -131 61 -131c41 0 65 55 67 136z" />
    <glyph glyph-name="V" unicode="V" horiz-adv-x="1027" 
d="M789 -134c115 588 351 1030 602 1030c69 0 114 -21 147 -57l-61 -71c-20 30 -57 45 -104 45c-223 0 -436 -450 -572 -1065l-104 13c0 76 9 201 9 336c0 293 -43 634 -314 634c-182 0 -300 -149 -300 -346c0 -162 95 -237 189 -237c104 0 180 76 202 214l93 -22
c-32 -170 -146 -252 -292 -252c-167 0 -287 119 -287 304c0 234 160 395 401 395c334 0 407 -331 407 -642c0 -99 -7 -196 -16 -279z" />
    <glyph glyph-name="W" unicode="W" horiz-adv-x="1305" 
d="M1035 804l75 -17c-37 -260 -47 -480 -47 -640c0 -178 12 -281 12 -281c115 588 271 1030 522 1030c69 0 114 -21 147 -57l-61 -71c-20 30 -57 45 -104 45c-223 0 -356 -450 -492 -1065l-100 13c-15 67 -21 160 -21 259c0 274 43 601 43 601c-73 -187 -150 -540 -222 -866
l-79 18c-29 103 -33 204 -33 306c0 45 1 90 1 136c0 238 -36 516 -294 516c-182 0 -300 -149 -300 -346c0 -162 95 -237 189 -237c104 0 180 76 202 214l93 -22c-32 -170 -146 -252 -292 -252c-167 0 -287 119 -287 304c0 234 160 395 401 395c186 0 301 -99 348 -247
c33 -105 39 -230 39 -345c0 -60 -1 -118 -1 -169c0 -54 1 -99 9 -131c55 283 153 727 252 909z" />
    <glyph glyph-name="X" unicode="X" horiz-adv-x="966" 
d="M486 825c-74 0 -110 -51 -110 -103s36 -106 109 -111l-23 -103c-118 0 -181 92 -181 184c0 104 72 193 224 193c174 0 244 -184 286 -409c96 230 199 429 388 429c88 0 145 -57 165 -110l-72 -43c-22 59 -64 77 -112 77c-163 0 -258 -205 -354 -444
c52 -346 64 -743 273 -743c66 0 92 35 115 93l90 -33c-52 -99 -128 -121 -210 -121c-273 0 -315 295 -355 599c-93 -214 -207 -407 -430 -407c-195 0 -283 137 -283 281c0 162 110 333 302 333c125 0 192 -93 192 -204c0 -53 -16 -110 -48 -163l-84 46c29 48 43 98 43 140
c0 71 -38 123 -110 123c-124 0 -206 -144 -206 -276c0 -109 58 -210 197 -210c210 0 319 198 415 428l-3 27c-49 350 -92 527 -218 527z" />
    <glyph glyph-name="Y" unicode="Y" horiz-adv-x="1040" 
d="M1008 883l81 -15c-14 -148 -64 -264 -64 -264c-56 -375 -86 -955 -393 -955c-74 0 -114 48 -114 113c0 67 52 134 148 135l2 -79c-61 -8 -85 -43 -85 -73c0 -29 21 -46 48 -46c121 0 186 200 231 434c-41 -84 -96 -143 -159 -143c-83 0 -123 56 -123 158
c0 117 58 269 58 405c0 175 -93 274 -237 274c-182 0 -320 -149 -320 -346c0 -162 95 -237 189 -237c104 0 180 76 202 214l93 -22c-32 -170 -146 -252 -292 -252c-167 0 -287 119 -287 304c0 234 180 395 421 395c191 0 318 -109 318 -330c0 -141 -50 -298 -50 -407
c0 -31 11 -77 52 -77c81 0 138 132 174 305c32 227 57 441 107 509z" />
    <glyph glyph-name="Z" unicode="Z" horiz-adv-x="643" 
d="M372 835c-171 0 -263 -190 -263 -340c0 -100 40 -183 125 -183c71 0 121 71 121 141c0 50 -25 100 -85 124l59 84c64 -25 99 -103 99 -184c0 -106 -60 -215 -193 -215c-147 0 -219 120 -219 254c0 172 119 369 356 369c206 0 309 -134 309 -298s-103 -358 -310 -480
c77 -41 110 -115 110 -192c0 -129 -94 -266 -230 -266c-87 0 -131 61 -131 133c0 68 39 146 115 193l46 -79c-68 -46 -94 -94 -94 -132s28 -65 64 -65c92 0 145 109 145 214c0 69 -23 136 -73 168c-32 -16 -65 -33 -104 -33c-6 0 -12 0 -17 1l14 92h4c34 0 65 -4 92 -11
c179 106 269 300 269 457c0 138 -69 248 -209 248z" />
    <glyph glyph-name="bracketleft" unicode="[" horiz-adv-x="183" 
d="M126 779c28 -7 57 -11 85 -11c32 0 63 5 92 16l11 -58c-25 -15 -54 -20 -82 -20c-21 0 -42 3 -61 7c-42 -347 -124 -738 -124 -738c14 2 28 4 42 4c30 0 60 -6 89 -17l-20 -63c-28 11 -57 15 -87 15c-32 0 -65 -5 -94 -11c87 398 149 876 149 876z" />
    <glyph glyph-name="backslash" unicode="\" horiz-adv-x="159" 
d="M129 3l-59 -8c-30 234 -36 463 -36 600c0 79 2 128 2 128l62 -3s-2 -47 -2 -125c0 -132 5 -354 33 -592z" />
    <glyph glyph-name="bracketright" unicode="]" horiz-adv-x="198" 
d="M46 -96c-28 7 -57 11 -85 11c-32 0 -63 -5 -92 -16l-11 58c25 15 53 20 81 20c22 0 43 -3 62 -7c42 347 124 738 124 738c-14 -3 -28 -4 -42 -4c-31 0 -60 6 -89 17l20 63c28 -11 57 -16 86 -16c33 0 65 6 95 12c-87 -398 -149 -876 -149 -876z" />
    <glyph glyph-name="asciicircum" unicode="^" horiz-adv-x="231" 
d="M122 607l41 -5c41 -63 65 -124 65 -124l-61 -29s-6 39 -37 104c0 0 -34 -54 -84 -93l-40 46c86 62 116 101 116 101z" />
    <glyph glyph-name="underscore" unicode="_" horiz-adv-x="169" 
d="M0 -24h179l-9 -52h-179z" />
    <glyph glyph-name="grave" unicode="`" horiz-adv-x="174" 
d="M16 602l62 43c29 -62 67 -111 84 -130l-36 -32s-61 39 -110 119z" />
    <glyph glyph-name="a" unicode="a" 
d="M221 399l11 56h71c-30 -133 -49 -241 -63 -340c-2 -11 -2 -19 -2 -26c0 -15 3 -22 8 -22c11 0 53 48 101 172c6 0 28 -8 28 -14c-61 -160 -110 -230 -156 -230c-32 0 -50 29 -50 98v11c-23 -61 -58 -114 -116 -114c-49 0 -69 54 -69 127c0 141 77 349 172 349
c37 0 58 -22 65 -67zM161 394c-42 0 -93 -176 -93 -267c0 -31 6 -52 21 -52c46 0 103 163 103 256c0 37 -9 63 -31 63z" />
    <glyph glyph-name="b" unicode="b" horiz-adv-x="318" 
d="M105 461l-3 -17l-4 -19c21 21 47 34 75 34c72 0 95 -71 95 -174c0 -45 -11 -94 -27 -138c30 13 57 40 77 92c6 0 28 -8 28 -14c-24 -64 -74 -108 -125 -123c-33 -60 -78 -107 -125 -107c-74 0 -100 67 -100 169c0 62 10 137 25 218c47 258 75 416 170 416
c41 0 59 -23 59 -59c0 -65 -57 -173 -145 -278zM189 305c0 55 -12 89 -38 89c-45 0 -73 -61 -73 -124c0 -58 25 -119 82 -131c18 48 29 111 29 166zM204 711c0 3 1 6 1 8c0 9 -4 14 -9 14c-7 0 -30 -10 -75 -199c32 47 70 112 83 177zM98 69c17 0 32 12 45 33
c-37 9 -60 33 -74 64c0 -58 5 -97 29 -97z" />
    <glyph glyph-name="c" unicode="c" horiz-adv-x="291" 
d="M222 227l-64 34c20 34 33 78 33 108c0 21 -6 35 -20 35c-52 0 -97 -119 -97 -214c0 -63 20 -115 71 -115c48 0 102 54 146 164c6 0 28 -8 28 -14c-30 -80 -107 -235 -213 -235c-78 0 -112 80 -112 175c0 136 70 301 181 301c57 0 80 -46 80 -104c0 -43 -13 -92 -33 -135z
" />
    <glyph glyph-name="d" unicode="d" horiz-adv-x="355" 
d="M221 399l70 388h79c-4 -85 -40 -290 -83 -456c-19 -107 -27 -170 -27 -203c0 -21 3 -29 10 -29c23 0 53 57 85 140c6 0 28 -8 28 -14c-61 -160 -118 -230 -164 -230c-32 0 -50 29 -50 98v11c-23 -61 -58 -114 -115 -114c-49 0 -69 55 -69 127c0 141 76 349 171 349
c37 0 58 -22 65 -67zM161 394c-43 0 -92 -177 -92 -267c0 -31 6 -52 20 -52c46 0 103 163 103 256c0 37 -9 63 -31 63z" />
    <glyph glyph-name="e" unicode="e" horiz-adv-x="286" 
d="M140 75c59 0 108 62 146 164c6 0 28 -8 28 -14c-50 -131 -100 -235 -198 -235c-87 0 -123 80 -123 174c0 136 75 302 187 302c50 0 75 -36 75 -82c0 -71 -60 -167 -178 -186v-15c0 -60 17 -108 63 -108zM172 404c-41 0 -80 -85 -92 -168c75 37 108 106 108 143
c0 15 -6 25 -16 25z" />
    <glyph glyph-name="f" unicode="f" horiz-adv-x="213" 
d="M52 -232c-46 0 -93 21 -93 137c0 217 103 708 157 831c19 42 51 62 81 62c35 0 67 -28 67 -79c0 -208 -132 -410 -187 -486c-10 -51 -18 -101 -25 -148c80 11 128 66 161 154c6 0 28 -8 28 -14c-34 -88 -78 -156 -156 -181c40 -42 57 -95 57 -143
c0 -72 -37 -133 -90 -133zM219 711c0 14 -4 22 -10 22c-20 0 -70 -194 -112 -398c49 91 121 255 122 376zM59 -182c21 0 34 30 34 68c0 42 -15 93 -50 128c-5 -46 -8 -86 -8 -119c0 -48 7 -77 24 -77z" />
    <glyph glyph-name="g" unicode="g" horiz-adv-x="335" 
d="M335 239c9 0 28 -7 28 -13v-1c-38 -98 -93 -169 -147 -225l-22 -129c-17 -101 -55 -175 -119 -175c-45 0 -77 26 -77 79c0 69 64 126 138 197c6 30 10 62 16 93c-25 -45 -58 -75 -99 -75c-49 0 -69 54 -69 127c0 141 77 349 172 349c31 0 48 -18 55 -53l9 43h82
c-12 -44 -45 -230 -74 -389c42 48 81 104 107 172zM161 394c-42 0 -93 -176 -93 -267c0 -31 6 -52 21 -52c46 0 103 163 103 256c0 37 -9 63 -31 63zM54 -224c0 -19 10 -27 20 -27c17 0 25 20 31 51l20 107c-42 -44 -71 -83 -71 -131z" />
    <glyph glyph-name="h" unicode="h" horiz-adv-x="338" 
d="M42 0h-81c-1 9 -1 18 -1 27c0 79 31 161 31 161c35 212 79 455 120 548c19 43 54 62 84 62c50 0 69 -25 69 -63c0 -81 -86 -218 -148 -294c-3 -18 -7 -36 -11 -55c33 50 74 81 117 81c35 0 58 -23 58 -71c0 -93 -65 -212 -65 -294c0 -29 11 -34 20 -34
c26 0 59 56 103 171c6 0 28 -8 28 -14c-44 -114 -89 -230 -171 -230c-35 0 -68 28 -68 89c0 108 65 219 65 291c0 11 -5 20 -16 20c-43 0 -97 -97 -134 -395zM209 719c0 9 -4 14 -9 14c-16 0 -29 -42 -65 -208c28 54 74 143 74 194z" />
    <glyph glyph-name="i" unicode="i" horiz-adv-x="191" 
d="M47 456h85c-35 -156 -64 -272 -64 -354c0 -29 11 -34 20 -34c26 0 59 56 103 171c5 0 28 -7 28 -13v-1c-44 -114 -79 -230 -161 -230c-54 0 -72 50 -72 119c0 111 44 270 61 342zM106 514c-32 0 -47 24 -47 51c0 36 26 79 70 79c33 0 47 -24 47 -52
c0 -36 -26 -78 -70 -78z" />
    <glyph glyph-name="j" unicode="j" horiz-adv-x="200" 
d="M200 239c9 0 28 -7 28 -13v-1c-38 -98 -93 -169 -147 -225l-22 -129c-17 -101 -55 -175 -119 -175c-45 0 -77 26 -77 79c0 69 64 126 138 197c19 107 38 224 54 322l-27 -69s-28 5 -28 13v1c22 57 58 142 85 217h82c-12 -44 -45 -230 -74 -389c42 48 81 104 107 172z
M-81 -224c0 -19 10 -27 20 -27c30 0 38 88 51 158c-41 -44 -71 -83 -71 -131zM136 500c-32 0 -47 24 -47 51c0 36 26 79 70 79c33 0 47 -24 47 -52c0 -36 -26 -78 -70 -78z" />
    <glyph glyph-name="k" unicode="k" horiz-adv-x="311" 
d="M42 0h-81c-1 9 -1 18 -1 27c0 79 31 161 31 161c35 212 79 455 120 548c19 43 54 62 84 62c50 0 69 -25 69 -63c0 -81 -86 -218 -148 -294l-16 -83c32 67 72 108 116 108c41 0 59 -28 59 -68c0 -66 -51 -163 -128 -206c31 -46 25 -117 53 -117c24 0 67 49 111 164
c6 0 28 -8 28 -14c-44 -114 -91 -230 -161 -230c-81 0 -80 115 -96 176h-15c-9 -57 -18 -115 -25 -171zM187 394h-5c-24 0 -57 -34 -100 -134l-5 -31c12 0 23 -3 32 -6c44 36 90 113 90 151c0 10 -3 18 -12 20zM208 711c0 3 1 6 1 8c0 9 -4 14 -9 14c-16 0 -29 -42 -65 -208
c29 54 61 127 73 186z" />
    <glyph glyph-name="l" unicode="l" horiz-adv-x="226" 
d="M113 66c32 0 70 62 113 173c5 0 24 -8 24 -13v-1c-59 -160 -105 -235 -170 -235c-60 0 -84 59 -84 163c0 73 12 169 32 283c45 251 108 364 166 364c52 0 67 -42 67 -93c0 -59 -20 -130 -30 -161c-41 -131 -108 -229 -148 -278c-5 -43 -8 -82 -8 -114
c0 -67 15 -88 38 -88zM217 711c0 14 -5 22 -10 22c-27 0 -86 -216 -115 -402c50 91 124 258 125 380z" />
    <glyph glyph-name="m" unicode="m" horiz-adv-x="511" 
d="M37 0h-87s9 91 37 166c20 113 37 214 49 290h86l-13 -75c30 51 67 86 108 86c39 0 55 -31 55 -69c0 -7 -1 -16 -2 -25c35 58 78 94 125 94c35 0 58 -23 58 -71c0 -93 -65 -212 -65 -294c0 -29 11 -34 20 -34c26 0 59 56 103 171c6 0 28 -8 28 -14
c-44 -114 -89 -230 -171 -230c-35 0 -68 28 -68 89c0 108 65 219 65 291c0 11 -5 20 -16 20c-25 0 -70 -48 -104 -195c-15 -81 -32 -163 -41 -200h-91c24 110 70 324 70 367c0 16 -5 21 -13 21c-32 0 -74 -78 -101 -221z" />
    <glyph glyph-name="n" unicode="n" horiz-adv-x="341" 
d="M37 0h-87s9 91 37 166c20 113 37 214 49 290h86l-11 -67c32 48 72 78 114 78c35 0 58 -23 58 -71c0 -93 -65 -212 -65 -294c0 -29 11 -34 20 -34c26 0 59 56 103 171c6 0 28 -8 28 -14c-44 -114 -89 -230 -171 -230c-35 0 -68 28 -68 89c0 108 65 219 65 291
c0 11 -5 20 -16 20c-25 0 -69 -47 -102 -188z" />
    <glyph glyph-name="o" unicode="o" horiz-adv-x="328" 
d="M328 239c6 0 28 -8 28 -14c-23 -60 -68 -102 -116 -119c-34 -73 -85 -116 -149 -116c-69 0 -99 72 -99 163c0 56 11 119 31 178l36 -9c11 77 53 144 124 144c67 0 102 -77 102 -167c0 -49 -12 -100 -25 -144c26 12 50 37 68 84zM161 401c-29 -6 -52 -71 -52 -135
c0 -54 16 -106 61 -119c22 53 37 123 37 176c0 45 -11 79 -39 79c-2 0 -5 -1 -7 -1zM112 67c13 4 25 18 37 38c-42 16 -69 56 -83 104c-2 -15 -3 -30 -3 -43c0 -59 16 -100 41 -100c3 0 5 0 8 1z" />
    <glyph glyph-name="p" unicode="p" horiz-adv-x="341" 
d="M30 456h75l-8 -54c26 40 56 64 88 64c56 0 80 -59 80 -136c0 -97 -38 -223 -95 -296c87 20 134 107 171 205c6 0 28 -8 28 -14c-46 -121 -107 -235 -230 -235c-42 0 -81 17 -101 57l-58 -346h-67v10c0 77 21 177 41 247c31 188 70 430 76 498zM70 241l-14 -85
c-1 -6 -1 -12 -1 -19c0 -32 8 -62 35 -62c46 0 88 164 88 256c0 37 -6 63 -22 63c-30 0 -61 -54 -86 -153zM-79 -247c0 3 1 7 2 12c-1 -5 -2 -8 -2 -12zM-83 -274c0 2 1 7 2 14c-1 -6 -2 -12 -2 -14z" />
    <glyph glyph-name="q" unicode="q" horiz-adv-x="361" 
d="M226 456h85c-28 -119 -61 -271 -85 -404c67 38 97 90 135 187c6 0 28 -8 28 -14c-37 -96 -76 -165 -163 -210c55 -42 77 -106 77 -166c0 -80 -40 -152 -96 -152c-46 0 -86 21 -86 137c0 52 10 132 24 220c-24 -39 -54 -64 -92 -64c-49 0 -69 54 -69 127
c0 141 77 349 172 349c34 0 52 -23 57 -67c4 20 9 39 13 57zM161 394c-42 0 -93 -176 -93 -267c0 -31 6 -52 21 -52c46 0 103 163 103 256c0 37 -9 63 -31 63zM214 -253c23 0 40 44 40 96c0 45 -12 95 -42 129c-11 -67 -18 -124 -18 -165c0 -38 6 -60 20 -60z" />
    <glyph glyph-name="r" unicode="r" horiz-adv-x="240" 
d="M123 92c0 -15 6 -21 16 -21c22 0 57 53 101 168c5 0 28 -7 28 -13v-1c-44 -114 -79 -230 -161 -230c-47 0 -65 30 -65 75c0 65 46 136 46 187c0 30 -9 53 -20 74l-40 -106s-28 5 -28 13v1c18 48 31 98 41 146c-10 22 -18 49 -18 84c0 32 7 72 23 124l75 -22
c-4 -66 -12 -114 -28 -166c33 -34 76 -74 76 -131c0 -64 -46 -147 -46 -182z" />
    <glyph glyph-name="t" unicode="t" horiz-adv-x="182" 
d="M84 692h71c-5 -82 -15 -158 -32 -238c16 0 30 1 39 2l-9 -47c-4 -1 -23 -1 -41 -1c-9 -38 -19 -77 -31 -118c-10 -69 -15 -121 -15 -158c0 -42 7 -64 20 -64c27 0 66 94 96 171c6 0 28 -9 28 -14c-59 -160 -90 -230 -155 -230c-44 0 -62 54 -62 139c0 73 11 172 34 274
c-23 0 -40 0 -44 1l7 47c7 0 24 -1 45 -1c13 69 26 136 49 237z" />
    <glyph glyph-name="u" unicode="u" horiz-adv-x="349" 
d="M46 456h85s-20 -83 -45 -211c-11 -56 -20 -103 -20 -143c0 -29 11 -34 20 -34c16 0 46 59 67 146l6 33c15 85 34 159 46 209h85c-35 -156 -64 -272 -64 -354c0 -29 11 -34 20 -34c26 0 59 56 103 171c5 0 28 -7 28 -13v-1c-44 -114 -79 -230 -161 -230
c-44 0 -64 33 -70 82c-22 -49 -51 -82 -90 -82c-53 0 -71 48 -71 115c0 41 7 89 16 137c25 130 45 209 45 209z" />
    <glyph glyph-name="v" unicode="v" horiz-adv-x="326" 
d="M90 94c19 28 37 59 52 90c-13 34 -20 76 -20 120c0 107 39 220 105 220c40 0 69 -32 69 -88c0 -89 -38 -196 -90 -288c8 -4 17 -7 28 -7c45 0 71 41 92 98c6 0 28 -8 28 -14c-24 -67 -61 -114 -126 -114c-14 0 -27 3 -38 10c-29 -49 -62 -91 -94 -121h-54
c-6 83 -12 158 -15 225c-6 1 -27 7 -27 14l23 60c-1 19 -1 38 -1 55c0 38 1 72 5 102h71c1 -4 2 -10 2 -17c0 -27 -8 -54 -28 -106c3 -56 8 -137 18 -239zM226 463c0 13 -4 17 -11 17c-31 0 -57 -96 -57 -186c0 -22 2 -43 5 -63c43 101 63 199 63 232z" />
    <glyph glyph-name="w" unicode="w" horiz-adv-x="500" 
d="M38 456h85c-29 -152 -56 -290 -56 -353c0 -22 3 -35 12 -35c21 0 58 58 84 178c8 66 22 140 36 210h84c-26 -137 -49 -263 -49 -333c0 -35 6 -56 21 -56c19 0 46 40 72 98c-16 34 -24 79 -24 127c0 111 40 232 98 232c40 0 58 -32 58 -88c0 -77 -29 -196 -74 -290
c7 -3 14 -5 23 -5c45 0 71 41 92 98c6 0 28 -8 28 -14c-24 -67 -61 -114 -126 -114c-12 0 -22 2 -31 6c-38 -70 -85 -122 -135 -122c-53 0 -75 47 -79 119c-27 -70 -61 -119 -98 -119c-52 0 -70 50 -70 126c0 91 26 218 49 335zM385 480c-21 0 -47 -103 -47 -196
c0 -26 2 -52 7 -74c30 81 55 180 55 250c0 14 -6 20 -15 20z" />
    <glyph glyph-name="x" unicode="x" horiz-adv-x="389" 
d="M0 238v1c55 141 95 225 147 225c62 0 75 -78 79 -166c23 72 58 164 120 164c14 0 30 -5 46 -17l-30 -76c-11 5 -22 8 -31 8c-47 0 -73 -55 -104 -161c1 -82 5 -152 43 -152c37 0 74 56 119 175c6 0 28 -8 28 -14c-64 -168 -124 -232 -182 -232c-51 0 -72 52 -80 119
c-30 -68 -64 -122 -107 -122c-39 0 -57 24 -57 64c0 26 8 57 28 94l55 -23c-9 -18 -16 -39 -16 -53c0 -11 4 -18 13 -18c25 0 51 53 79 127c-4 102 5 208 -28 208c-21 0 -43 -30 -94 -164c0 0 -28 5 -28 13z" />
    <glyph glyph-name="y" unicode="y" horiz-adv-x="312" 
d="M312 239c9 0 28 -7 28 -13v-1c-38 -98 -93 -169 -147 -225l-22 -129c-17 -101 -55 -175 -119 -175c-45 0 -77 26 -77 79c0 69 64 126 138 197l12 67c-19 -27 -42 -44 -69 -44c-53 0 -71 48 -71 115c0 41 7 89 16 137c25 130 45 209 45 209h85s-20 -83 -45 -211
c-11 -56 -20 -103 -20 -143c0 -29 11 -34 20 -34c50 0 91 295 111 388h82c-12 -44 -45 -230 -74 -389c42 48 81 104 107 172zM31 -224c0 -19 10 -27 20 -27c17 0 25 20 31 51l20 107c-42 -44 -71 -83 -71 -131z" />
    <glyph glyph-name="z" unicode="z" horiz-adv-x="292" 
d="M4 -5l3 41c8 1 24 3 32 3c5 0 10 0 15 -1c45 56 88 225 88 305c0 32 -11 44 -25 44c-35 0 -48 -55 -89 -162c0 0 -28 5 -28 13v1c43 115 56 222 133 222c70 0 99 -62 99 -140c0 -106 -51 -242 -124 -301c9 -6 18 -13 25 -20c57 58 117 129 159 239c7 0 28 -6 28 -12
c-43 -112 -109 -188 -169 -253c14 -27 21 -59 21 -92c0 -90 -50 -184 -137 -184c-37 0 -61 28 -61 68c0 73 53 129 108 184c-4 18 -10 34 -18 46c-10 -3 -21 -5 -32 -5c-10 0 -19 1 -28 4zM38 -261c31 0 52 73 52 144c0 8 -1 15 -1 23c-41 -46 -70 -101 -70 -143
c0 -15 6 -24 19 -24z" />
    <glyph glyph-name="braceleft" unicode="{" horiz-adv-x="167" 
d="M43 305l12 69c19 0 36 -2 49 -6c9 17 12 42 12 71c0 49 -9 110 -9 166c0 90 21 168 128 168c7 0 15 -1 20 -4l-24 -76c-6 2 -12 3 -17 3c-37 -1 -46 -35 -46 -83c0 -45 8 -102 8 -156c0 -59 -9 -102 -29 -123c3 -9 5 -18 5 -29c0 -95 -97 -245 -97 -304
c0 -16 7 -25 25 -25c6 0 12 1 19 3l9 -74c-4 -2 -18 -3 -25 -3c-64 0 -84 42 -84 87c0 104 96 226 96 297c0 8 -1 16 -2 23c-14 -3 -31 -4 -50 -4z" />
    <glyph glyph-name="bar" unicode="|" horiz-adv-x="196" 
d="M138 721h53c-38 -225 -77 -442 -132 -721h-52c44 252 93 499 131 721z" />
    <glyph glyph-name="braceright" unicode="}" horiz-adv-x="195" 
d="M195 370l-12 -69c-20 0 -36 2 -50 6c-9 -17 -11 -42 -11 -70c0 -50 8 -112 8 -169c0 -89 -21 -166 -127 -166c-7 0 -15 1 -20 4l24 76c6 -2 12 -3 17 -3c37 0 45 35 45 83c0 45 -7 102 -7 155c0 61 8 101 29 124c-4 8 -5 18 -5 29c0 95 97 245 97 304c0 16 -7 25 -25 25
c-6 0 -12 -1 -19 -3l-9 74c4 2 18 3 25 3c64 0 84 -42 84 -87c0 -104 -96 -226 -96 -297c0 -9 0 -17 1 -23c15 2 31 3 51 4z" />
    <glyph glyph-name="asciitilde" unicode="~" horiz-adv-x="390" 
d="M39 272l-59 67c36 47 91 59 150 59s119 -12 164 -12c58 0 81 14 103 34l71 -91c-27 -34 -65 -57 -124 -57c-70 0 -145 41 -212 41c-35 0 -65 -10 -93 -41z" />
    <glyph glyph-name="Adieresis" unicode="&#xc4;" horiz-adv-x="1181" 
d="M1090 920c-25 0 -36 18 -36 39c0 27 20 59 53 59c25 0 36 -18 36 -39c0 -27 -20 -59 -53 -59zM1203 920c-24 0 -36 18 -36 39c0 27 20 59 53 59c25 0 36 -18 36 -39c0 -27 -20 -59 -53 -59zM694 407c60 -4 118 -19 170 -44c86 218 162 438 272 521l69 -31
c-61 -318 -110 -632 -110 -860c0 -211 42 -349 154 -349c55 0 91 35 114 93l85 -30c-37 -93 -100 -141 -186 -141c-197 0 -267 164 -267 422c0 25 1 51 2 77c-3 92 -40 159 -93 204c-100 -262 -234 -506 -507 -506c-247 0 -364 185 -364 379c0 211 139 431 401 431
c144 0 228 -73 260 -166zM279 156c33 143 173 229 325 247c-25 69 -83 122 -175 122c-195 0 -305 -202 -305 -389c0 -167 86 -323 277 -323c214 0 337 240 441 496c-41 19 -87 29 -134 32c1 -9 1 -17 1 -26c0 -117 -69 -239 -194 -278l-34 81c90 28 136 117 136 203v14
c-118 -20 -225 -92 -251 -206zM1107 785h-1c-69 -113 -119 -287 -182 -461c36 -28 65 -64 85 -107c18 170 54 363 98 568z" />
    <glyph glyph-name="Aring" unicode="&#xc5;" horiz-adv-x="1181" 
d="M1199 1005c52 0 77 -33 77 -68c0 -37 -25 -76 -72 -88c-61 -317 -109 -630 -109 -857c0 -211 42 -348 154 -348c55 0 91 35 114 93l85 -30c-37 -93 -100 -141 -186 -141c-197 0 -267 164 -267 422c0 25 1 51 2 77c-3 92 -40 159 -93 204c-100 -262 -234 -506 -507 -506
c-247 0 -364 185 -364 379c0 211 139 431 401 431c144 0 228 -73 260 -166c60 -4 118 -19 170 -44c81 205 153 411 252 504c-12 12 -17 29 -17 46c0 43 36 92 100 92zM279 156c33 143 173 229 325 247c-25 69 -83 122 -175 122c-195 0 -305 -202 -305 -389
c0 -167 86 -323 277 -323c214 0 337 240 441 496c-41 19 -87 29 -134 32c1 -9 1 -17 1 -26c0 -117 -69 -239 -194 -278l-34 81c90 28 136 117 136 203v14c-118 -20 -225 -92 -251 -206zM1107 785h-1c-69 -113 -119 -287 -182 -461c36 -28 65 -64 85 -107
c18 170 54 363 98 568zM1196 975c-38 0 -59 -32 -59 -60c0 -21 13 -40 41 -40c37 0 59 32 59 60c0 21 -13 40 -41 40z" />
    <glyph glyph-name="Ccedilla" unicode="&#xc7;" horiz-adv-x="932" 
d="M612 -279c5 1 11 1 16 1c52 0 76 -31 76 -65c0 -39 -33 -82 -93 -82c-46 0 -81 27 -88 54l45 23c7 -21 24 -36 48 -36c27 0 43 22 43 43c0 18 -12 36 -39 36c-25 0 -32 -10 -48 -19l-15 21c20 20 25 38 31 70c-132 25 -196 172 -205 352c-238 0 -367 144 -367 305
c0 171 126 274 259 274c38 0 76 -9 113 -26l-42 -78c-24 12 -49 17 -73 17c-90 0 -173 -76 -173 -194c0 -138 95 -247 282 -248c2 323 167 721 424 721c119 0 176 -90 176 -208c0 -210 -179 -510 -507 -557c0 -156 31 -283 120 -307c16 154 12 369 186 369
c85 0 127 -69 127 -152c0 -122 -92 -272 -280 -272c-4 -14 -9 -28 -16 -42zM806 840c-171 0 -309 -367 -329 -662c279 53 416 343 416 521c0 83 -29 141 -87 141zM773 137c-87 0 -99 -150 -134 -323c125 8 194 143 194 236c0 49 -19 87 -60 87z" />
    <glyph glyph-name="Eacute" unicode="&#xc9;" horiz-adv-x="786" 
d="M591 437l-10 -82h-6c-43 0 -79 10 -109 27c-154 -49 -230 -200 -230 -334c0 -125 66 -235 195 -235c151 0 217 135 217 244c0 74 -30 136 -86 136c-49 0 -84 -51 -84 -112c0 -28 7 -58 23 -86l-92 -45c-18 35 -27 72 -27 108c0 103 69 195 185 195
c114 0 171 -88 171 -190c0 -138 -105 -300 -313 -300c-194 0 -289 131 -289 278c0 149 98 313 288 373c-13 13 -25 28 -34 44c-22 -2 -44 -3 -68 -3c-222 0 -309 106 -309 204c0 85 64 164 163 164c69 0 121 -25 161 -95l-69 -52c-19 41 -44 66 -92 66
c-52 0 -84 -40 -84 -87c0 -68 65 -150 230 -150c16 0 31 1 46 2c-10 31 -15 65 -15 100c0 137 79 279 222 279c98 0 150 -65 150 -145c0 -99 -80 -221 -249 -267c7 -16 16 -31 27 -43c24 4 51 6 78 6h10zM571 836c-80 0 -122 -112 -122 -223c0 -30 3 -59 9 -86
c124 44 175 147 175 222c0 49 -23 87 -62 87zM633 1085l62 -43c-49 -80 -110 -119 -110 -119l-36 32c17 19 55 68 84 130z" />
    <glyph glyph-name="Ntilde" unicode="&#xd1;" horiz-adv-x="996" 
d="M260 -167c218 0 368 287 397 591c-38 118 -66 242 -66 368l85 16c25 -82 37 -186 37 -298c39 -95 87 -201 128 -312c65 398 236 699 424 699c69 0 114 -21 147 -57l-52 -82c-20 30 -57 45 -104 45c-152 0 -326 -271 -377 -720c24 -89 31 -181 31 -271v-39h-86
c-6 46 -9 94 -9 142c0 30 1 59 3 88c-33 92 -79 196 -121 308c-44 -278 -181 -538 -442 -538c-194 0 -281 136 -281 280c0 162 110 334 302 334c125 0 192 -93 192 -204c0 -53 -16 -110 -48 -163l-84 46c29 48 43 98 43 140c0 71 -38 123 -110 123
c-124 0 -206 -147 -206 -281c0 -112 58 -215 197 -215zM820 832l-29 33c18 23 45 29 74 29s59 -6 81 -6c29 0 40 7 51 17l35 -45c-13 -17 -32 -28 -61 -28c-35 0 -72 20 -105 20c-17 0 -32 -5 -46 -20z" />
    <glyph glyph-name="Odieresis" unicode="&#xd6;" horiz-adv-x="1116" 
d="M933 848l-18 -25c-27 39 -68 62 -125 62c-249 0 -430 -390 -436 -709c-196 6 -282 130 -282 241c0 93 59 177 165 177c30 0 56 -7 78 -22l53 87c-30 18 -53 25 -91 25c-183 0 -284 -131 -284 -267c0 -145 114 -295 362 -301c11 -193 94 -348 277 -348
c303 0 466 375 466 688c0 179 -54 337 -165 392zM450 121c324 44 502 351 502 562c0 46 -8 88 -25 121c56 -68 81 -183 81 -310c0 -302 -144 -676 -371 -676c-127 0 -182 134 -187 303zM786 835c52 0 77 -47 77 -116c0 -172 -153 -480 -413 -535c12 292 153 651 336 651z
M750 920c-25 0 -36 18 -36 39c0 27 20 59 53 59c25 0 36 -18 36 -39c0 -27 -20 -59 -53 -59zM863 920c-24 0 -36 18 -36 39c0 27 20 59 53 59c25 0 36 -18 36 -39c0 -27 -20 -59 -53 -59z" />
    <glyph glyph-name="Udieresis" unicode="&#xdc;" horiz-adv-x="779" 
d="M823 -35l84 -2c-12 -135 -73 -196 -160 -196c-101 0 -137 68 -137 218c0 13 0 26 1 40c-49 -135 -119 -257 -208 -257c-83 0 -123 56 -123 158c0 168 138 462 138 627c0 175 -93 274 -237 274c-182 0 -320 -149 -320 -346c0 -162 95 -237 189 -237c104 0 180 76 202 214
l93 -22c-32 -170 -146 -252 -292 -252c-167 0 -287 119 -287 304c0 234 180 395 421 395c191 0 318 -109 318 -330c0 -184 -130 -446 -130 -629c0 -31 11 -77 52 -77c99 0 177 250 207 396c35 223 101 475 148 643l87 -11c-24 -157 -80 -306 -80 -306
c-40 -135 -94 -462 -94 -609c0 -72 17 -131 61 -131c41 0 65 55 67 136zM608 920c-25 0 -36 18 -36 39c0 27 20 59 53 59c25 0 36 -18 36 -39c0 -27 -20 -59 -53 -59zM721 920c-24 0 -36 18 -36 39c0 27 20 59 53 59c25 0 36 -18 36 -39c0 -27 -20 -59 -53 -59z" />
    <glyph glyph-name="aacute" unicode="&#xe1;" 
d="M221 399l11 56h71c-30 -133 -49 -241 -63 -340c-2 -11 -2 -19 -2 -26c0 -15 3 -22 8 -22c11 0 53 48 101 172c6 0 28 -8 28 -14c-61 -160 -110 -230 -156 -230c-32 0 -50 29 -50 98v11c-23 -61 -58 -114 -116 -114c-49 0 -69 54 -69 127c0 141 77 349 172 349
c37 0 58 -22 65 -67zM161 394c-42 0 -93 -176 -93 -267c0 -31 6 -52 21 -52c46 0 103 163 103 256c0 37 -9 63 -31 63zM215 645l62 -43c-49 -80 -110 -119 -110 -119l-36 32c17 19 55 68 84 130z" />
    <glyph glyph-name="agrave" unicode="&#xe0;" 
d="M232 455l-11 -56c-7 45 -28 67 -65 67c-95 0 -172 -208 -172 -349c0 -73 20 -127 69 -127c58 0 93 53 116 114v-11c0 -69 18 -98 50 -98c46 0 95 70 156 230c0 6 -22 14 -28 14c-48 -124 -90 -172 -101 -172c-5 0 -8 7 -8 22c0 7 0 15 2 26c14 99 33 207 63 340h-71z
M161 394c22 0 31 -26 31 -63c0 -93 -57 -256 -103 -256c-15 0 -21 21 -21 52c0 91 51 267 93 267zM81 602l62 43c29 -62 67 -111 84 -130l-36 -32s-61 39 -110 119z" />
    <glyph glyph-name="acircumflex" unicode="&#xe2;" 
d="M221 399l11 56h71c-30 -133 -49 -241 -63 -340c-2 -11 -2 -19 -2 -26c0 -15 3 -22 8 -22c11 0 53 48 101 172c6 0 28 -8 28 -14c-61 -160 -110 -230 -156 -230c-32 0 -50 29 -50 98v11c-23 -61 -58 -114 -116 -114c-49 0 -69 54 -69 127c0 141 77 349 172 349
c37 0 58 -22 65 -67zM161 394c-42 0 -93 -176 -93 -267c0 -31 6 -52 21 -52c46 0 103 163 103 256c0 37 -9 63 -31 63zM187 631l41 -5c41 -63 65 -124 65 -124l-61 -29s-6 39 -37 104c0 0 -34 -54 -84 -93l-40 46c86 62 116 101 116 101z" />
    <glyph glyph-name="adieresis" unicode="&#xe4;" 
d="M232 455l-11 -56c-7 45 -28 67 -65 67c-95 0 -172 -208 -172 -349c0 -73 20 -127 69 -127c58 0 93 53 116 114v-11c0 -69 18 -98 50 -98c46 0 95 70 156 230c0 6 -22 14 -28 14c-48 -124 -90 -172 -101 -172c-5 0 -8 7 -8 22c0 7 0 15 2 26c14 99 33 207 63 340h-71z
M161 394c22 0 31 -26 31 -63c0 -93 -57 -256 -103 -256c-15 0 -21 21 -21 52c0 91 51 267 93 267zM125 490c-25 0 -36 18 -36 39c0 27 20 59 53 59c25 0 36 -18 36 -39c0 -27 -20 -59 -53 -59zM238 490c-24 0 -36 18 -36 39c0 27 20 59 53 59c25 0 36 -18 36 -39
c0 -27 -20 -59 -53 -59z" />
    <glyph glyph-name="atilde" unicode="&#xe3;" 
d="M221 399l11 56h71c-30 -133 -49 -241 -63 -340c-2 -11 -2 -19 -2 -26c0 -15 3 -22 8 -22c11 0 53 48 101 172c6 0 28 -8 28 -14c-61 -160 -110 -230 -156 -230c-32 0 -50 29 -50 98v11c-23 -61 -58 -114 -116 -114c-49 0 -69 54 -69 127c0 141 77 349 172 349
c37 0 58 -22 65 -67zM161 394c-42 0 -93 -176 -93 -267c0 -31 6 -52 21 -52c46 0 103 163 103 256c0 37 -9 63 -31 63zM105 502l-29 33c18 23 45 29 74 29s59 -6 81 -6c29 0 40 7 51 17l35 -45c-13 -17 -32 -28 -61 -28c-35 0 -72 20 -105 20c-17 0 -32 -5 -46 -20z" />
    <glyph glyph-name="aring" unicode="&#xe5;" 
d="M221 399l11 56h71c-30 -133 -49 -241 -63 -340c-2 -11 -2 -19 -2 -26c0 -15 3 -22 8 -22c11 0 53 48 101 172c6 0 28 -8 28 -14c-61 -160 -110 -230 -156 -230c-32 0 -50 29 -50 98v11c-23 -61 -58 -114 -116 -114c-49 0 -69 54 -69 127c0 141 77 349 172 349
c37 0 58 -22 65 -67zM161 394c-42 0 -93 -176 -93 -267c0 -31 6 -52 21 -52c46 0 103 163 103 256c0 37 -9 63 -31 63zM157 446c-52 0 -76 32 -76 67c0 43 36 92 100 92c53 0 78 -33 78 -68c0 -43 -36 -91 -102 -91zM178 575c-38 0 -59 -32 -59 -60c0 -21 13 -40 41 -40
c37 0 59 32 59 60c0 21 -13 40 -41 40z" />
    <glyph glyph-name="ccedilla" unicode="&#xe7;" horiz-adv-x="291" 
d="M222 227l-64 34c20 34 33 78 33 108c0 21 -6 35 -20 35c-52 0 -97 -119 -97 -214c0 -63 20 -115 71 -115c48 0 102 54 146 164c6 0 28 -8 28 -14c-30 -80 -107 -235 -213 -235c-78 0 -112 80 -112 175c0 136 70 301 181 301c57 0 80 -46 80 -104c0 -43 -13 -92 -33 -135z
M72 -104l-15 21c23 23 28 49 34 87l30 -5c-2 -18 -5 -39 -13 -58c7 1 13 1 20 1c52 0 76 -31 76 -65c0 -39 -33 -82 -93 -82c-46 0 -81 27 -88 54l45 23c7 -21 24 -36 48 -36c27 0 43 22 43 43c0 18 -12 36 -39 36s-31 -9 -48 -19z" />
    <glyph glyph-name="eacute" unicode="&#xe9;" horiz-adv-x="286" 
d="M140 75c59 0 108 62 146 164c6 0 28 -8 28 -14c-50 -131 -100 -235 -198 -235c-87 0 -123 80 -123 174c0 136 75 302 187 302c50 0 75 -36 75 -82c0 -71 -60 -167 -178 -186v-15c0 -60 17 -108 63 -108zM172 404c-41 0 -80 -85 -92 -168c75 37 108 106 108 143
c0 15 -6 25 -16 25zM204 645l62 -43c-49 -80 -110 -119 -110 -119l-36 32c17 19 55 68 84 130z" />
    <glyph glyph-name="egrave" unicode="&#xe8;" horiz-adv-x="286" 
d="M140 75c-46 0 -63 48 -63 108v15c118 19 178 115 178 186c0 46 -25 82 -75 82c-112 0 -187 -166 -187 -302c0 -94 36 -174 123 -174c98 0 148 104 198 235c0 6 -22 14 -28 14c-38 -102 -87 -164 -146 -164zM172 404c10 0 16 -10 16 -25c0 -37 -33 -106 -108 -143
c12 83 51 168 92 168zM60 602l62 43c29 -62 67 -111 84 -130l-36 -32s-61 39 -110 119z" />
    <glyph glyph-name="ecircumflex" unicode="&#xea;" horiz-adv-x="286" 
d="M140 75c59 0 108 62 146 164c6 0 28 -8 28 -14c-50 -131 -100 -235 -198 -235c-87 0 -123 80 -123 174c0 136 75 302 187 302c50 0 75 -36 75 -82c0 -71 -60 -167 -178 -186v-15c0 -60 17 -108 63 -108zM172 404c-41 0 -80 -85 -92 -168c75 37 108 106 108 143
c0 15 -6 25 -16 25zM180 631l41 -5c41 -63 65 -124 65 -124l-61 -29s-6 39 -37 104c0 0 -34 -54 -84 -93l-40 46c86 62 116 101 116 101z" />
    <glyph glyph-name="edieresis" unicode="&#xeb;" horiz-adv-x="286" 
d="M140 75c-46 0 -63 48 -63 108v15c118 19 178 115 178 186c0 46 -25 82 -75 82c-112 0 -187 -166 -187 -302c0 -94 36 -174 123 -174c98 0 148 104 198 235c0 6 -22 14 -28 14c-38 -102 -87 -164 -146 -164zM172 404c10 0 16 -10 16 -25c0 -37 -33 -106 -108 -143
c12 83 51 168 92 168zM155 490c-32 0 -47 24 -47 51c0 36 26 79 70 79c33 0 47 -24 47 -52c0 -36 -26 -78 -70 -78zM255 490c-32 0 -47 24 -47 51c0 36 26 79 70 79c33 0 47 -24 47 -52c0 -36 -26 -78 -70 -78z" />
    <glyph glyph-name="iacute" unicode="&#xed;" horiz-adv-x="191" 
d="M47 456h85c-35 -156 -64 -272 -64 -354c0 -29 11 -34 20 -34c26 0 59 56 103 171c5 0 28 -7 28 -13v-1c-44 -114 -79 -230 -161 -230c-54 0 -72 50 -72 119c0 111 44 270 61 342zM120 645l62 -43c-49 -80 -110 -119 -110 -119l-36 32c17 19 55 68 84 130z" />
    <glyph glyph-name="igrave" unicode="&#xec;" horiz-adv-x="191" 
d="M132 456h-85c-17 -72 -61 -231 -61 -342c0 -69 18 -119 72 -119c82 0 117 116 161 230v1c0 6 -23 13 -28 13c-44 -115 -77 -171 -103 -171c-9 0 -20 5 -20 34c0 82 29 198 64 354zM-4 602l62 43c29 -62 67 -111 84 -130l-36 -32s-61 39 -110 119z" />
    <glyph glyph-name="icircumflex" unicode="&#xee;" horiz-adv-x="191" 
d="M102 631l41 -5c41 -63 65 -124 65 -124l-61 -29s-6 39 -37 104c0 0 -34 -54 -84 -93l-40 46c86 62 116 101 116 101zM47 456h85c-35 -156 -64 -272 -64 -354c0 -29 11 -34 20 -34c26 0 59 56 103 171c5 0 28 -7 28 -13v-1c-44 -114 -79 -230 -161 -230
c-54 0 -72 50 -72 119c0 111 44 270 61 342z" />
    <glyph glyph-name="idieresis" unicode="&#xef;" horiz-adv-x="146" 
d="M132 456h-85c-17 -72 -61 -231 -61 -342c0 -69 18 -119 72 -119c82 0 117 116 161 230v1c0 6 -23 13 -28 13c-44 -115 -77 -171 -103 -171c-9 0 -20 5 -20 34c0 82 29 198 64 354zM42 490c-25 0 -36 18 -36 39c0 27 20 59 53 59c25 0 36 -18 36 -39
c0 -27 -20 -59 -53 -59zM155 490c-24 0 -36 18 -36 39c0 27 20 59 53 59c25 0 36 -18 36 -39c0 -27 -20 -59 -53 -59z" />
    <glyph glyph-name="ntilde" unicode="&#xf1;" horiz-adv-x="341" 
d="M37 0h-87s9 91 37 166c20 113 37 214 49 290h86l-11 -67c32 48 72 78 114 78c35 0 58 -23 58 -71c0 -93 -65 -212 -65 -294c0 -29 11 -34 20 -34c26 0 59 56 103 171c6 0 28 -8 28 -14c-44 -114 -89 -230 -171 -230c-35 0 -68 28 -68 89c0 108 65 219 65 291
c0 11 -5 20 -16 20c-25 0 -69 -47 -102 -188zM100 502l-29 33c18 23 45 29 74 29s59 -6 81 -6c29 0 40 7 51 17l35 -45c-13 -17 -32 -28 -61 -28c-35 0 -72 20 -105 20c-17 0 -32 -5 -46 -20z" />
    <glyph glyph-name="oacute" unicode="&#xf3;" horiz-adv-x="323" 
d="M318 239c6 0 28 -8 28 -14c-23 -60 -68 -102 -116 -119c-34 -73 -85 -116 -149 -116c-69 0 -99 72 -99 163c0 56 11 119 31 178l36 -9c11 77 53 144 124 144c67 0 102 -77 102 -167c0 -49 -12 -100 -25 -144c26 12 50 37 68 84zM151 401c-29 -6 -52 -71 -52 -135
c0 -54 16 -106 61 -119c22 53 37 123 37 176c0 45 -11 79 -39 79c-2 0 -5 -1 -7 -1zM102 67c13 4 25 18 37 38c-42 16 -69 56 -83 104c-2 -15 -3 -30 -3 -43c0 -59 16 -100 41 -100c3 0 5 0 8 1zM200 645l62 -43c-49 -80 -110 -119 -110 -119l-36 32c17 19 55 68 84 130z
" />
    <glyph glyph-name="ograve" unicode="&#xf2;" horiz-adv-x="328" 
d="M328 239c-18 -47 -42 -72 -68 -84c13 44 25 95 25 144c0 90 -35 167 -102 167c-71 0 -113 -67 -124 -144l-36 9c-20 -59 -31 -122 -31 -178c0 -91 30 -163 99 -163c64 0 115 43 149 116c48 17 93 59 116 119c0 6 -22 14 -28 14zM161 401c2 0 5 1 7 1c28 0 39 -34 39 -79
c0 -53 -15 -123 -37 -176c-45 13 -61 65 -61 119c0 64 23 129 52 135zM112 67c-3 -1 -5 -1 -8 -1c-25 0 -41 41 -41 100c0 13 1 28 3 43c14 -48 41 -88 83 -104c-12 -20 -24 -34 -37 -38zM106 602l62 43c29 -62 67 -111 84 -130l-36 -32s-61 39 -110 119z" />
    <glyph glyph-name="ocircumflex" unicode="&#xf4;" horiz-adv-x="328" 
d="M328 239c6 0 28 -8 28 -14c-23 -60 -68 -102 -116 -119c-34 -73 -85 -116 -149 -116c-69 0 -99 72 -99 163c0 56 11 119 31 178l36 -9c11 77 53 144 124 144c67 0 102 -77 102 -167c0 -49 -12 -100 -25 -144c26 12 50 37 68 84zM161 401c-29 -6 -52 -71 -52 -135
c0 -54 16 -106 61 -119c22 53 37 123 37 176c0 45 -11 79 -39 79c-2 0 -5 -1 -7 -1zM112 67c13 4 25 18 37 38c-42 16 -69 56 -83 104c-2 -15 -3 -30 -3 -43c0 -59 16 -100 41 -100c3 0 5 0 8 1zM202 631l41 -5c41 -63 65 -124 65 -124l-61 -29s-6 39 -37 104
c0 0 -34 -54 -84 -93l-40 46c86 62 116 101 116 101z" />
    <glyph glyph-name="odieresis" unicode="&#xf6;" horiz-adv-x="323" 
d="M318 239c-18 -47 -42 -72 -68 -84c13 44 25 95 25 144c0 90 -35 167 -102 167c-71 0 -113 -67 -124 -144l-36 9c-20 -59 -31 -122 -31 -178c0 -91 30 -163 99 -163c64 0 115 43 149 116c48 17 93 59 116 119c0 6 -22 14 -28 14zM151 401c2 0 5 1 7 1c28 0 39 -34 39 -79
c0 -53 -15 -123 -37 -176c-45 13 -61 65 -61 119c0 64 23 129 52 135zM102 67c-3 -1 -5 -1 -8 -1c-25 0 -41 41 -41 100c0 13 1 28 3 43c14 -48 41 -88 83 -104c-12 -20 -24 -34 -37 -38zM115 490c-25 0 -36 18 -36 39c0 27 20 59 53 59c25 0 36 -18 36 -39
c0 -27 -20 -59 -53 -59zM228 490c-24 0 -36 18 -36 39c0 27 20 59 53 59c25 0 36 -18 36 -39c0 -27 -20 -59 -53 -59z" />
    <glyph glyph-name="otilde" unicode="&#xf5;" horiz-adv-x="328" 
d="M328 239c6 0 28 -8 28 -14c-23 -60 -68 -102 -116 -119c-34 -73 -85 -116 -149 -116c-69 0 -99 72 -99 163c0 56 11 119 31 178l36 -9c11 77 53 144 124 144c67 0 102 -77 102 -167c0 -49 -12 -100 -25 -144c26 12 50 37 68 84zM161 401c-29 -6 -52 -71 -52 -135
c0 -54 16 -106 61 -119c22 53 37 123 37 176c0 45 -11 79 -39 79c-2 0 -5 -1 -7 -1zM112 67c13 4 25 18 37 38c-42 16 -69 56 -83 104c-2 -15 -3 -30 -3 -43c0 -59 16 -100 41 -100c3 0 5 0 8 1zM100 502l-29 33c18 23 45 29 74 29s59 -6 81 -6c29 0 40 7 51 17l35 -45
c-13 -17 -32 -28 -61 -28c-35 0 -72 20 -105 20c-17 0 -32 -5 -46 -20z" />
    <glyph glyph-name="uacute" unicode="&#xfa;" horiz-adv-x="349" 
d="M46 456h85s-20 -83 -45 -211c-11 -56 -20 -103 -20 -143c0 -29 11 -34 20 -34c16 0 46 59 67 146l6 33c15 85 34 159 46 209h85c-35 -156 -64 -272 -64 -354c0 -29 11 -34 20 -34c26 0 59 56 103 171c5 0 28 -7 28 -13v-1c-44 -114 -79 -230 -161 -230
c-44 0 -64 33 -70 82c-22 -49 -51 -82 -90 -82c-53 0 -71 48 -71 115c0 41 7 89 16 137c25 130 45 209 45 209zM198 645l62 -43c-49 -80 -110 -119 -110 -119l-36 32c17 19 55 68 84 130z" />
    <glyph glyph-name="ugrave" unicode="&#xf9;" horiz-adv-x="349" 
d="M131 456h-85s-20 -79 -45 -209c-9 -48 -16 -96 -16 -137c0 -67 18 -115 71 -115c39 0 68 33 90 82c6 -49 26 -82 70 -82c82 0 117 116 161 230v1c0 6 -23 13 -28 13c-44 -115 -77 -171 -103 -171c-9 0 -20 5 -20 34c0 82 29 198 64 354h-85c-12 -50 -31 -124 -46 -209
l-6 -33c-21 -87 -51 -146 -67 -146c-9 0 -20 5 -20 34c0 40 9 87 20 143c25 128 45 211 45 211zM84 602l62 43c29 -62 67 -111 84 -130l-36 -32s-61 39 -110 119z" />
    <glyph glyph-name="ucircumflex" unicode="&#xfb;" horiz-adv-x="349" 
d="M46 456h85s-20 -83 -45 -211c-11 -56 -20 -103 -20 -143c0 -29 11 -34 20 -34c16 0 46 59 67 146l6 33c15 85 34 159 46 209h85c-35 -156 -64 -272 -64 -354c0 -29 11 -34 20 -34c26 0 59 56 103 171c5 0 28 -7 28 -13v-1c-44 -114 -79 -230 -161 -230
c-44 0 -64 33 -70 82c-22 -49 -51 -82 -90 -82c-53 0 -71 48 -71 115c0 41 7 89 16 137c25 130 45 209 45 209zM170 631l41 -5c41 -63 65 -124 65 -124l-61 -29s-6 39 -37 104c0 0 -34 -54 -84 -93l-40 46c86 62 116 101 116 101z" />
    <glyph glyph-name="udieresis" unicode="&#xfc;" horiz-adv-x="349" 
d="M131 456h-85s-20 -79 -45 -209c-9 -48 -16 -96 -16 -137c0 -67 18 -115 71 -115c39 0 68 33 90 82c6 -49 26 -82 70 -82c82 0 117 116 161 230v1c0 6 -23 13 -28 13c-44 -115 -77 -171 -103 -171c-9 0 -20 5 -20 34c0 82 29 198 64 354h-85c-12 -50 -31 -124 -46 -209
l-6 -33c-21 -87 -51 -146 -67 -146c-9 0 -20 5 -20 34c0 40 9 87 20 143c25 128 45 211 45 211zM113 490c-25 0 -36 18 -36 39c0 27 20 59 53 59c25 0 36 -18 36 -39c0 -27 -20 -59 -53 -59zM226 490c-24 0 -36 18 -36 39c0 27 20 59 53 59c25 0 36 -18 36 -39
c0 -27 -20 -59 -53 -59z" />
    <glyph glyph-name="dagger" unicode="&#x2020;" horiz-adv-x="180" 
d="M109 721h92c-48 -225 -120 -532 -175 -811h-32c44 252 87 589 115 811zM14 429h179l-9 -52h-179z" />
    <glyph glyph-name="degree" unicode="&#xb0;" horiz-adv-x="152" 
d="M84 510c-24 0 -39 -25 -39 -45c0 -14 8 -26 24 -26c24 0 38 25 38 45c0 14 -7 26 -23 26zM88 540c39 0 57 -25 57 -54c0 -36 -29 -77 -79 -77c-39 0 -57 25 -57 53c0 37 29 78 79 78z" />
    <glyph glyph-name="cent" unicode="&#xa2;" horiz-adv-x="230" 
d="M213 225l-66 30c9 19 14 38 14 55s-5 32 -15 39c-14 -80 -29 -162 -47 -254c34 3 62 36 77 83l62 -27c-30 -80 -76 -121 -151 -121l-6 -30h-28l6 33c-64 14 -93 80 -93 153c0 105 60 226 164 230c2 13 4 27 7 40h28l-8 -43c49 -10 76 -53 76 -106c0 -26 -7 -54 -20 -82z
M71 100l47 252c-46 -14 -81 -102 -81 -171c0 -37 10 -69 34 -81z" />
    <glyph glyph-name="sterling" unicode="&#xa3;" horiz-adv-x="340" 
d="M235 416c-59 0 -67 -115 -72 -185h61l-7 -40h-57c-5 -45 -15 -81 -52 -129c14 6 29 7 44 7c22 0 44 -3 64 -3s39 3 55 17l40 -60c-12 -13 -41 -28 -76 -28c-46 0 -92 24 -133 24c-20 0 -39 -7 -55 -25l-40 41c52 46 69 93 73 156h-42l7 40h38c9 120 38 235 153 235
c77 0 119 -51 119 -115c0 -36 -14 -77 -42 -115l-60 44c23 26 32 54 32 77c0 34 -20 59 -50 59z" />
    <glyph glyph-name="section" unicode="&#xa7;" horiz-adv-x="357" 
d="M320 299l-81 28c9 15 13 30 13 44c0 20 -11 39 -34 39c-17 0 -32 -15 -32 -38c0 -90 139 -121 139 -239c0 -72 -62 -139 -156 -139c-82 0 -131 41 -141 137l84 12c4 -65 19 -96 50 -96c24 0 35 16 35 41c0 76 -131 109 -131 233c0 75 48 145 142 145
c74 0 119 -50 119 -118c1 -16 -3 -32 -7 -49zM278 121c0 98 -135 134 -135 245c0 19 5 38 15 52c-25 -9 -45 -38 -45 -77c0 -118 137 -163 137 -248c0 -11 0 -21 -7 -38c23 11 35 35 35 66z" />
    <glyph glyph-name="bullet" unicode="&#x2022;" horiz-adv-x="108" 
d="M45 257c-20 0 -29 15 -29 32c0 24 17 52 44 52c20 0 28 -14 28 -31c0 -24 -17 -53 -43 -53z" />
    <glyph glyph-name="paragraph" unicode="&#xb6;" horiz-adv-x="554" 
d="M391 714c-17 -152 -35 -286 -60 -435c106 32 140 141 140 275l86 10c0 -9 1 -19 1 -28c0 -157 -74 -287 -236 -312c-13 -70 -27 -143 -44 -224h-54c16 80 31 152 43 220h-4c-11 0 -22 0 -32 1c-12 -69 -27 -142 -43 -221h-54c16 80 31 156 44 229
c-129 29 -193 126 -193 226c0 131 109 269 323 269c30 0 58 -3 83 -10zM245 671c-117 -24 -177 -123 -177 -216c0 -75 39 -147 119 -174c24 137 42 265 58 390zM240 271c7 -1 14 -1 22 -1h14c25 140 44 265 61 405c-12 2 -21 2 -34 2h-5c-16 -133 -33 -263 -58 -406z" />
    <glyph glyph-name="germandbls" unicode="&#xdf;" horiz-adv-x="332" 
d="M55 -232c-46 0 -93 21 -93 137c0 217 105 697 157 821c20 47 55 69 91 69c53 0 107 -49 107 -136c0 -145 -85 -174 -85 -290c0 -84 84 -127 84 -232c0 -78 -39 -124 -110 -124c-91 0 -124 69 -124 133c0 14 2 28 5 41l80 -10c-5 -21 -8 -40 -8 -56c0 -31 11 -50 33 -50
c34 0 39 50 39 66c0 87 -66 113 -66 232c0 100 87 166 87 312c0 38 -14 55 -28 55c-11 0 -22 -11 -26 -29c-27 -81 -107 -402 -142 -635c63 -43 89 -111 89 -171c0 -71 -37 -133 -90 -133zM62 -182c21 0 34 30 34 68c0 41 -15 91 -49 126c-6 -46 -9 -87 -9 -120
c0 -46 7 -74 24 -74z" />
    <glyph glyph-name="registered" unicode="&#xae;" horiz-adv-x="379" 
d="M155 200c-101 0 -149 100 -149 212c0 144 78 308 225 308c101 0 149 -100 149 -212c0 -144 -79 -308 -225 -308zM157 230c122 0 188 149 188 277c0 98 -37 183 -117 183c-122 0 -188 -149 -188 -277c0 -97 38 -183 117 -183zM100 321h36l17 95c26 -31 54 -95 84 -103
l25 33c-24 9 -46 52 -79 77c62 19 98 75 98 121c0 38 -23 69 -76 69c-40 0 -64 -15 -87 -38l18 -23l11 9c-16 -92 -23 -127 -47 -240zM206 585c26 0 38 -18 38 -41c0 -38 -33 -92 -86 -107l26 144c8 2 15 4 22 4z" />
    <glyph glyph-name="copyright" unicode="&#xa9;" horiz-adv-x="392" 
d="M272 401l-31 13c-10 -33 -31 -72 -60 -72c-33 0 -45 33 -45 75c0 71 36 167 74 167c13 0 20 -11 20 -31c0 -18 -7 -44 -22 -75l35 -12c13 26 20 54 20 79c0 39 -16 69 -50 69c-71 0 -118 -102 -118 -188c0 -61 24 -114 83 -114c35 0 75 35 94 89zM155 200
c-101 0 -149 100 -149 212c0 144 78 308 225 308c101 0 149 -100 149 -212c0 -144 -79 -308 -225 -308zM157 230c122 0 188 149 188 277c0 98 -37 183 -117 183c-122 0 -188 -149 -188 -277c0 -97 38 -183 117 -183z" />
    <glyph glyph-name="trademark" unicode="&#x2122;" horiz-adv-x="378" 
d="M361 456h-46c-3 21 -4 53 -4 88c0 34 1 71 6 103c-17 -69 -44 -150 -67 -191h-39c-6 38 -12 110 -21 187c-7 -50 -21 -114 -41 -187h-38c24 80 50 165 61 265h56c9 -112 21 -202 21 -202c44 111 59 202 59 202h60c-7 -59 -10 -119 -10 -170c0 -39 2 -72 3 -95zM7 721h139
l-5 -32h-43c-9 -62 -28 -181 -40 -233h-47c11 55 29 166 39 233h-48z" />
    <glyph glyph-name="acute" unicode="&#xb4;" horiz-adv-x="188" 
d="M110 645l62 -43c-49 -80 -110 -119 -110 -119l-36 32c17 19 55 68 84 130z" />
    <glyph glyph-name="dieresis" unicode="&#xa8;" horiz-adv-x="238" 
d="M50 490c-25 0 -36 18 -36 39c0 27 20 59 53 59c25 0 36 -18 36 -39c0 -27 -20 -59 -53 -59zM163 490c-24 0 -36 18 -36 39c0 27 20 59 53 59c25 0 36 -18 36 -39c0 -27 -20 -59 -53 -59z" />
    <glyph glyph-name="notequal" unicode="&#x2260;" horiz-adv-x="210" 
d="M159 355l11 -2c-5 -10 -47 -105 -133 -219l-10 5c7 11 83 112 132 216zM12 224h179l-9 -52h-179zM30 328h179l-9 -52h-179z" />
    <glyph glyph-name="AE" unicode="&#xc6;" horiz-adv-x="1757" 
d="M731 426l25 73c40 -17 82 -30 125 -39c72 183 141 353 235 424l69 -31c-27 -140 -51 -279 -70 -410c83 6 164 22 235 47c-12 37 -18 77 -18 118c0 141 73 282 212 282c99 0 146 -71 146 -146c0 -122 -97 -217 -236 -279c10 -26 22 -47 38 -64c24 3 51 5 78 5h10l-10 -82
h-6c-42 0 -78 10 -109 28c-156 -47 -235 -191 -235 -319c0 -118 66 -221 200 -221c151 0 217 135 217 244c0 74 -30 136 -86 136c-49 0 -84 -51 -84 -112c0 -28 7 -58 23 -86l-92 -45c-18 35 -27 72 -27 108c0 103 69 195 185 195c114 0 171 -88 171 -190
c0 -138 -105 -300 -313 -300c-194 0 -289 125 -289 266c0 142 98 299 288 356c-15 15 -28 32 -38 50c-83 -27 -175 -44 -269 -50c-19 -145 -31 -278 -31 -390c0 -212 42 -350 154 -350c55 0 91 35 114 93l85 -30c-37 -93 -100 -141 -186 -141c-197 0 -268 164 -268 423
c0 115 14 248 37 393c-29 0 -57 2 -85 4c-105 -302 -235 -623 -549 -623c-247 0 -364 185 -364 379c0 211 139 431 401 431c189 0 275 -126 275 -257c0 -118 -69 -239 -194 -279l-34 81c91 29 137 118 137 206c0 101 -62 201 -189 201c-195 0 -305 -202 -305 -389
c0 -167 86 -323 277 -323c238 0 363 296 475 582c-43 8 -86 17 -125 31zM1611 747c0 48 -19 88 -71 88c-75 0 -112 -107 -112 -218c0 -30 3 -60 8 -89c106 56 175 133 175 219zM1087 785h-1c-52 -86 -94 -207 -139 -337c25 -3 49 -5 74 -6c18 109 41 224 66 343z" />
    <glyph glyph-name="Oslash" unicode="&#xd8;" horiz-adv-x="1116" 
d="M806 933l62 -2c-38 -225 -168 -948 -223 -1227l-62 2c44 252 185 1005 223 1227zM915 823l18 25c111 -55 165 -213 165 -392c0 -313 -163 -688 -466 -688c-183 0 -266 155 -277 348c-248 6 -362 156 -362 301c0 136 101 267 284 267c38 0 61 -7 91 -25l-53 -87
c-22 15 -48 22 -78 22c-106 0 -165 -84 -165 -177c0 -111 86 -235 282 -241c6 319 187 709 436 709c57 0 98 -23 125 -62zM450 121c5 -169 60 -303 187 -303c227 0 371 374 371 676c0 127 -25 242 -81 310c17 -33 25 -75 25 -121c0 -211 -178 -518 -502 -562zM786 835
c-183 0 -324 -359 -336 -651c260 55 413 363 413 535c0 69 -25 116 -77 116z" />
    <glyph glyph-name="yen" unicode="&#xa5;" horiz-adv-x="271" 
d="M191 284h29l-7 -42h-43l-17 -33l-7 -35h56l-7 -42h-56l-25 -132h-78l24 132h-54l7 42h54c3 12 5 25 8 39c0 0 -2 11 -5 29h-46l7 42h32l-31 172h82c11 -58 25 -124 32 -172l88 172h45z" />
    <glyph glyph-name="ordfeminine" unicode="&#xaa;" horiz-adv-x="342" 
d="M314 264l24 -17c-27 -56 -61 -99 -89 -99c-32 0 -50 29 -50 98v11c-23 -61 -58 -114 -116 -114c-51 0 -72 53 -72 122c0 125 71 301 163 301c37 0 58 -22 65 -67l11 58h71c-30 -133 -37 -190 -51 -289c-2 -11 -2 -19 -2 -26c0 -15 3 -22 8 -22c6 1 18 10 31 32zM179 494
c-41 0 -83 -136 -83 -214c0 -30 7 -52 23 -52c45 0 93 127 93 206c0 35 -9 60 -33 60z" />
    <glyph glyph-name="ordmasculine" unicode="&#xba;" horiz-adv-x="395" 
d="M359 381l23 -22c-22 -31 -49 -55 -79 -68c-29 -78 -86 -141 -162 -141s-114 58 -114 144c0 40 9 87 26 137l44 -10c-1 5 -1 10 -1 14c0 67 39 131 117 131c79 0 113 -71 113 -154c0 -24 -3 -48 -8 -72c15 8 28 21 41 41zM196 504c-27 0 -46 -38 -46 -80
c0 -44 22 -92 79 -99c9 31 14 64 14 94c0 47 -13 85 -47 85zM108 370c-6 -24 -8 -46 -8 -64c0 -53 21 -81 49 -81c24 0 46 22 62 55c-52 10 -86 46 -103 90z" />
    <glyph glyph-name="ae" unicode="&#xe6;" horiz-adv-x="447" 
d="M301 75c59 0 108 62 146 164c6 0 28 -8 28 -14c-50 -131 -100 -235 -198 -235c-58 0 -89 36 -101 88c-29 -61 -62 -88 -104 -88c-66 0 -88 55 -88 127c0 141 78 349 172 349c37 0 66 -25 80 -69c26 41 59 69 105 69c50 0 75 -36 75 -82c0 -71 -60 -167 -178 -186v-15
c0 -60 17 -108 63 -108zM161 394c-42 0 -93 -176 -93 -267c0 -31 6 -52 21 -52c47 0 100 165 100 258c0 36 -8 61 -28 61zM333 404c-41 0 -80 -85 -92 -168c75 37 108 106 108 143c0 15 -6 25 -16 25z" />
    <glyph glyph-name="oslash" unicode="&#xf8;" horiz-adv-x="328" 
d="M233 476l42 -22c-65 -142 -146 -298 -248 -467l-19 9c96 153 166 318 225 480zM328 239c6 0 28 -8 28 -14c-23 -60 -68 -102 -116 -119c-34 -73 -85 -116 -149 -116c-69 0 -99 72 -99 163c0 56 11 119 31 178l36 -9c11 77 53 144 124 144c67 0 102 -77 102 -167
c0 -49 -12 -100 -25 -144c26 12 50 37 68 84zM161 401c-29 -6 -52 -71 -52 -135c0 -54 16 -106 61 -119c22 53 37 123 37 176c0 45 -11 79 -39 79c-2 0 -5 -1 -7 -1zM112 67c13 4 25 18 37 38c-42 16 -69 56 -83 104c-2 -15 -3 -30 -3 -43c0 -59 16 -100 41 -100
c3 0 5 0 8 1z" />
    <glyph glyph-name="questiondown" unicode="&#xbf;" horiz-adv-x="355" 
d="M278 541l-70 10c-31 -202 -203 -238 -203 -413c0 -94 68 -148 163 -148c113 0 174 93 174 183c0 55 -23 108 -70 138l-62 -66c30 -26 42 -61 42 -93c0 -56 -36 -108 -81 -108c-48 0 -71 35 -71 89c0 139 150 206 178 408zM261 600c-32 0 -47 24 -47 51c0 36 26 79 70 79
c33 0 47 -24 47 -52c0 -36 -26 -78 -70 -78z" />
    <glyph glyph-name="exclamdown" unicode="&#xa1;" horiz-adv-x="252" 
d="M3 24l92 -24c58 182 97 331 142 551l-56 9c-54 -208 -104 -357 -178 -536zM224 600c-32 0 -47 24 -47 51c0 36 26 79 70 79c33 0 47 -24 47 -52c0 -36 -26 -78 -70 -78z" />
    <glyph glyph-name="florin" unicode="&#x192;" horiz-adv-x="275" 
d="M128 211h40l-9 -51h-37c-17 -133 -37 -282 -105 -351l-53 47c56 74 73 191 87 304h-41l9 51h39c19 137 44 255 152 255c56 0 84 -42 84 -97c0 -41 -16 -90 -45 -135l-63 37c32 45 46 84 46 110c0 19 -8 31 -24 31c-49 0 -66 -89 -80 -201z" />
    <glyph glyph-name="approxequal" unicode="&#x2248;" horiz-adv-x="197" 
d="M30 302l-29 33c18 23 45 29 74 29s59 -6 81 -6c29 0 40 7 51 17l35 -45c-13 -17 -32 -28 -61 -28c-35 0 -72 20 -105 20c-17 0 -32 -5 -46 -20zM19 242l-29 33c18 23 45 29 74 29s59 -6 81 -6c29 0 40 7 51 17l35 -45c-13 -17 -32 -28 -61 -28c-35 0 -72 20 -105 20
c-17 0 -32 -5 -46 -20z" />
    <glyph glyph-name="guillemotleft" unicode="&#xab;" horiz-adv-x="408" 
d="M15 361l7 41s100 48 185 112l32 -53c-84 -53 -168 -84 -168 -84c67 -49 125 -105 125 -105l-48 -51s-60 81 -133 140zM175 361l7 41s100 48 185 112l32 -53c-84 -53 -168 -84 -168 -84c67 -49 125 -105 125 -105l-48 -51s-60 81 -133 140z" />
    <glyph glyph-name="guillemotright" unicode="&#xbb;" horiz-adv-x="371" 
d="M234 374l-7 -41s-100 -48 -185 -112l-32 53c84 53 168 84 168 84c-67 49 -125 105 -125 105l48 51s60 -81 133 -140zM364 374l-7 -41s-100 -48 -185 -112l-32 53c84 53 168 84 168 84c-67 49 -125 105 -125 105l48 51s60 -81 133 -140z" />
    <glyph glyph-name="ellipsis" unicode="&#x2026;" horiz-adv-x="432" 
d="M61 -10c-32 0 -47 24 -47 51c0 36 26 79 70 79c33 0 47 -24 47 -52c0 -36 -26 -78 -70 -78zM201 -10c-32 0 -47 24 -47 51c0 36 26 79 70 79c33 0 47 -24 47 -52c0 -36 -26 -78 -70 -78zM342 -10c-32 0 -47 24 -47 51c0 36 26 79 70 79c33 0 47 -24 47 -52
c0 -36 -26 -78 -70 -78z" />
    <glyph glyph-name="Agrave" unicode="&#xc0;" horiz-adv-x="1181" 
d="M1039 1022l62 43c29 -62 67 -111 84 -130l-36 -32s-61 39 -110 119zM694 407c60 -4 118 -19 170 -44c86 218 162 438 272 521l69 -31c-61 -318 -110 -632 -110 -860c0 -211 42 -349 154 -349c55 0 91 35 114 93l85 -30c-37 -93 -100 -141 -186 -141
c-197 0 -267 164 -267 422c0 25 1 51 2 77c-3 92 -40 159 -93 204c-100 -262 -234 -506 -507 -506c-247 0 -364 185 -364 379c0 211 139 431 401 431c144 0 228 -73 260 -166zM279 156c33 143 173 229 325 247c-25 69 -83 122 -175 122c-195 0 -305 -202 -305 -389
c0 -167 86 -323 277 -323c214 0 337 240 441 496c-41 19 -87 29 -134 32c1 -9 1 -17 1 -26c0 -117 -69 -239 -194 -278l-34 81c90 28 136 117 136 203v14c-118 -20 -225 -92 -251 -206zM1107 785h-1c-69 -113 -119 -287 -182 -461c36 -28 65 -64 85 -107
c18 170 54 363 98 568z" />
    <glyph glyph-name="Atilde" unicode="&#xc3;" horiz-adv-x="1181" 
d="M1083 912l-29 33c18 23 45 29 74 29s59 -6 81 -6c29 0 40 7 51 17l35 -45c-13 -17 -32 -28 -61 -28c-35 0 -72 20 -105 20c-17 0 -32 -5 -46 -20zM694 407c60 -4 118 -19 170 -44c86 218 162 438 272 521l69 -31c-61 -318 -110 -632 -110 -860c0 -211 42 -349 154 -349
c55 0 91 35 114 93l85 -30c-37 -93 -100 -141 -186 -141c-197 0 -267 164 -267 422c0 25 1 51 2 77c-3 92 -40 159 -93 204c-100 -262 -234 -506 -507 -506c-247 0 -364 185 -364 379c0 211 139 431 401 431c144 0 228 -73 260 -166zM279 156c33 143 173 229 325 247
c-25 69 -83 122 -175 122c-195 0 -305 -202 -305 -389c0 -167 86 -323 277 -323c214 0 337 240 441 496c-41 19 -87 29 -134 32c1 -9 1 -17 1 -26c0 -117 -69 -239 -194 -278l-34 81c90 28 136 117 136 203v14c-118 -20 -225 -92 -251 -206zM1107 785h-1
c-69 -113 -119 -287 -182 -461c36 -28 65 -64 85 -107c18 170 54 363 98 568z" />
    <glyph glyph-name="Otilde" unicode="&#xd5;" horiz-adv-x="1116" 
d="M915 823l18 25c111 -55 165 -213 165 -392c0 -313 -163 -688 -466 -688c-183 0 -266 155 -277 348c-248 6 -362 156 -362 301c0 136 101 267 284 267c38 0 61 -7 91 -25l-53 -87c-22 15 -48 22 -78 22c-106 0 -165 -84 -165 -177c0 -111 86 -235 282 -241
c6 319 187 709 436 709c57 0 98 -23 125 -62zM450 121c5 -169 60 -303 187 -303c227 0 371 374 371 676c0 127 -25 242 -81 310c17 -33 25 -75 25 -121c0 -211 -178 -518 -502 -562zM786 835c-183 0 -324 -359 -336 -651c260 55 413 363 413 535c0 69 -25 116 -77 116z
M730 932l-29 33c18 23 45 29 74 29s59 -6 81 -6c29 0 40 7 51 17l35 -45c-13 -17 -32 -28 -61 -28c-35 0 -72 20 -105 20c-17 0 -32 -5 -46 -20z" />
    <glyph glyph-name="OE" unicode="&#x152;" horiz-adv-x="1319" 
d="M308 824l42 -49c-132 -127 -224 -400 -224 -617c0 -191 47 -346 181 -346c167 0 273 314 296 617c-174 44 -251 181 -251 294c0 89 48 162 132 162c148 0 212 -169 212 -376c0 -15 -1 -30 -1 -44h28c70 0 131 11 184 29c-17 40 -25 85 -25 129c0 134 73 267 212 267
c90 0 135 -54 135 -126c0 -93 -74 -214 -220 -287c8 -18 19 -34 31 -47c25 4 52 6 80 6h10l-10 -82h-6c-43 0 -79 10 -110 27c-155 -49 -234 -202 -234 -336c0 -124 66 -233 200 -233c151 0 217 135 217 244c0 74 -30 136 -86 136c-49 0 -84 -51 -84 -112
c0 -28 7 -58 23 -86l-92 -45c-18 35 -27 72 -27 108c0 103 69 195 185 195c114 0 171 -88 171 -190c0 -138 -105 -300 -313 -300c-194 0 -289 131 -289 278c0 149 97 313 286 372c-10 10 -20 22 -28 34c-61 -19 -131 -31 -210 -31c-10 0 -21 0 -30 1
c-21 -309 -134 -654 -389 -654c-186 0 -270 179 -270 397c0 236 99 518 274 665zM608 551c0 165 -38 284 -127 284c-42 -2 -68 -50 -68 -112c0 -88 54 -202 193 -243c1 24 2 48 2 71zM1090 835c-75 0 -112 -100 -112 -204c0 -33 4 -68 12 -99c109 65 159 163 159 230
c0 43 -20 73 -59 73z" />
    <glyph glyph-name="oe" unicode="&#x153;" horiz-adv-x="485" 
d="M339 75c59 0 108 62 146 164c6 0 28 -8 28 -14c-50 -131 -100 -235 -198 -235c-61 0 -92 40 -103 97c-25 -55 -63 -97 -121 -97c-69 0 -99 72 -99 163c0 56 11 119 31 178l38 -9c-1 5 -1 10 -1 14c0 66 38 130 113 130c52 0 79 -38 89 -91c27 54 64 91 117 91
c50 0 75 -36 75 -82c0 -71 -60 -167 -178 -186v-15c0 -60 17 -108 63 -108zM76 264c-9 -36 -13 -70 -13 -100c0 -58 16 -98 41 -98c30 0 60 55 81 122c-54 5 -90 36 -109 76zM161 401c-27 -5 -47 -45 -47 -86c0 -43 22 -87 80 -91c8 34 13 69 13 99c0 45 -11 78 -39 78h-7z
M371 404c-41 0 -80 -85 -92 -168c75 37 108 106 108 143c0 15 -6 25 -16 25z" />
    <glyph glyph-name="endash" unicode="&#x2013;" horiz-adv-x="319" 
d="M23 283h279l-9 -52h-279z" />
    <glyph glyph-name="emdash" unicode="&#x2014;" horiz-adv-x="449" 
d="M41 283h379l-9 -52h-379z" />
    <glyph glyph-name="quotedblleft" unicode="&#x201c;" horiz-adv-x="230" 
d="M99 748l48 -24c-15 -35 -21 -64 -21 -97c0 -15 1 -30 3 -46l-78 -11c0 67 20 130 48 178zM195 728l48 -24c-15 -35 -21 -64 -21 -97c0 -15 1 -30 3 -46l-78 -11c0 67 20 130 48 178z" />
    <glyph glyph-name="quotedblright" unicode="&#x201d;" horiz-adv-x="135" 
d="M189 553l-53 6v17c0 45 -11 79 -32 123l69 37c15 -41 21 -83 21 -122c0 -22 -2 -42 -5 -61zM92 538l-53 6v17c0 46 -11 80 -33 124l70 37c15 -41 21 -83 21 -123c0 -21 -2 -42 -5 -61z" />
    <glyph glyph-name="quoteleft" unicode="&#x2018;" horiz-adv-x="162" 
d="M83 728l48 -24c-15 -35 -21 -64 -21 -97c0 -15 1 -30 3 -46l-78 -11c0 67 20 130 48 178z" />
    <glyph glyph-name="quoteright" unicode="&#x2019;" horiz-adv-x="167" 
d="M111 554l-53 9c1 10 2 20 2 29c0 40 -10 72 -28 113l71 33c11 -36 16 -73 16 -108c0 -27 -3 -53 -8 -76z" />
    <glyph glyph-name="divide" unicode="&#xf7;" horiz-adv-x="242" 
d="M95 93c-25 0 -36 18 -36 39c0 27 20 59 53 59c25 0 36 -18 36 -39c0 -27 -20 -59 -53 -59zM135 324c-24 0 -36 18 -36 39c0 27 20 59 53 59c25 0 36 -18 36 -39c0 -27 -20 -59 -53 -59zM232 283h-209l-9 -52h209z" />
    <glyph glyph-name="ydieresis" unicode="&#xff;" horiz-adv-x="312" 
d="M312 239c-26 -68 -65 -124 -107 -172c29 159 62 345 74 389h-82c-20 -93 -61 -388 -111 -388c-9 0 -20 5 -20 34c0 40 9 87 20 143c25 128 45 211 45 211h-85s-20 -79 -45 -209c-9 -48 -16 -96 -16 -137c0 -67 18 -115 71 -115c27 0 50 17 69 44l-12 -67
c-74 -71 -138 -128 -138 -197c0 -53 32 -79 77 -79c64 0 102 74 119 175l22 129c54 56 109 127 147 225v1c0 6 -19 13 -28 13zM31 -224c0 48 29 87 71 131l-20 -107c-6 -31 -14 -51 -31 -51c-10 0 -20 8 -20 27zM110 490c-25 0 -36 18 -36 39c0 27 20 59 53 59
c25 0 36 -18 36 -39c0 -27 -20 -59 -53 -59zM223 490c-24 0 -36 18 -36 39c0 27 20 59 53 59c25 0 36 -18 36 -39c0 -27 -20 -59 -53 -59z" />
    <glyph glyph-name="Ydieresis" unicode="&#x178;" horiz-adv-x="803" 
d="M771 883l81 -15c-14 -148 -64 -264 -64 -264c-56 -375 -86 -955 -393 -955c-74 0 -114 48 -114 113c0 67 52 134 148 135l2 -79c-61 -8 -85 -43 -85 -73c0 -29 21 -46 48 -46c121 0 186 200 231 434c-41 -84 -96 -143 -159 -143c-83 0 -123 56 -123 158
c0 117 58 269 58 405c0 175 -93 274 -237 274c-182 0 -320 -149 -320 -346c0 -162 95 -237 189 -237c104 0 180 76 202 214l93 -22c-32 -170 -146 -252 -292 -252c-167 0 -287 119 -287 304c0 234 180 395 421 395c191 0 318 -109 318 -330c0 -141 -50 -298 -50 -407
c0 -31 11 -77 52 -77c81 0 138 132 174 305c32 227 57 441 107 509zM661 930c-32 0 -47 24 -47 51c0 36 26 79 70 79c33 0 47 -24 47 -52c0 -36 -26 -78 -70 -78zM761 930c-32 0 -47 24 -47 51c0 36 26 79 70 79c33 0 47 -24 47 -52c0 -36 -26 -78 -70 -78z" />
    <glyph glyph-name="fraction" unicode="&#x2044;" horiz-adv-x="235" 
d="M221 469l41 -16c-75 -152 -137 -284 -224 -456l-40 15c93 189 142 292 223 457z" />
    <glyph glyph-name="Euro" unicode="&#x20ac;" horiz-adv-x="304" 
d="M130 277h46l-7 -42h-47c-2 -10 -4 -19 -5 -28h47l-7 -42h-43c0 -7 -1 -13 -1 -19c0 -57 13 -101 45 -101c37 0 68 45 82 100l62 -20c-24 -79 -73 -130 -152 -130c-84 0 -120 78 -121 170h-31l7 42h26c1 9 2 18 4 28h-25l7 42h27c27 98 88 184 169 184
c60 0 85 -46 85 -105c0 -40 -11 -87 -31 -130l-65 29c22 34 34 75 34 106c0 29 -10 50 -30 50c-30 0 -59 -62 -76 -134z" />
    <glyph glyph-name="guilsinglleft" unicode="&#x2039;" horiz-adv-x="218" 
d="M10 231l7 41s100 48 185 112l32 -53c-84 -53 -168 -84 -168 -84c67 -49 125 -105 125 -105l-48 -51s-60 81 -133 140z" />
    <glyph glyph-name="guilsinglright" unicode="&#x203a;" horiz-adv-x="241" 
d="M234 244l-7 -41s-100 -48 -185 -112l-32 53c84 53 168 84 168 84c-67 49 -125 105 -125 105l48 51s60 -81 133 -140z" />
    <glyph glyph-name="fi" unicode="&#xfb01;" horiz-adv-x="362" 
d="M10 -232c-46 0 -93 21 -93 137c0 217 103 708 157 831c19 42 51 62 81 62c35 0 67 -28 67 -79c0 -208 -132 -410 -187 -486c-10 -51 -18 -101 -25 -148c80 11 128 66 161 154c6 0 28 -8 28 -14c-34 -88 -78 -156 -156 -181c40 -42 57 -95 57 -143
c0 -72 -37 -133 -90 -133zM177 711c0 14 -4 22 -10 22c-20 0 -70 -194 -112 -398c49 91 121 255 122 376zM17 -182c21 0 34 30 34 68c0 42 -15 93 -50 128c-5 -46 -8 -86 -8 -119c0 -48 7 -77 24 -77zM218 456h85c-35 -156 -64 -272 -64 -354c0 -29 11 -34 20 -34
c26 0 59 56 103 171c5 0 28 -7 28 -13v-1c-44 -114 -79 -230 -161 -230c-54 0 -72 50 -72 119c0 111 44 270 61 342zM277 514c-32 0 -47 24 -47 51c0 36 26 79 70 79c33 0 47 -24 47 -52c0 -36 -26 -78 -70 -78z" />
    <glyph glyph-name="fl" unicode="&#xfb02;" horiz-adv-x="397" 
d="M10 -232c-46 0 -93 21 -93 137c0 217 103 708 157 831c19 42 51 62 81 62c35 0 67 -28 67 -79c0 -208 -132 -410 -187 -486c-10 -51 -18 -101 -25 -148c80 11 128 66 161 154c6 0 28 -8 28 -14c-34 -88 -78 -156 -156 -181c40 -42 57 -95 57 -143
c0 -72 -37 -133 -90 -133zM177 711c0 14 -4 22 -10 22c-20 0 -70 -194 -112 -398c49 91 121 255 122 376zM17 -182c21 0 34 30 34 68c0 42 -15 93 -50 128c-5 -46 -8 -86 -8 -119c0 -48 7 -77 24 -77zM284 66c32 0 70 62 113 173c5 0 24 -8 24 -13v-1
c-59 -160 -105 -235 -170 -235c-60 0 -84 59 -84 163c0 73 12 169 32 283c45 251 108 364 166 364c52 0 67 -42 67 -93c0 -59 -20 -130 -30 -161c-41 -131 -108 -229 -148 -278c-5 -43 -8 -82 -8 -114c0 -67 15 -88 38 -88zM388 711c0 14 -5 22 -10 22
c-27 0 -86 -216 -115 -402c50 91 124 258 125 380z" />
    <glyph glyph-name="daggerdbl" unicode="&#x2021;" horiz-adv-x="180" 
d="M109 721h92c-48 -225 -120 -532 -175 -811h-32c44 252 87 589 115 811zM5 374h179l-9 -52h-179zM23 478h179l-9 -52h-179z" />
    <glyph glyph-name="periodcentered" unicode="&#xb7;" horiz-adv-x="105" 
d="M94 290c-32 0 -47 24 -47 51c0 36 26 79 70 79c33 0 47 -24 47 -52c0 -36 -26 -78 -70 -78z" />
    <glyph glyph-name="quotesinglbase" unicode="&#x201a;" horiz-adv-x="133" 
d="M18 -132l-37 33c31 48 38 108 38 155h74c0 -78 -29 -143 -75 -188z" />
    <glyph glyph-name="quotedblbase" unicode="&#x201e;" horiz-adv-x="228" 
d="M23 -132l-37 33c31 48 38 108 38 155h74c0 -78 -29 -143 -75 -188zM133 -132l-37 33c31 48 38 108 38 155h74c0 -78 -29 -143 -75 -188z" />
    <glyph glyph-name="perthousand" unicode="&#x2030;" horiz-adv-x="698" 
d="M361 200c-38 0 -64 -63 -64 -112c0 -29 10 -53 33 -53c38 0 64 63 64 111c0 30 -10 54 -33 54zM365 240c60 0 87 -45 87 -97c0 -69 -47 -148 -127 -148c-60 0 -87 45 -87 97c0 69 47 148 127 148zM140 466c27 0 51 -6 75 -6c53 0 100 14 161 67l46 -25
c-65 -148 -219 -382 -348 -513l-47 37c209 221 319 445 319 445s-44 -35 -128 -35h-13c14 -18 21 -42 21 -68c0 -68 -46 -147 -126 -147c-60 0 -87 45 -87 97c0 69 47 148 127 148zM136 426c-38 0 -64 -63 -64 -112c0 -29 10 -53 33 -53c38 0 64 63 64 111
c0 30 -10 54 -33 54zM583 200c-38 0 -64 -63 -64 -112c0 -29 10 -53 33 -53c38 0 64 63 64 111c0 30 -10 54 -33 54zM587 240c60 0 87 -45 87 -97c0 -69 -47 -148 -127 -148c-60 0 -87 45 -87 97c0 69 47 148 127 148z" />
    <glyph glyph-name="Acircumflex" unicode="&#xc2;" horiz-adv-x="1181" 
d="M1163 1051l41 -5c41 -63 65 -124 65 -124l-61 -29s-6 39 -37 104c0 0 -34 -54 -84 -93l-40 46c86 62 116 101 116 101zM694 407c60 -4 118 -19 170 -44c86 218 162 438 272 521l69 -31c-61 -318 -110 -632 -110 -860c0 -211 42 -349 154 -349c55 0 91 35 114 93l85 -30
c-37 -93 -100 -141 -186 -141c-197 0 -267 164 -267 422c0 25 1 51 2 77c-3 92 -40 159 -93 204c-100 -262 -234 -506 -507 -506c-247 0 -364 185 -364 379c0 211 139 431 401 431c144 0 228 -73 260 -166zM279 156c33 143 173 229 325 247c-25 69 -83 122 -175 122
c-195 0 -305 -202 -305 -389c0 -167 86 -323 277 -323c214 0 337 240 441 496c-41 19 -87 29 -134 32c1 -9 1 -17 1 -26c0 -117 -69 -239 -194 -278l-34 81c90 28 136 117 136 203v14c-118 -20 -225 -92 -251 -206zM1107 785h-1c-69 -113 -119 -287 -182 -461
c36 -28 65 -64 85 -107c18 170 54 363 98 568z" />
    <glyph glyph-name="Ecircumflex" unicode="&#xca;" horiz-adv-x="786" 
d="M591 437l-10 -82h-6c-43 0 -79 10 -109 27c-154 -49 -230 -200 -230 -334c0 -125 66 -235 195 -235c151 0 217 135 217 244c0 74 -30 136 -86 136c-49 0 -84 -51 -84 -112c0 -28 7 -58 23 -86l-92 -45c-18 35 -27 72 -27 108c0 103 69 195 185 195
c114 0 171 -88 171 -190c0 -138 -105 -300 -313 -300c-194 0 -289 131 -289 278c0 149 98 313 288 373c-13 13 -25 28 -34 44c-22 -2 -44 -3 -68 -3c-222 0 -309 106 -309 204c0 85 64 164 163 164c69 0 121 -25 161 -95l-69 -52c-19 41 -44 66 -92 66
c-52 0 -84 -40 -84 -87c0 -68 65 -150 230 -150c16 0 31 1 46 2c-10 31 -15 65 -15 100c0 137 79 279 222 279c98 0 150 -65 150 -145c0 -99 -80 -221 -249 -267c7 -16 16 -31 27 -43c24 4 51 6 78 6h10zM571 836c-80 0 -122 -112 -122 -223c0 -30 3 -59 9 -86
c124 44 175 147 175 222c0 49 -23 87 -62 87zM595 1091l41 -5c41 -63 65 -124 65 -124l-61 -29s-6 39 -37 104c0 0 -34 -54 -84 -93l-40 46c86 62 116 101 116 101z" />
    <glyph glyph-name="Aacute" unicode="&#xc1;" horiz-adv-x="1181" 
d="M1232 1075l62 -43c-49 -80 -110 -119 -110 -119l-36 32c17 19 55 68 84 130zM694 407c60 -4 118 -19 170 -44c86 218 162 438 272 521l69 -31c-61 -318 -110 -632 -110 -860c0 -211 42 -349 154 -349c55 0 91 35 114 93l85 -30c-37 -93 -100 -141 -186 -141
c-197 0 -267 164 -267 422c0 25 1 51 2 77c-3 92 -40 159 -93 204c-100 -262 -234 -506 -507 -506c-247 0 -364 185 -364 379c0 211 139 431 401 431c144 0 228 -73 260 -166zM279 156c33 143 173 229 325 247c-25 69 -83 122 -175 122c-195 0 -305 -202 -305 -389
c0 -167 86 -323 277 -323c214 0 337 240 441 496c-41 19 -87 29 -134 32c1 -9 1 -17 1 -26c0 -117 -69 -239 -194 -278l-34 81c90 28 136 117 136 203v14c-118 -20 -225 -92 -251 -206zM1107 785h-1c-69 -113 -119 -287 -182 -461c36 -28 65 -64 85 -107
c18 170 54 363 98 568z" />
    <glyph glyph-name="Edieresis" unicode="&#xcb;" horiz-adv-x="791" 
d="M581 355l10 82h-10c-27 0 -54 -2 -78 -6c-11 12 -20 27 -27 43c169 46 249 168 249 267c0 80 -52 145 -150 145c-143 0 -222 -142 -222 -279c0 -35 5 -69 15 -100c-15 -1 -30 -2 -46 -2c-165 0 -230 82 -230 150c0 47 32 87 84 87c48 0 73 -25 92 -66l69 52
c-40 70 -92 95 -161 95c-99 0 -163 -79 -163 -164c0 -98 87 -204 309 -204c24 0 46 1 68 3c9 -16 21 -31 34 -44c-190 -60 -288 -224 -288 -373c0 -147 95 -278 289 -278c208 0 313 162 313 300c0 102 -57 190 -171 190c-116 0 -185 -92 -185 -195c0 -36 9 -73 27 -108
l92 45c-16 28 -23 58 -23 86c0 61 35 112 84 112c56 0 86 -62 86 -136c0 -109 -66 -244 -217 -244c-129 0 -195 110 -195 235c0 134 76 285 230 334c30 -17 66 -27 109 -27h6zM571 836c39 0 62 -38 62 -87c0 -75 -51 -178 -175 -222c-6 27 -9 56 -9 86c0 111 42 223 122 223
zM518 920c-25 0 -36 18 -36 39c0 27 20 59 53 59c25 0 36 -18 36 -39c0 -27 -20 -59 -53 -59zM631 920c-24 0 -36 18 -36 39c0 27 20 59 53 59c25 0 36 -18 36 -39c0 -27 -20 -59 -53 -59z" />
    <glyph glyph-name="Egrave" unicode="&#xc8;" horiz-adv-x="786" 
d="M581 355l10 82h-10c-27 0 -54 -2 -78 -6c-11 12 -20 27 -27 43c169 46 249 168 249 267c0 80 -52 145 -150 145c-143 0 -222 -142 -222 -279c0 -35 5 -69 15 -100c-15 -1 -30 -2 -46 -2c-165 0 -230 82 -230 150c0 47 32 87 84 87c48 0 73 -25 92 -66l69 52
c-40 70 -92 95 -161 95c-99 0 -163 -79 -163 -164c0 -98 87 -204 309 -204c24 0 46 1 68 3c9 -16 21 -31 34 -44c-190 -60 -288 -224 -288 -373c0 -147 95 -278 289 -278c208 0 313 162 313 300c0 102 -57 190 -171 190c-116 0 -185 -92 -185 -195c0 -36 9 -73 27 -108
l92 45c-16 28 -23 58 -23 86c0 61 35 112 84 112c56 0 86 -62 86 -136c0 -109 -66 -244 -217 -244c-129 0 -195 110 -195 235c0 134 76 285 230 334c30 -17 66 -27 109 -27h6zM571 836c39 0 62 -38 62 -87c0 -75 -51 -178 -175 -222c-6 27 -9 56 -9 86c0 111 42 223 122 223
zM449 1022l62 43c29 -62 67 -111 84 -130l-36 -32s-61 39 -110 119z" />
    <glyph glyph-name="Iacute" unicode="&#xcd;" horiz-adv-x="569" 
d="M522 882l109 -7c-10 -45 -31 -85 -59 -120c-68 -311 -98 -594 -151 -982h-98c53 351 87 610 147 887c-172 -124 -414 -200 -414 -370c0 -76 50 -125 115 -125c57 0 92 44 92 89c0 30 -17 62 -53 80l41 68c73 -32 107 -94 107 -156c0 -86 -66 -171 -186 -171
c-116 0 -209 85 -209 197c0 248 335 324 521 454c12 51 24 103 38 156zM636 1065l62 -43c-49 -80 -110 -119 -110 -119l-36 32c17 19 55 68 84 130z" />
    <glyph glyph-name="Icircumflex" unicode="&#xce;" horiz-adv-x="568" 
d="M522 882l109 -7c-10 -45 -31 -85 -59 -120c-68 -311 -98 -594 -151 -982h-98c53 351 87 610 147 887c-172 -124 -414 -200 -414 -370c0 -76 50 -125 115 -125c57 0 92 44 92 89c0 30 -17 62 -53 80l41 68c73 -32 107 -94 107 -156c0 -86 -66 -171 -186 -171
c-116 0 -209 85 -209 197c0 248 335 324 521 454c12 51 24 103 38 156zM578 1051l41 -5c41 -63 65 -124 65 -124l-61 -29s-6 39 -37 104c0 0 -34 -54 -84 -93l-40 46c86 62 116 101 116 101z" />
    <glyph glyph-name="Idieresis" unicode="&#xcf;" horiz-adv-x="560" 
d="M631 875l-109 7c-14 -53 -26 -105 -38 -156c-186 -130 -521 -206 -521 -454c0 -112 93 -197 209 -197c120 0 186 85 186 171c0 62 -34 124 -107 156l-41 -68c36 -18 53 -50 53 -80c0 -45 -35 -89 -92 -89c-65 0 -115 49 -115 125c0 170 242 246 414 370
c-60 -277 -94 -536 -147 -887h98c53 388 83 671 151 982c28 35 49 75 59 120zM524 920c-25 0 -36 18 -36 39c0 27 20 59 53 59c25 0 36 -18 36 -39c0 -27 -20 -59 -53 -59zM637 920c-24 0 -36 18 -36 39c0 27 20 59 53 59c25 0 36 -18 36 -39c0 -27 -20 -59 -53 -59z" />
    <glyph glyph-name="Igrave" unicode="&#xcc;" horiz-adv-x="539" 
d="M605 875l-109 7c-14 -53 -26 -105 -38 -156c-186 -130 -521 -206 -521 -454c0 -112 93 -197 209 -197c120 0 186 85 186 171c0 62 -34 124 -107 156l-41 -68c36 -18 53 -50 53 -80c0 -45 -35 -89 -92 -89c-65 0 -115 49 -115 125c0 170 242 246 414 370
c-60 -277 -94 -536 -147 -887h98c53 388 83 671 151 982c28 35 49 75 59 120zM423 1022l62 43c29 -62 67 -111 84 -130l-36 -32s-61 39 -110 119z" />
    <glyph glyph-name="Oacute" unicode="&#xd3;" horiz-adv-x="1116" 
d="M915 823l18 25c111 -55 165 -213 165 -392c0 -313 -163 -688 -466 -688c-183 0 -266 155 -277 348c-248 6 -362 156 -362 301c0 136 101 267 284 267c38 0 61 -7 91 -25l-53 -87c-22 15 -48 22 -78 22c-106 0 -165 -84 -165 -177c0 -111 86 -235 282 -241
c6 319 187 709 436 709c57 0 98 -23 125 -62zM450 121c5 -169 60 -303 187 -303c227 0 371 374 371 676c0 127 -25 242 -81 310c17 -33 25 -75 25 -121c0 -211 -178 -518 -502 -562zM786 835c-183 0 -324 -359 -336 -651c260 55 413 363 413 535c0 69 -25 116 -77 116z
M860 1085l62 -43c-49 -80 -110 -119 -110 -119l-36 32c17 19 55 68 84 130z" />
    <glyph glyph-name="Ocircumflex" unicode="&#xd4;" horiz-adv-x="1116" 
d="M915 823l18 25c111 -55 165 -213 165 -392c0 -313 -163 -688 -466 -688c-183 0 -266 155 -277 348c-248 6 -362 156 -362 301c0 136 101 267 284 267c38 0 61 -7 91 -25l-53 -87c-22 15 -48 22 -78 22c-106 0 -165 -84 -165 -177c0 -111 86 -235 282 -241
c6 319 187 709 436 709c57 0 98 -23 125 -62zM450 121c5 -169 60 -303 187 -303c227 0 371 374 371 676c0 127 -25 242 -81 310c17 -33 25 -75 25 -121c0 -211 -178 -518 -502 -562zM786 835c-183 0 -324 -359 -336 -651c260 55 413 363 413 535c0 69 -25 116 -77 116z
M822 1081l41 -5c41 -63 65 -124 65 -124l-61 -29s-6 39 -37 104c0 0 -34 -54 -84 -93l-40 46c86 62 116 101 116 101z" />
    <glyph glyph-name="Ograve" unicode="&#xd2;" horiz-adv-x="1116" 
d="M933 848l-18 -25c-27 39 -68 62 -125 62c-249 0 -430 -390 -436 -709c-196 6 -282 130 -282 241c0 93 59 177 165 177c30 0 56 -7 78 -22l53 87c-30 18 -53 25 -91 25c-183 0 -284 -131 -284 -267c0 -145 114 -295 362 -301c11 -193 94 -348 277 -348
c303 0 466 375 466 688c0 179 -54 337 -165 392zM450 121c324 44 502 351 502 562c0 46 -8 88 -25 121c56 -68 81 -183 81 -310c0 -302 -144 -676 -371 -676c-127 0 -182 134 -187 303zM786 835c52 0 77 -47 77 -116c0 -172 -153 -480 -413 -535c12 292 153 651 336 651z
M716 1022l62 43c29 -62 67 -111 84 -130l-36 -32s-61 39 -110 119z" />
    <glyph glyph-name="Uacute" unicode="&#xda;" horiz-adv-x="779" 
d="M823 -35l84 -2c-12 -135 -73 -196 -160 -196c-101 0 -137 68 -137 218c0 13 0 26 1 40c-49 -135 -119 -257 -208 -257c-83 0 -123 56 -123 158c0 168 138 462 138 627c0 175 -93 274 -237 274c-182 0 -320 -149 -320 -346c0 -162 95 -237 189 -237c104 0 180 76 202 214
l93 -22c-32 -170 -146 -252 -292 -252c-167 0 -287 119 -287 304c0 234 180 395 421 395c191 0 318 -109 318 -330c0 -184 -130 -446 -130 -629c0 -31 11 -77 52 -77c99 0 177 250 207 396c35 223 101 475 148 643l87 -11c-24 -157 -80 -306 -80 -306
c-40 -135 -94 -462 -94 -609c0 -72 17 -131 61 -131c41 0 65 55 67 136zM710 1075l62 -43c-49 -80 -110 -119 -110 -119l-36 32c17 19 55 68 84 130z" />
    <glyph glyph-name="Ucircumflex" unicode="&#xdb;" horiz-adv-x="779" 
d="M823 -35l84 -2c-12 -135 -73 -196 -160 -196c-101 0 -137 68 -137 218c0 13 0 26 1 40c-49 -135 -119 -257 -208 -257c-83 0 -123 56 -123 158c0 168 138 462 138 627c0 175 -93 274 -237 274c-182 0 -320 -149 -320 -346c0 -162 95 -237 189 -237c104 0 180 76 202 214
l93 -22c-32 -170 -146 -252 -292 -252c-167 0 -287 119 -287 304c0 234 180 395 421 395c191 0 318 -109 318 -330c0 -184 -130 -446 -130 -629c0 -31 11 -77 52 -77c99 0 177 250 207 396c35 223 101 475 148 643l87 -11c-24 -157 -80 -306 -80 -306
c-40 -135 -94 -462 -94 -609c0 -72 17 -131 61 -131c41 0 65 55 67 136zM662 1051l41 -5c41 -63 65 -124 65 -124l-61 -29s-6 39 -37 104c0 0 -34 -54 -84 -93l-40 46c86 62 116 101 116 101z" />
    <glyph glyph-name="Ugrave" unicode="&#xd9;" horiz-adv-x="779" 
d="M823 -35l84 -2c-12 -135 -73 -196 -160 -196c-101 0 -137 68 -137 218c0 13 0 26 1 40c-49 -135 -119 -257 -208 -257c-83 0 -123 56 -123 158c0 168 138 462 138 627c0 175 -93 274 -237 274c-182 0 -320 -149 -320 -346c0 -162 95 -237 189 -237c104 0 180 76 202 214
l93 -22c-32 -170 -146 -252 -292 -252c-167 0 -287 119 -287 304c0 234 180 395 421 395c191 0 318 -109 318 -330c0 -184 -130 -446 -130 -629c0 -31 11 -77 52 -77c99 0 177 250 207 396c35 223 101 475 148 643l87 -11c-24 -157 -80 -306 -80 -306
c-40 -135 -94 -462 -94 -609c0 -72 17 -131 61 -131c41 0 65 55 67 136zM556 1022l62 43c29 -62 67 -111 84 -130l-36 -32s-61 39 -110 119z" />
    <glyph glyph-name="dotlessi" unicode="&#x131;" horiz-adv-x="191" 
d="M47 456h85c-35 -156 -64 -272 -64 -354c0 -29 11 -34 20 -34c26 0 59 56 103 171c5 0 28 -7 28 -13v-1c-44 -114 -79 -230 -161 -230c-54 0 -72 50 -72 119c0 111 44 270 61 342z" />
    <glyph glyph-name="circumflex" unicode="&#x2c6;" horiz-adv-x="198" 
d="M102 631l41 -5c41 -63 65 -124 65 -124l-61 -29s-6 39 -37 104c0 0 -34 -54 -84 -93l-40 46c86 62 116 101 116 101z" />
    <glyph glyph-name="tilde" unicode="&#x2dc;" horiz-adv-x="247" 
d="M32 502l-29 33c18 23 45 29 74 29s59 -6 81 -6c29 0 40 7 51 17l35 -45c-13 -17 -32 -28 -61 -28c-35 0 -72 20 -105 20c-17 0 -32 -5 -46 -20z" />
    <glyph glyph-name="macron" unicode="&#xaf;" horiz-adv-x="203" 
d="M26 551h159l-9 -52h-159z" />
    <glyph glyph-name="breve" unicode="&#x2d8;" horiz-adv-x="187" 
d="M151 598l51 -13c-13 -74 -65 -113 -111 -113c-42 0 -79 32 -79 99c0 8 1 16 2 24l53 3c-2 -12 -3 -23 -3 -32c0 -39 14 -61 32 -61c19 0 43 29 55 93z" />
    <glyph glyph-name="dotaccent" unicode="&#x2d9;" horiz-adv-x="121" 
d="M50 490c-25 0 -36 18 -36 39c0 27 20 59 53 59c25 0 36 -18 36 -39c0 -27 -20 -59 -53 -59z" />
    <glyph glyph-name="ring" unicode="&#x2da;" horiz-adv-x="272" 
d="M95 446c-52 0 -76 32 -76 67c0 43 36 92 100 92c53 0 78 -33 78 -68c0 -43 -36 -91 -102 -91zM116 575c-38 0 -59 -32 -59 -60c0 -21 13 -40 41 -40c37 0 59 32 59 60c0 21 -13 40 -41 40z" />
    <glyph glyph-name="cedilla" unicode="&#xb8;" horiz-adv-x="414" 
d="M162 -104l-15 21c23 23 28 49 34 87l30 -5c-2 -18 -5 -39 -13 -58c7 1 13 1 20 1c52 0 76 -31 76 -65c0 -39 -33 -82 -93 -82c-46 0 -81 27 -88 54l45 23c7 -21 24 -36 48 -36c27 0 43 22 43 43c0 18 -12 36 -39 36s-31 -9 -48 -19z" />
    <glyph glyph-name="hungarumlaut" unicode="&#x2dd;" horiz-adv-x="201" 
d="M48 653l74 -16c-15 -93 -57 -153 -57 -153l-45 17c8 24 25 83 28 152zM150 638l71 -26c-28 -89 -77 -143 -77 -143l-43 23c11 22 36 79 49 146z" />
    <glyph glyph-name="ogonek" unicode="&#x2db;" horiz-adv-x="231" 
d="M197 -99l19 -49c-24 -12 -48 -17 -70 -17c-58 0 -101 38 -101 83c0 30 20 64 69 92l34 -41c-42 -21 -62 -47 -62 -65c0 -15 12 -25 36 -25c18 0 43 6 75 22z" />
    <glyph glyph-name="caron" unicode="&#x2c7;" horiz-adv-x="247" 
d="M118 473l-41 5c-41 63 -65 124 -65 124l61 29s6 -39 37 -104c0 0 34 54 84 93l40 -46c-86 -62 -116 -101 -116 -101z" />
    <glyph glyph-name="Eth" unicode="&#xd0;" horiz-adv-x="898" 
d="M183 33h279l-9 -52h-279zM76 -92c45 0 84 -16 129 -35c45 44 78 128 105 245c-189 25 -280 185 -280 353c0 281 212 427 423 427c238 0 448 -158 448 -508c0 -296 -169 -622 -443 -622c-120 0 -196 22 -247 42c-52 -34 -107 -47 -160 -47zM458 -182
c218 0 335 284 335 548c0 339 -152 482 -339 482c-184 0 -337 -157 -337 -381c0 -138 67 -274 203 -298c11 56 21 119 31 187c26 187 48 313 75 393l93 -23c-28 -79 -53 -187 -75 -370c-9 -70 -19 -131 -32 -186c100 22 159 112 159 199c0 37 -11 74 -34 105l74 66
c35 -44 52 -97 52 -150c0 -128 -97 -258 -265 -274c-36 -126 -84 -210 -137 -265c50 -18 112 -33 197 -33z" />
    <glyph glyph-name="eth" unicode="&#xf0;" horiz-adv-x="346" 
d="M173 536l-7 52c29 1 53 5 74 11c-6 37 -28 53 -55 53c-22 0 -47 -11 -67 -31l-43 51c34 26 73 40 109 40c51 0 97 -28 116 -88c29 18 42 37 42 37l33 -32s-20 -27 -66 -53c0 -7 1 -14 1 -21c0 -60 -9 -136 -32 -224c-19 -107 -27 -170 -27 -203c0 -21 3 -29 10 -29
c23 0 53 57 85 140c6 0 28 -8 28 -14c-61 -160 -110 -230 -156 -230c-32 0 -50 29 -50 98v11c-23 -61 -58 -114 -115 -114c-49 0 -69 55 -69 127c0 141 76 349 171 349c37 0 58 -22 65 -67c10 51 18 105 21 150c-20 -6 -43 -11 -68 -13zM160 394c-43 0 -92 -177 -92 -267
c0 -31 6 -52 20 -52c46 0 103 163 103 256c0 37 -9 63 -31 63z" />
    <glyph glyph-name="Lslash" unicode="&#x141;" horiz-adv-x="838" 
d="M375 174c45 0 87 6 125 17c9 49 16 104 23 165c49 449 140 534 263 534c97 0 146 -88 146 -205c0 -178 -113 -421 -341 -518l-21 -84h52l-9 -52h-61c-13 -36 -27 -67 -42 -95c98 -44 179 -98 283 -98c67 0 105 55 115 99l81 -21c-26 -92 -95 -153 -194 -153
c-118 0 -214 70 -318 122c-70 -93 -154 -122 -236 -122c-90 0 -136 53 -136 109c0 59 52 120 158 120c66 0 123 -11 173 -28c9 20 17 42 25 67h-57l9 52h63l12 52c-35 -7 -73 -11 -113 -11c-265 0 -375 141 -375 280c0 135 104 269 269 269c47 0 79 -9 116 -30l-39 -80
c-23 14 -48 21 -78 21c-117 0 -188 -93 -188 -190c0 -107 87 -220 295 -220zM785 840c-55 0 -118 -54 -164 -484c-4 -41 -10 -79 -16 -115c168 109 242 328 242 469c0 76 -22 130 -62 130zM254 -189c59 0 112 29 157 104c-43 17 -89 28 -139 28c-62 0 -94 -38 -94 -73
c0 -30 25 -59 76 -59z" />
    <glyph glyph-name="r.start" horiz-adv-x="283" 
d="M166 92c0 -15 6 -21 16 -21c22 0 57 53 101 168c5 0 28 -7 28 -13v-1c-44 -114 -79 -230 -161 -230c-47 0 -66 26 -66 73c0 57 47 138 47 189c0 34 -13 59 -28 83c-32 -124 -75 -260 -109 -350l-28 14c28 74 75 248 108 384c-12 24 -22 52 -22 91c0 31 6 68 21 116
l76 -15c-2 -40 -12 -96 -26 -159c32 -39 89 -81 89 -147c0 -64 -46 -147 -46 -182z" />
    <glyph glyph-name="C.small" horiz-adv-x="356" 
d="M179 55c68 0 133 74 177 184c6 0 28 -8 28 -14c-30 -80 -109 -235 -215 -235c-121 0 -173 125 -173 272c0 211 108 468 275 468c82 0 116 -68 116 -152c0 -68 -22 -147 -60 -209l-80 36c45 80 65 151 65 200c0 44 -16 71 -46 71c-92 0 -172 -258 -172 -442
c0 -101 24 -179 85 -179z" />
    <glyph glyph-name="R.small" horiz-adv-x="398" 
d="M96 0h-86c52 247 75 387 113 616c-15 -14 -29 -30 -44 -47l-45 42c47 58 131 119 223 119c114 0 170 -76 170 -166c0 -108 -78 -236 -229 -285c63 -77 40 -207 74 -207c33 0 94 84 126 167c6 0 28 -8 28 -14c-38 -100 -117 -235 -180 -235c-93 0 -72 168 -105 256z
M153 314l5 -2c120 41 185 167 185 260c0 59 -27 105 -83 105c-17 0 -32 -2 -46 -6c-21 -129 -41 -241 -61 -357z" />
    <glyph glyph-name="S.small" horiz-adv-x="409" 
d="M19 251l104 -38c-12 -30 -18 -57 -18 -80c0 -53 29 -84 70 -84c58 0 91 68 91 135c0 154 -150 211 -150 361c0 110 63 185 165 185c85 0 129 -56 129 -140c0 -26 -5 -54 -13 -85l-87 25c10 28 15 54 15 76c0 43 -19 70 -50 70c-38 0 -64 -36 -64 -96
c0 -135 160 -207 160 -379c0 -109 -67 -211 -190 -211s-181 69 -181 162c0 31 6 64 19 99z" />
    <glyph glyph-name="T.small" horiz-adv-x="307" 
d="M101 509l-86 -27c-7 20 -11 46 -11 72c0 79 38 169 165 169c33 0 67 -7 97 -7c54 0 87 19 105 59l69 -33c-37 -63 -94 -76 -144 -76c-9 0 -18 0 -26 1c-35 -209 -70 -405 -122 -667h-88c41 236 87 462 124 673c-66 -7 -94 -47 -94 -101c0 -19 4 -41 11 -63z" />
    <glyph glyph-name="M.small" horiz-adv-x="600" 
d="M457 -9c-44 0 -72 19 -72 142c0 71 9 176 30 333c-47 -164 -75 -245 -147 -455h-65v206c0 77 0 133 2 262c-35 -208 -38 -224 -121 -479h-73s131 340 182 721h98c0 -235 0 -228 7 -467c60 167 108 319 145 467h101c-48 -351 -65 -511 -65 -586c0 -54 9 -64 23 -64
c30 0 67 88 98 168c6 0 28 -8 28 -14c-30 -80 -95 -234 -171 -234z" />
    <glyph glyph-name="Y.small" horiz-adv-x="246" 
d="M45 721h93c13 -103 20 -217 25 -319c41 109 88 225 131 319h53c-56 -126 -120 -290 -180 -430c-20 -111 -28 -158 -54 -291h-88c18 104 33 189 52 288c-5 122 -12 289 -32 433z" />
    <glyph glyph-name="E.small" horiz-adv-x="358" 
d="M181 55c68 0 133 74 177 184c6 0 28 -8 28 -14c-45 -115 -114 -235 -220 -235c-105 0 -152 78 -152 167s47 188 129 231c-33 33 -50 85 -50 138c0 98 57 201 167 201c77 0 119 -55 119 -122c0 -38 -14 -80 -42 -118l-60 44c24 28 35 59 35 85c0 35 -18 61 -47 61
c-55 0 -92 -100 -92 -184c0 -35 6 -67 20 -88c12 3 24 4 37 4c7 0 13 0 20 -1l-9 -59h-2c-19 0 -36 3 -51 9c-54 -39 -86 -124 -86 -193c0 -61 24 -110 79 -110z" />
    <glyph glyph-name="uni0000" horiz-adv-x="0" 
 />
    <glyph glyph-name="uni0000" horiz-adv-x="0" 
 />
    <glyph glyph-name="A.small" horiz-adv-x="458" 
d="M352 681h95c-18 -103 -40 -190 -75 -305c-18 -98 -27 -183 -27 -239c0 -46 6 -69 17 -69c27 0 66 94 96 171c5 0 24 -8 24 -13v-1c-59 -160 -86 -230 -151 -230c-48 0 -68 63 -68 160c-41 -95 -92 -165 -150 -165c-81 0 -115 94 -115 216c0 218 109 524 248 524
c53 0 82 -36 95 -94zM260 668c-83 0 -170 -324 -170 -497c0 -63 12 -105 39 -105c59 0 117 137 161 329l7 37c8 45 13 88 13 125c0 66 -15 111 -50 111z" />
    <glyph glyph-name="B.small" horiz-adv-x="460" 
d="M160 -5c-38 0 -86 8 -125 12c-16 -9 -34 -16 -54 -20l-12 72c8 3 19 4 31 4c8 0 16 0 25 -1c39 118 90 404 123 595c-29 -20 -54 -49 -77 -83l-53 38c48 70 122 118 235 118c115 0 167 -63 167 -133c0 -66 -46 -139 -128 -174c97 -32 142 -108 142 -186
c0 -117 -100 -242 -274 -242zM155 45c108 0 171 103 171 199c0 74 -38 144 -123 158c-9 -45 -18 -88 -27 -128c-18 -76 -40 -163 -87 -221c25 -4 49 -8 66 -8zM211 447c74 17 113 87 113 146c0 47 -24 88 -73 92c-13 -80 -26 -161 -40 -238z" />
    <glyph glyph-name="D.small" horiz-adv-x="496" 
d="M-19 -13l-12 72c8 3 19 4 31 4c8 0 16 0 25 -1c39 119 91 408 124 599c-30 -16 -58 -43 -78 -75l-53 43c45 63 124 97 209 97c172 0 248 -142 248 -301c0 -201 -123 -430 -329 -430c-37 0 -76 7 -110 11c-17 -8 -35 -15 -55 -19zM178 271c-17 -76 -40 -161 -88 -219
c25 -4 48 -7 65 -7c128 0 220 209 220 387c0 113 -37 213 -126 238c-23 -139 -44 -281 -71 -399z" />
    <glyph glyph-name="F.small" horiz-adv-x="375" 
d="M226 415h76l-9 -52h-76c-20 -111 -43 -228 -69 -363h-88c21 124 45 245 67 363h-63l9 52h64l47 258c-66 -7 -94 -47 -94 -101c0 -19 4 -41 11 -63l-86 -27c-7 20 -11 46 -11 72c0 79 38 169 165 169c33 0 67 -7 97 -7c54 0 87 19 105 59l69 -33c-37 -63 -94 -76 -144 -76
c-9 0 -18 0 -26 1c-14 -84 -28 -167 -44 -252z" />
    <glyph glyph-name="G.small" horiz-adv-x="412" 
d="M231 -78l17 100c-19 -20 -43 -32 -76 -32c-121 0 -173 125 -173 272c0 211 108 468 275 468c82 0 116 -68 116 -152c0 -68 -22 -147 -60 -209l-80 36c45 80 65 151 65 200c0 44 -16 71 -46 71c-92 0 -172 -258 -172 -442c0 -101 24 -179 85 -179c89 0 98 140 126 200
l76 -29l-35 -77c-4 -14 -14 -110 -38 -229c-19 -110 -88 -152 -161 -152c-63 0 -99 43 -99 111l76 4c-1 -5 -1 -9 -1 -14c0 -33 14 -51 39 -51c41 0 52 29 66 104z" />
    <glyph glyph-name="H.small" horiz-adv-x="363" 
d="M302 720h87c-38 -225 -76 -441 -131 -720h-88c20 114 41 227 62 338h-109l-65 -338h-88c20 114 41 227 62 338h-48l9 52h49c21 114 42 224 60 330h89c-19 -110 -37 -217 -58 -330h109c21 114 42 224 60 330z" />
    <glyph glyph-name="I.small" horiz-adv-x="166" 
d="M89 720h87c-38 -225 -76 -441 -131 -720h-88c44 252 94 498 132 720z" />
    <glyph glyph-name="J.small" horiz-adv-x="157" 
d="M115 720h85c-11 -65 -58 -295 -107 -573c-31 -175 -136 -282 -252 -288l-1 87c106 0 146 83 163 173c76 420 93 521 112 601z" />
    <glyph glyph-name="K.small" horiz-adv-x="333" 
d="M88 720h87c-19 -111 -38 -220 -59 -336c5 -1 11 -3 15 -5c94 69 106 297 228 352l51 -76c-88 -40 -122 -229 -237 -308c74 -91 24 -275 73 -275c41 0 84 85 115 167c6 0 28 -8 28 -14c-48 -124 -112 -235 -183 -235c-101 0 -47 237 -85 332c-5 -2 -11 -4 -17 -5
c-18 -99 -38 -203 -60 -317h-88c44 252 94 498 132 720z" />
    <glyph glyph-name="L.small" horiz-adv-x="457" 
d="M261 37c89 0 159 104 196 202c6 0 28 -8 28 -14c-46 -121 -107 -235 -230 -235c-46 0 -107 12 -165 17c-18 -10 -39 -17 -63 -20l-12 72c11 1 23 2 34 2c8 0 17 -1 25 -1c18 45 36 122 56 213c-76 23 -120 79 -120 151c0 34 10 72 32 111l80 -47c-18 -26 -27 -55 -27 -82
c0 -33 14 -62 46 -79c13 68 26 139 37 213c18 124 67 190 180 190c89 0 131 -71 131 -157c0 -132 -97 -300 -267 -310l-13 -52c-13 -53 -32 -113 -66 -158c46 -7 88 -16 118 -16zM278 563c-22 -132 -33 -194 -44 -248c108 23 171 179 171 279c0 50 -15 86 -48 86
c-43 0 -67 -46 -79 -117z" />
    <glyph glyph-name="N.small" horiz-adv-x="406" 
d="M42 0h-93s9 91 37 166c20 113 79 445 91 521h92c-1 -9 -16 -94 -36 -202c58 140 132 245 208 245c46 0 78 -36 78 -92c0 -143 -136 -404 -136 -536c0 -29 11 -34 20 -34c26 0 59 56 103 171c6 0 28 -8 28 -14c-44 -114 -99 -230 -181 -230c-35 0 -68 28 -68 89
c0 158 136 412 136 534c0 20 -11 30 -26 30c-46 0 -161 -193 -218 -461c-19 -104 -35 -184 -35 -187z" />
    <glyph glyph-name="O.small" horiz-adv-x="445" 
d="M439 479c0 -213 -94 -489 -271 -489c-108 0 -157 94 -157 246c0 232 99 494 271 494c107 0 157 -97 157 -251zM167 47c99 0 180 264 180 484c0 84 -16 139 -69 141c-95 0 -177 -236 -177 -476c0 -81 18 -146 66 -149z" />
    <glyph glyph-name="P.small" horiz-adv-x="405" 
d="M13 629c58 60 130 97 219 97c138 0 204 -90 204 -192c0 -124 -98 -267 -280 -287c-14 -78 -30 -159 -47 -247h-88c14 84 29 166 45 248c-51 8 -82 25 -82 25l33 60c18 -15 38 -26 59 -32c23 123 46 241 66 355c-29 -16 -56 -41 -76 -70zM232 674
c-21 -122 -42 -243 -66 -375c118 23 183 133 183 229c0 86 -32 147 -117 146z" />
    <glyph glyph-name="Q.small" horiz-adv-x="425" 
d="M19 -12l-18 71s16 6 37 6c25 0 51 -4 78 -11c126 82 211 309 211 466c0 92 -30 160 -97 160c-93 0 -143 -128 -143 -253c0 -87 24 -172 74 -212l-64 -76c-65 55 -96 153 -96 254c0 165 84 337 242 337c119 0 173 -104 173 -234c0 -165 -87 -373 -237 -463
c97 -35 194 -90 261 -90c28 0 55 6 82 27l39 -75c-27 -23 -62 -32 -94 -32c-114 0 -238 102 -337 146c-34 -13 -71 -20 -111 -21z" />
    <glyph glyph-name="U.small" horiz-adv-x="439" 
d="M116 719h87c-47 -210 -119 -444 -119 -590c0 -31 9 -57 40 -57c61 0 117 206 152 348c17 89 37 182 71 300h83c-20 -154 -31 -193 -77 -344c-18 -98 -27 -183 -27 -239c0 -46 6 -69 17 -69c27 0 66 94 96 171c5 0 24 -8 24 -13v-1c-59 -160 -86 -235 -151 -235
c-54 0 -74 54 -74 138v19c-35 -91 -80 -157 -139 -157c-72 0 -107 46 -107 148c0 140 70 390 124 581z" />
    <glyph glyph-name="V.small" horiz-adv-x="269" 
d="M308 721h63c-136 -281 -246 -709 -250 -721h-90c1 34 1 68 1 101c0 345 -39 620 -39 620h98c25 -212 28 -451 28 -538v-34c92 368 189 572 189 572z" />
    <glyph glyph-name="W.small" horiz-adv-x="439" 
d="M478 721h63c-136 -281 -246 -709 -250 -721h-90c1 33 1 66 1 98c0 59 -1 116 -3 170c-46 -148 -76 -262 -78 -268h-90c1 34 1 68 1 101c0 345 -39 620 -39 620h98c25 -212 28 -451 28 -538v-34c24 97 49 182 73 256c-11 189 -29 316 -29 316h78c5 -46 10 -94 14 -142
c37 93 63 142 63 142h53c-38 -79 -74 -169 -107 -259c13 -187 17 -348 17 -348c92 368 197 607 197 607z" />
    <glyph glyph-name="X.small" horiz-adv-x="358" 
d="M118 720h98c-6 -111 -10 -217 -10 -311v-31c49 104 100 221 143 343h52c-57 -166 -129 -322 -193 -446c6 -126 22 -207 55 -207c32 0 66 91 97 171c5 0 24 -8 24 -13v-1c-59 -160 -86 -235 -151 -235c-51 0 -82 58 -100 144c-46 -80 -78 -130 -80 -134h-53s52 82 120 210
c-9 70 -12 150 -12 231c0 99 5 198 10 279z" />
    <glyph glyph-name="Z.small" horiz-adv-x="366" 
d="M367 725l11 -57c-44 -180 -109 -492 -248 -622c20 -5 40 -9 60 -9c89 0 139 104 176 202c6 0 28 -8 28 -14c-39 -101 -78 -235 -210 -235c-39 0 -65 13 -99 22c-25 -14 -51 -22 -79 -25l-12 72c11 1 22 2 32 2s20 -1 29 -1c103 149 190 395 222 601c0 0 -34 0 -91 3
c0 0 -3 -58 -12 -108l-94 3c23 91 27 167 27 167c46 -3 93 -5 140 -5c40 0 80 1 120 4z" />
    <glyph glyph-name="parenleft.small" horiz-adv-x="195" 
d="M173 593l49 -29c-85 -178 -121 -367 -121 -564c0 -43 1 -88 5 -132l-50 -10c-20 84 -30 163 -30 239c0 175 51 332 147 496z" />
    <glyph glyph-name="parenright.small" horiz-adv-x="188" 
d="M18 -142l-49 29c85 178 121 367 121 563c0 44 -2 88 -5 133l50 10c20 -84 30 -164 30 -240c0 -174 -52 -331 -147 -495z" />
    <glyph glyph-name="s.start" horiz-adv-x="240" 
d="M-18 58l61 44c13 -22 25 -30 44 -30c25 0 39 18 39 54c0 60 -27 118 -49 186c-35 -97 -81 -201 -139 -315l-28 14c62 126 115 250 154 350c-8 31 -12 64 -12 99c0 41 6 86 22 135l80 -14c-10 -52 -24 -106 -41 -162c3 -22 9 -42 21 -62c35 -63 78 -146 79 -221v-4
c19 31 35 68 50 107c6 0 28 -8 28 -14c-26 -68 -61 -132 -100 -181l-5 -6c-23 -33 -61 -48 -105 -48c-47 0 -85 27 -99 68z" />
    <glyph glyph-name="p.swash" horiz-adv-x="341" 
d="M-41 -10c30 182 66 402 71 466h75l-8 -54c26 40 56 64 88 64c56 0 80 -59 80 -136c0 -97 -38 -223 -95 -296c87 20 134 107 171 205c6 0 28 -8 28 -14c-46 -121 -107 -235 -230 -235c-43 0 -82 17 -101 58l-12 -77c-6 -35 -11 -68 -19 -100c95 -26 186 -52 257 -52
c98 0 158 46 194 122l69 -38c-59 -87 -141 -134 -263 -134c-81 0 -176 27 -270 55c-56 -179 -164 -286 -330 -286c-135 0 -204 85 -204 174c0 102 88 210 267 210c67 0 140 -14 212 -32c8 31 14 64 20 100zM-275 -118c-132 0 -194 -83 -194 -161c0 -69 48 -133 139 -133
c124 0 206 82 257 256c-74 21 -144 38 -202 38zM70 239l-13 -78c-1 -9 -1 -17 -1 -26c0 -31 7 -60 34 -60c46 0 88 164 88 256c0 37 -6 63 -22 63c-30 0 -61 -54 -86 -155z" />
    <glyph glyph-name="y.swash" horiz-adv-x="297" 
d="M46 456h85s-20 -83 -45 -211c-11 -56 -20 -103 -20 -143c0 -29 11 -34 20 -34c43 0 84 216 104 388h75c-2 -97 -67 -396 -79 -485c-5 -35 -11 -68 -19 -100c95 -26 186 -52 257 -52c98 0 158 46 194 122l69 -38c-59 -87 -141 -134 -263 -134c-81 0 -176 27 -270 55
c-56 -179 -164 -286 -330 -286c-135 0 -204 85 -204 174c0 102 88 210 267 210c67 0 140 -14 212 -32c7 31 14 64 20 100l9 54c-20 -30 -43 -49 -72 -49c-53 0 -71 48 -71 115c0 41 7 89 16 137c25 130 45 209 45 209zM-115 -118c-132 0 -194 -83 -194 -161
c0 -69 48 -133 139 -133c124 0 205 82 256 256c-73 21 -143 38 -201 38z" />
    <glyph glyph-name="g.swash" horiz-adv-x="319" 
d="M53 -10c-49 0 -69 54 -69 127c0 141 77 349 172 349c27 0 44 -14 52 -42c2 11 3 22 4 32h75c-2 -97 -67 -396 -79 -485c-5 -35 -11 -68 -19 -100c95 -26 186 -52 257 -52c98 0 158 46 194 122l69 -38c-59 -87 -141 -134 -263 -134c-81 0 -176 27 -270 55
c-56 -179 -165 -286 -330 -286c-135 0 -204 85 -204 174c0 102 88 210 267 210c67 0 140 -14 212 -32c7 31 14 64 20 100l13 78c-25 -47 -59 -78 -101 -78zM-93 -118c-132 0 -194 -83 -194 -161c0 -69 48 -133 139 -133c124 0 205 82 256 256c-73 21 -143 38 -201 38z
M161 394c-42 0 -93 -176 -93 -267c0 -31 6 -52 21 -52c46 0 103 163 103 256c0 37 -9 63 -31 63z" />
    <glyph glyph-name="j.swash" horiz-adv-x="193" 
d="M77 -26c24 135 73 416 90 482h-82c-27 -75 -63 -160 -85 -217v-1c0 -8 28 -13 28 -13c8 23 17 45 26 67c-19 -112 -38 -246 -70 -401c-18 1 -36 1 -54 1c-395 0 -583 -193 -583 -347c0 -102 83 -187 242 -187c213 0 372 159 457 478c163 -17 290 -73 433 -173l44 66
c-145 93 -293 142 -464 158zM-72 -158c15 0 29 0 44 -1c-79 -292 -220 -433 -383 -433c-105 0 -158 58 -158 131c0 128 162 303 497 303zM134 515c-32 0 -47 24 -47 51c0 36 26 79 70 79c33 0 47 -24 47 -52c0 -36 -26 -78 -70 -78z" />
    <glyph glyph-name="d.swash" horiz-adv-x="355" 
d="M299 397c-25 -129 -36 -215 -36 -260c0 -25 3 -37 10 -37c22 0 52 62 82 139c6 0 28 -8 28 -14c-61 -160 -118 -230 -164 -230c-32 0 -50 29 -50 98v11c-23 -61 -58 -114 -115 -114c-49 0 -69 55 -69 127c0 141 76 349 171 349c37 0 58 -22 65 -67c13 69 28 133 46 190
c-99 27 -194 56 -268 56c-98 0 -158 -46 -194 -122l-69 38c59 87 141 134 263 134c85 0 186 -30 284 -59c67 181 166 290 316 290c135 0 204 -85 204 -175c0 -101 -88 -209 -267 -209c-62 0 -129 12 -196 29c-16 -54 -29 -112 -41 -174zM538 582c132 0 194 84 194 163
c0 69 -48 134 -139 134c-110 0 -186 -105 -239 -264c67 -19 130 -33 184 -33zM161 394c-43 0 -92 -177 -92 -267c0 -31 6 -52 20 -52c46 0 103 163 103 256c0 37 -9 63 -31 63z" />
    <glyph glyph-name="l.swash" horiz-adv-x="226" 
d="M-260 217c104 0 195 40 269 100c45 334 119 483 185 483c51 0 68 -40 68 -90c0 -118 -63 -268 -170 -380c-11 -66 -17 -129 -17 -176c0 -67 15 -88 38 -88c32 0 70 62 113 173c5 0 24 -8 24 -13v-1c-59 -160 -105 -235 -170 -235c-60 0 -84 59 -84 164c0 29 1 62 5 98
c-76 -52 -164 -84 -263 -84c-208 0 -305 129 -305 260c0 136 105 275 297 275c81 0 114 -14 165 -38l-32 -64s-49 39 -132 39c-148 0 -229 -110 -229 -218c0 -103 75 -205 238 -205zM217 711c0 14 -5 22 -10 22c-23 0 -68 -153 -99 -312c69 94 109 204 109 290z" />
    <glyph glyph-name="e.end" horiz-adv-x="846" 
d="M134 39c117 0 168 472 468 472c156 0 228 -99 228 -204c0 -122 -96 -253 -273 -253c-91 0 -157 40 -198 90l48 48c42 -56 86 -78 151 -78c131 0 195 97 195 188c0 82 -51 159 -151 159c-250 0 -240 -471 -486 -471c-87 0 -123 80 -123 174c0 136 75 302 187 302
c50 0 75 -36 75 -82c0 -72 -61 -168 -180 -187c-2 -16 -3 -31 -3 -45c0 -63 17 -113 62 -113zM172 404c-39 0 -76 -82 -92 -168c75 37 108 106 108 143c0 15 -6 25 -16 25z" />
    <glyph glyph-name="k.end" horiz-adv-x="729" 
d="M42 0h-81c-1 9 -1 18 -1 27c0 79 31 161 31 161c35 212 79 455 120 548c19 43 54 62 84 62c50 0 69 -25 69 -63c0 -81 -86 -218 -148 -294l-16 -83c32 67 72 108 116 108c41 0 59 -28 59 -67c0 -65 -50 -160 -124 -204c93 -93 106 -337 306 -337c129 0 194 115 194 220
c0 87 -45 166 -134 166c-66 0 -109 -40 -131 -125l-76 31c26 72 98 144 200 144c141 0 212 -109 212 -224c0 -129 -89 -265 -267 -265c-253 0 -311 276 -359 368c-9 -1 -19 -2 -28 -2h-1c-9 -57 -18 -115 -25 -171zM109 223c44 36 90 113 90 151c0 12 -5 20 -17 20
c-24 0 -57 -34 -100 -134l-5 -31c11 0 22 -3 32 -6zM208 711c0 3 1 6 1 8c0 9 -4 14 -9 14c-16 0 -29 -42 -65 -208c29 54 61 127 73 186z" />
    <glyph glyph-name="t_h.swash" horiz-adv-x="958" 
d="M662 0h-81c-1 9 -2 18 -2 27c0 13 1 26 3 39c-27 -49 -52 -71 -89 -71c-44 0 -62 54 -62 139c0 68 12 154 29 248l9 49c-88 16 -173 43 -264 43s-140 -68 -140 -129c0 -50 34 -96 106 -96c58 0 106 43 106 43l36 -56s-63 -44 -142 -44c-108 0 -165 72 -165 148
c0 83 68 170 209 170c83 0 170 -30 260 -46c12 66 25 131 47 228h71c-5 -83 -15 -158 -33 -239h20c28 0 55 4 80 11c42 215 70 334 155 334c55 0 81 -40 81 -94c0 -77 -54 -183 -154 -241l-15 -75c32 49 72 79 115 79c35 0 58 -23 58 -71c0 -93 -65 -212 -65 -294
c0 -29 11 -34 20 -34c26 0 59 56 103 171c6 0 28 -8 28 -14c-44 -114 -89 -230 -171 -230c-35 0 -68 28 -68 89c0 108 65 219 65 291c0 11 -5 20 -16 20c-42 0 -98 -99 -134 -395zM519 290c-10 -69 -15 -121 -15 -158c0 -42 7 -64 20 -64c26 0 65 92 95 168
c11 64 22 130 34 192c-24 -5 -49 -8 -75 -8c-9 0 -17 0 -25 1c-9 -42 -21 -85 -34 -131zM850 719c0 19 -10 30 -21 30c-23 0 -33 -32 -76 -235c61 51 97 128 97 205z" />
    <glyph glyph-name="n.swash" horiz-adv-x="324" 
d="M36 0h-87s9 91 37 166c20 113 37 214 49 290h86l-11 -62c31 46 68 73 109 73c51 0 71 -47 71 -113c0 -153 -111 -380 -111 -522c0 -111 61 -172 133 -172c88 0 137 70 137 143c0 40 -15 82 -47 112l65 65c45 -41 66 -98 66 -154c0 -108 -78 -216 -222 -216
c-128 0 -216 78 -216 214c0 189 104 392 104 524c0 24 -5 47 -26 47c-25 0 -64 -46 -96 -183z" />
    <glyph glyph-name="m.swash" horiz-adv-x="492" 
d="M36 0h-87s9 91 37 166c20 113 37 214 49 290h86l-13 -75c30 51 67 86 108 86c39 0 55 -31 55 -69c0 -6 -1 -13 -1 -21c32 56 73 90 119 90c51 0 71 -47 71 -113c0 -153 -111 -380 -111 -522c0 -111 61 -172 133 -172c88 0 137 70 137 143c0 40 -15 82 -47 112l65 65
c45 -41 66 -98 66 -154c0 -108 -78 -216 -222 -216c-128 0 -226 78 -226 214c0 189 114 392 114 524c0 24 -5 47 -26 47c-25 0 -66 -48 -99 -194c-15 -81 -32 -163 -41 -201h-91c24 110 70 324 70 367c0 16 -5 21 -13 21c-32 0 -74 -78 -101 -221z" />
    <glyph glyph-name="f.alt" horiz-adv-x="217" 
d="M-17 -299h-79c13 197 56 328 56 328c54 295 122 620 160 707c19 42 51 62 81 62c35 0 67 -28 67 -79c0 -213 -138 -419 -191 -491c-11 -52 -21 -104 -31 -154c64 12 138 77 171 165c6 0 28 -8 28 -14c-40 -104 -116 -179 -207 -190c-28 -146 -49 -274 -55 -334zM223 711
c0 14 -4 22 -10 22c-21 0 -66 -189 -113 -398c49 91 122 255 123 376z" />
    <glyph glyph-name="r.end" horiz-adv-x="476" 
d="M22 24c0 93 66 182 66 233c0 30 -9 53 -20 74l-40 -106s-28 5 -28 13v1c18 48 31 98 41 146c-10 22 -18 49 -18 84c0 32 7 72 23 124l75 -22c-4 -66 -12 -114 -28 -166c33 -34 76 -74 76 -131c0 -64 -67 -164 -67 -251c0 -111 69 -153 141 -153c88 0 137 70 137 143
c0 44 -18 88 -55 119l57 71c55 -42 82 -105 82 -168c0 -108 -79 -215 -222 -215c-111 0 -220 74 -220 204z" />
    <glyph glyph-name="h.alt" horiz-adv-x="331" 
d="M33 0h-79c4 82 33 165 33 165c29 160 58 338 95 555h78c-6 -75 -16 -138 -51 -273l-9 -59c32 49 72 79 115 79c35 0 58 -23 58 -71c0 -93 -65 -212 -65 -294c0 -29 11 -34 20 -34c26 0 59 56 103 171c6 0 28 -8 28 -14c-44 -114 -89 -230 -171 -230c-35 0 -68 28 -68 89
c0 108 65 219 65 291c0 11 -5 20 -16 20c-27 0 -78 -56 -112 -232z" />
    <glyph glyph-name="l.alt" horiz-adv-x="182" 
d="M95 720h82c-19 -120 -42 -216 -81 -344c-18 -98 -27 -183 -27 -239c0 -46 6 -69 17 -69c27 0 66 94 96 171c5 0 24 -8 24 -13v-1c-59 -160 -86 -230 -151 -230c-44 0 -62 54 -62 139c0 68 11 154 29 248c16 84 42 218 73 338z" />
    <glyph glyph-name="b.alt" horiz-adv-x="318" 
d="M96 -5c-74 0 -100 67 -100 169c0 62 10 137 25 218c19 101 43 229 67 338h72c-13 -105 -28 -159 -58 -276l-4 -19c21 21 47 34 75 34c72 0 95 -71 95 -174c0 -45 -11 -94 -27 -138c30 13 57 40 77 92c6 0 28 -8 28 -14c-24 -64 -74 -108 -125 -123
c-33 -61 -78 -106 -125 -107zM189 305c0 55 -12 89 -38 89c-45 0 -73 -61 -73 -124c0 -58 25 -119 82 -131c18 48 29 111 29 166zM98 69c17 0 32 12 45 33c-37 9 -60 33 -74 64c0 -58 5 -97 29 -97z" />
    <glyph glyph-name="k.alt" horiz-adv-x="301" 
d="M33 0h-79c4 82 33 165 33 165c29 160 67 405 111 622h77c-3 -89 -25 -227 -72 -404c29 52 65 83 103 83c41 0 59 -28 59 -68c0 -66 -51 -163 -128 -206c31 -46 25 -117 53 -117c24 0 67 49 111 164c6 0 28 -8 28 -14c-44 -114 -91 -230 -161 -230c-81 0 -80 115 -96 176
h-14zM177 394h-5c-24 0 -57 -34 -100 -135l-5 -30c13 0 23 -3 32 -6c44 36 90 113 90 151c0 10 -3 18 -12 20z" />
    <glyph glyph-name="t_h.alt" horiz-adv-x="520" 
d="M224 0h-81c-1 30 1 60 15 102c-27 -49 -58 -107 -103 -107c-44 0 -62 54 -62 139c0 68 12 154 29 248l9 49c-26 6 -50 14 -73 23l13 40c25 -12 43 -22 66 -29c12 66 25 131 47 227h71c-5 -83 -15 -159 -33 -239h20c28 0 55 4 80 11c42 215 70 334 155 334
c55 0 81 -40 81 -94c0 -77 -54 -183 -154 -241l-15 -75c32 49 72 79 115 79c35 0 58 -23 58 -71c0 -93 -65 -212 -65 -294c0 -29 11 -34 20 -34c26 0 59 56 103 171c6 0 28 -8 28 -14c-44 -114 -89 -230 -171 -230c-35 0 -68 28 -68 89c0 108 65 219 65 291
c0 11 -5 20 -16 20c-42 0 -98 -99 -134 -395zM81 290c-10 -69 -15 -121 -15 -158c0 -42 7 -64 20 -64c26 0 65 92 95 168c11 64 22 130 34 192c-24 -5 -49 -8 -75 -8h-25c-10 -41 -21 -84 -34 -130zM412 719c0 19 -10 30 -21 30c-23 0 -33 -32 -76 -235c61 51 97 128 97 205
z" />
    <glyph glyph-name="a.end" horiz-adv-x="832" 
d="M169 104c-23 -61 -58 -114 -116 -114c-49 0 -69 54 -69 127c0 141 77 349 172 349c37 0 58 -22 65 -67l11 56h71c-34 -152 -66 -279 -66 -387c0 -170 102 -251 228 -251c163 0 281 147 281 329c0 152 -84 236 -244 253l7 79c212 -16 305 -154 305 -327
c0 -181 -130 -384 -352 -384c-202 0 -293 123 -293 324v13zM161 394c-42 0 -93 -176 -93 -267c0 -31 6 -52 21 -52c46 0 103 163 103 256c0 37 -9 63 -31 63z" />
    <glyph glyph-name="t.swash" horiz-adv-x="182" 
d="M84 692h71c-3 -60 -10 -116 -20 -173c168 24 333 143 498 143c53 0 105 -12 158 -43l-30 -66c-51 33 -103 46 -156 46c-153 0 -313 -108 -480 -135c-12 -55 -26 -111 -44 -174c-10 -69 -15 -121 -15 -158c0 -42 7 -64 20 -64c27 0 66 94 96 171c6 0 28 -9 28 -14
c-59 -160 -90 -230 -155 -230c-44 0 -62 54 -62 139c0 68 12 154 29 248l14 76c-53 2 -107 15 -162 46l35 58c47 -28 92 -42 138 -46c9 50 20 105 37 176z" />
    <glyph glyph-name="y.end" horiz-adv-x="551" 
d="M46 456h85s-20 -83 -45 -211c-11 -56 -20 -103 -20 -143c0 -29 11 -34 20 -34c50 0 91 295 111 388h82c-12 -47 -49 -250 -78 -413c124 109 253 247 253 457c0 147 -88 225 -210 225c-88 0 -170 -46 -214 -146l-70 29c48 97 150 167 284 167c148 0 281 -85 281 -274
c0 -251 -191 -403 -336 -524l-18 -106c-17 -101 -55 -175 -119 -175c-45 0 -77 26 -77 79c0 66 60 125 137 192c4 23 9 47 13 72c-19 -27 -42 -44 -69 -44c-53 0 -71 48 -71 115c0 41 7 89 16 137c25 130 45 209 45 209zM31 -224c0 -19 10 -27 20 -27c17 0 25 20 31 51
l18 98c-42 -41 -69 -81 -69 -122z" />
    <glyph glyph-name="_0000" horiz-adv-x="0" 
 />
    <glyph glyph-name="_0001" horiz-adv-x="0" 
 />
    <glyph glyph-name="A" unicode="A" horiz-adv-x="1181" 
d="M694 407c60 -4 118 -19 170 -44c86 218 162 438 272 521l69 -31c-61 -318 -110 -632 -110 -860c0 -211 42 -349 154 -349c55 0 91 35 114 93l85 -30c-37 -93 -100 -141 -186 -141c-197 0 -267 164 -267 422c0 25 1 51 2 77c-3 92 -40 159 -93 204
c-100 -262 -234 -506 -507 -506c-247 0 -364 185 -364 379c0 211 139 431 401 431c144 0 228 -73 260 -166zM279 156c33 143 173 229 325 247c-25 69 -83 122 -175 122c-195 0 -305 -202 -305 -389c0 -167 86 -323 277 -323c214 0 337 240 441 496c-41 19 -87 29 -134 32
c1 -9 1 -17 1 -26c0 -117 -69 -239 -194 -278l-34 81c90 28 136 117 136 203v14c-118 -20 -225 -92 -251 -206zM1107 785h-1c-69 -113 -119 -287 -182 -461c36 -28 65 -64 85 -107c18 170 54 363 98 568z" />
    <glyph glyph-name="s" unicode="s" horiz-adv-x="251" 
d="M-30 58l61 44c13 -22 25 -30 44 -30c25 0 39 18 39 54c0 62 -29 122 -51 193c-11 -33 -24 -64 -35 -94c0 0 -28 5 -28 13v1c13 34 32 79 51 127c-7 30 -12 62 -12 96c0 40 7 84 23 133l68 -13c-8 -54 -18 -102 -30 -146c3 -84 101 -188 101 -300v-4c19 31 35 68 50 107
c6 0 28 -8 28 -14c-46 -120 -102 -235 -210 -235c-47 0 -85 27 -99 68z" />
    <glyph glyph-name="o_x" horiz-adv-x="717" 
d="M161 401c-29 -6 -52 -71 -52 -135c0 -54 16 -106 61 -119c22 53 37 123 37 176c0 45 -11 79 -39 79c-2 0 -5 -1 -7 -1zM112 67c13 4 25 18 37 38c-42 16 -69 56 -83 104c-2 -15 -3 -30 -3 -43c0 -59 16 -100 41 -100c3 0 5 0 8 1zM475 464c62 0 75 -78 79 -166
c23 72 58 164 120 164c14 0 30 -5 46 -17l-30 -76c-11 5 -22 8 -31 8c-47 0 -73 -55 -104 -161c1 -82 5 -152 43 -152c37 0 74 56 119 175c6 0 28 -8 28 -14c-64 -168 -124 -232 -182 -232c-51 0 -72 52 -80 119c-30 -68 -64 -122 -107 -122c-39 0 -57 24 -57 64
c0 26 8 57 28 94l55 -23c-9 -18 -16 -39 -16 -53c0 -11 4 -18 13 -18c25 0 51 53 79 127c-4 102 5 208 -28 208c-51 0 -77 -236 -210 -283c-34 -73 -85 -116 -149 -116c-69 0 -99 72 -99 163c0 56 11 119 31 178l36 -9c11 77 53 144 124 144c67 0 102 -77 102 -167
c0 -49 -12 -100 -25 -144c89 52 112 309 215 309z" />
    <glyph glyph-name="uni00A0" unicode="&#xa0;" horiz-adv-x="181" 
 />
    </font>
</defs>
</svg>
